<svg width="1790" height="973" viewBox="0 0 1790 973" fill="none" xmlns="http://www.w3.org/2000/svg">
<path fill-rule="evenodd" clip-rule="evenodd" d="M5593 749V187.072C5435.57 171.886 5328.86 142.916 5222.17 113.95C5067.54 71.9713 4912.94 30 4604.03 30C4294.94 30 4140.4 71.9774 3985.85 113.955C3831.31 155.932 3676.77 197.909 3367.68 197.909C3058.59 197.909 2904.04 155.932 2749.5 113.955C2594.96 71.9774 2440.41 30 2131.32 30C1822.23 30 1667.69 71.9774 1513.15 113.955C1358.6 155.932 1204.06 197.909 894.969 197.909C586.059 197.909 431.46 155.938 276.834 113.96C170.138 84.9932 63.4293 56.0234 -94 40.8372V241H-327V961.967C-179.24 947.456 -76.524 926.322 23.3524 905.773C184.103 872.699 337.498 841.139 659.5 841.139C968.588 841.139 1123.75 874.104 1278.91 907.069C1434.07 940.035 1589.23 973 1898.32 973C2207.41 973 2361.96 930.264 2516.5 887.527C2671.04 844.791 2825.59 802.055 3134.68 802.055C3443.77 802.055 3598.31 844.791 3752.85 887.527C3907.4 930.264 4061.94 973 4371.03 973C4679.94 973 4834.54 930.27 4989.17 887.532C5095.86 858.042 5202.57 828.549 5360 813.088V749H5593Z" fill="#56C0D8"/>
<path fill-rule="evenodd" clip-rule="evenodd" d="M725.274 623.986L585.676 321.595C570.852 325.893 555.559 328.613 539.671 329.352C443.672 333.659 303.857 285.117 238.16 215C172.451 144.859 50.4998 88 -58.0002 122.5C-114.787 122.616 -129.496 105.019 -147.275 83.7494C-161.117 67.1893 -176.82 48.4029 -215.693 34.0162C-236.803 26.2012 -255.445 14.2087 -273.041 0.344864L-795 241.306C-765.685 256.429 -738.764 276.617 -712.102 296.609C-708.268 299.484 -704.439 302.356 -700.61 305.207C-658.767 336.374 -613.453 366.661 -561.733 373.538C-539.799 376.454 -517.555 375.023 -495.342 373.593C-469.611 371.938 -443.92 370.285 -418.799 375.395C-350.288 389.341 -305.612 435.739 -260.512 482.579C-218.379 526.336 -175.876 570.478 -113.222 588.909C-43.1909 597.129 16.7724 588.462 75.2311 580.012C128.621 572.295 180.756 564.76 238.16 570.436C293.533 575.922 342.827 605.714 391.778 635.298C447.457 668.948 502.692 702.33 565.925 699.372C621.454 696.766 671.44 665.734 715.409 631.694C718.709 629.129 721.985 626.575 725.274 623.986ZM1112.3 546.679L1298.13 405.399C1306.39 413.598 1315.46 420.964 1325.54 427.287C1386.5 465.39 1461.67 449.499 1526.39 429.015C1528.35 428.394 1530.32 427.771 1532.29 427.145C1595.37 407.127 1663.35 385.558 1727.57 410.565C1756.27 421.746 1781.63 441.456 1806.81 461.034C1838.91 485.981 1870.72 510.711 1908.81 517.303C1924.98 520.098 1940.85 519.322 1956.64 516.969L2219.55 862.768C2195.76 861.608 2171.93 864.557 2148.33 867.477C2144.93 867.897 2141.54 868.316 2138.16 868.723C2101.19 873.172 2062.24 875.783 2026.5 861.115C2011.35 854.895 1997.36 845.79 1983.4 836.697C1967.22 826.165 1951.06 815.649 1933.15 809.653C1883.61 793.078 1832.03 800.329 1780.3 807.6C1733.35 814.199 1686.28 820.816 1640.5 809.653C1592.16 797.866 1562.33 773.738 1530.95 748.347C1506.52 728.577 1481.14 708.042 1445.33 691.97C1407.66 675.07 1366.29 675.899 1325.2 676.722C1278.46 677.657 1232.1 678.586 1191.99 653.411C1156.77 631.297 1134.1 593.111 1116.28 555.225C1114.94 552.375 1113.62 549.541 1112.3 546.679Z" fill="url(#paint0_linear_48009_2989)"/>
<defs>
<linearGradient id="paint0_linear_48009_2989" x1="1716.06" y1="106.426" x2="1547.84" y2="1157.54" gradientUnits="userSpaceOnUse">
<stop offset="0.00197075" stop-color="#6F4A9F"/>
<stop offset="0.0695" stop-color="#6D55A5"/>
<stop offset="0.3675" stop-color="#6383BB"/>
<stop offset="0.6326" stop-color="#5CA4CB"/>
<stop offset="0.8525" stop-color="#58B9D4"/>
<stop offset="1" stop-color="#56C0D8"/>
</linearGradient>
</defs>
</svg>
