<svg width="800" height="800" viewBox="0 0 800 800" fill="none" xmlns="http://www.w3.org/2000/svg">
<path d="M401.36 726.736C588.289 726.736 739.824 647.473 739.824 549.696C739.824 451.92 588.289 372.656 401.36 372.656C214.432 372.656 62.896 451.92 62.896 549.696C62.896 647.473 214.432 726.736 401.36 726.736Z" fill="#F5F5F5"/>
<path d="M285.312 579.568L304 590.4C306.147 591.489 308.521 592.057 310.928 592.057C313.336 592.057 315.709 591.489 317.856 590.4L498.976 485.824C502.8 483.616 502.8 480.032 498.976 477.824L480.336 467.056C478.189 465.967 475.816 465.399 473.408 465.399C471.001 465.399 468.627 465.967 466.48 467.056L285.36 571.632C281.488 573.776 281.488 577.36 285.312 579.568Z" fill="#E0E0E0"/>
<path d="M628.544 615.616C674.273 615.616 711.344 595.322 711.344 570.288C711.344 545.254 674.273 524.96 628.544 524.96C582.815 524.96 545.744 545.254 545.744 570.288C545.744 595.322 582.815 615.616 628.544 615.616Z" fill="#E0E0E0"/>
<path d="M118.064 614.144C144.016 626.512 186.096 626.512 212.048 614.144C238 601.776 238 581.728 212.048 569.344C186.096 556.96 144.016 556.976 118.064 569.344C92.1121 581.712 92.1121 601.776 118.064 614.144Z" fill="#E0E0E0"/>
<path d="M494.128 98.6079C493.68 95.4079 491.104 94.2239 488 96.0319L317.632 194.384C315.83 195.563 314.331 197.148 313.256 199.013C312.18 200.878 311.558 202.97 311.44 205.12V581.12C311.44 584.752 313.808 586.416 316.848 585.072C315.004 585.859 313.01 586.232 311.005 586.166C309.001 586.1 307.036 585.595 305.248 584.688L298.144 580.608C296.338 579.433 294.834 577.848 293.755 575.983C292.677 574.117 292.053 572.024 291.936 569.872V193.888C292.049 191.735 292.671 189.64 293.75 187.774C294.829 185.908 296.335 184.324 298.144 183.152L468.496 84.7999C470.414 83.8222 472.536 83.3125 474.688 83.3125C476.84 83.3125 478.962 83.8222 480.88 84.7999L488 88.8639C489.659 89.9556 491.064 91.3903 492.121 93.0712C493.178 94.7521 493.863 96.6401 494.128 98.6079Z" fill="#455A64"/>
<path d="M488 96L317.632 194.384C315.83 195.563 314.331 197.148 313.255 199.013C312.18 200.878 311.558 202.97 311.44 205.12V581.12C311.44 585.056 314.224 586.672 317.632 584.688L488 486.272C489.801 485.092 491.299 483.506 492.375 481.642C493.45 479.777 494.073 477.685 494.192 475.536V99.536C494.192 95.664 491.408 94.048 488 96ZM485.264 440.112C485.264 443.488 482.896 445.632 479.952 447.328L325.056 536.752C322.128 538.448 319.744 537.088 319.744 533.696V241.024C319.847 239.179 320.381 237.385 321.303 235.784C322.226 234.183 323.511 232.821 325.056 231.808L480 142.4C482.944 140.704 485.312 142.08 485.312 145.456L485.264 440.112Z" fill="#37474F"/>
<path d="M316.8 585.008C314.956 585.795 312.961 586.168 310.957 586.102C308.953 586.036 306.988 585.531 305.2 584.624L298.096 580.544C296.291 579.367 294.789 577.782 293.711 575.917C292.632 574.052 292.008 571.959 291.888 569.808V193.888C291.968 191.724 292.595 189.615 293.712 187.76L313.216 198.96C312.102 200.811 311.474 202.913 311.392 205.072V581.072C311.44 584.688 313.808 586.352 316.8 585.008Z" fill="#263238"/>
<path d="M402.816 153.488C405.104 152.16 406.976 153.232 406.976 155.888C406.894 157.33 406.475 158.732 405.753 159.983C405.03 161.233 404.024 162.297 402.816 163.088C400.528 164.4 398.656 163.328 398.656 160.688C398.737 159.246 399.155 157.843 399.878 156.592C400.6 155.341 401.607 154.278 402.816 153.488Z" fill="#263238"/>
<path d="M400 526.4C398.968 526.411 397.951 526.146 397.056 525.632C394.944 524.416 393.856 521.92 393.856 518.608C394.054 515.082 395.078 511.652 396.846 508.595C398.613 505.537 401.075 502.939 404.032 501.008C406.896 499.408 409.648 499.104 411.744 500.32C413.84 501.536 414.944 504.032 414.944 507.344C414.75 510.871 413.727 514.302 411.959 517.36C410.191 520.418 407.728 523.016 404.768 524.944C403.335 525.841 401.69 526.343 400 526.4ZM408.736 501.136C407.329 501.197 405.962 501.622 404.768 502.368C402.043 504.152 399.775 506.55 398.146 509.371C396.517 512.192 395.574 515.356 395.392 518.608C395.392 521.328 396.256 523.328 397.856 524.256C399.456 525.184 401.616 524.928 403.968 523.568C406.695 521.782 408.965 519.381 410.593 516.557C412.222 513.734 413.164 510.567 413.344 507.312C413.344 504.592 412.48 502.592 410.88 501.68C410.202 501.301 409.432 501.118 408.656 501.152L408.736 501.136Z" fill="#E6E6E6"/>
<path d="M386.784 178.752L418.784 160.24C420.704 159.136 422.256 159.92 422.256 161.984C422.171 163.149 421.813 164.279 421.21 165.28C420.606 166.28 419.775 167.125 418.784 167.744L386.784 186.256C384.864 187.36 383.312 186.576 383.312 184.512C383.397 183.346 383.755 182.217 384.358 181.216C384.962 180.215 385.793 179.371 386.784 178.752Z" fill="#263238"/>
<path d="M485.264 440.144C485.264 443.52 482.896 445.664 479.952 447.36L325.056 536.784C322.128 538.48 319.744 537.12 319.744 533.728V241.024C319.847 239.179 320.381 237.385 321.303 235.784C322.226 234.183 323.511 232.821 325.056 231.808L480 142.4C482.944 140.704 485.312 142.08 485.312 145.456L485.264 440.144Z" fill="#56C0D8"/>
<path opacity="0.75" d="M485.264 440.144C485.264 443.52 482.896 445.664 479.952 447.36L325.056 536.784C322.128 538.48 319.744 537.12 319.744 533.728V241.024C319.847 239.179 320.381 237.385 321.303 235.784C322.226 234.183 323.511 232.821 325.056 231.808L480 142.4C482.944 140.704 485.312 142.08 485.312 145.456L485.264 440.144Z" fill="white"/>
<path d="M480 142.4L325.104 231.808C323.559 232.821 322.274 234.183 321.351 235.784C320.429 237.385 319.895 239.179 319.792 241.024V260.8L485.312 165.216V145.456C485.264 142.08 482.896 140.704 480 142.4Z" fill="#56C0D8"/>
<path d="M319.744 512.144V533.728C319.744 537.12 322.128 538.528 325.056 536.784L480 447.36C482.944 445.664 485.312 443.52 485.312 440.144V416.592L319.744 512.144Z" fill="#56C0D8"/>
<path opacity="0.15" d="M333.36 512.48L449.104 445.6C451.776 444 453.904 445.312 453.904 448.4C453.816 450.078 453.336 451.712 452.502 453.17C451.669 454.629 450.505 455.872 449.104 456.8L333.36 523.68C330.688 525.28 328.56 523.968 328.56 520.88C328.648 519.202 329.128 517.568 329.962 516.11C330.795 514.651 331.959 513.408 333.36 512.48Z" fill="black"/>
<path d="M462.208 436.224V439.632C462.208 440.4 462.608 440.928 463.088 440.816L468.544 439.552C469.024 439.44 469.024 439.712 468.544 440.16L463.088 445.184C462.542 445.786 462.229 446.564 462.208 447.376V450.784C462.208 451.552 462.592 451.728 463.056 451.184L476 436.048C476.448 435.504 476.448 435.056 476 435.056L463.056 434.848C462.592 434.848 462.208 435.456 462.208 436.224Z" fill="#455A64"/>
<path d="M355.84 314.64L347.616 309.84C347.454 309.774 347.319 309.656 347.232 309.504L345.728 306.864L350.528 304.048L350.384 304.464L355.84 314.64Z" fill="#E0E0E0"/>
<path d="M349.856 304.496L355.552 314.352C355.624 314.514 355.744 314.65 355.897 314.74C356.05 314.83 356.227 314.87 356.404 314.854C356.58 314.838 356.747 314.767 356.882 314.651C357.016 314.535 357.11 314.38 357.152 314.208L363.168 296.832L349.856 304.496Z" fill="#F0F0F0"/>
<path d="M409.36 233.104C409.285 231.722 408.885 230.378 408.193 229.179C407.501 227.981 406.536 226.963 405.376 226.208C404.139 225.569 402.768 225.236 401.376 225.236C399.984 225.236 398.613 225.569 397.376 226.208L333.024 263.36C331.866 264.117 330.903 265.136 330.211 266.333C329.519 267.531 329.118 268.875 329.04 270.256V302.864C329.115 304.246 329.515 305.59 330.207 306.788C330.9 307.987 331.865 309.005 333.024 309.76C334.261 310.398 335.632 310.731 337.024 310.731C338.416 310.731 339.787 310.398 341.024 309.76L405.792 272.352C409.376 270.32 409.408 268.272 409.408 265.728L409.36 233.104Z" fill="#F0F0F0"/>
<path d="M329.04 302.864C329.115 304.246 329.515 305.59 330.207 306.788C330.899 307.987 331.864 309.005 333.024 309.76C334.142 310.328 335.367 310.652 336.62 310.71C337.872 310.768 339.123 310.559 340.288 310.096C338.416 310.816 336.992 309.744 336.992 307.472V274.848C337.035 273.462 337.438 272.111 338.16 270.928L330.16 266.336C329.443 267.522 329.041 268.871 328.992 270.256L329.04 302.864Z" fill="#E0E0E0"/>
<path d="M409.216 232C408.752 230.4 407.216 229.776 405.376 230.832L340.976 267.984C339.797 268.712 338.831 269.739 338.176 270.96L330.176 266.368C330.838 265.156 331.803 264.137 332.976 263.408L397.376 226.256C398.615 225.625 399.986 225.296 401.376 225.296C402.766 225.296 404.137 225.625 405.376 226.256C406.375 226.9 407.231 227.742 407.892 228.73C408.552 229.718 409.003 230.831 409.216 232Z" fill="#FAFAFA"/>
<path d="M347.68 282.624L393.696 256C395.024 255.232 396.096 255.584 396.096 256.784C396.001 257.524 395.735 258.232 395.318 258.852C394.901 259.471 394.346 259.985 393.696 260.352L347.68 286.976C346.352 287.744 345.28 287.392 345.28 286.192C345.375 285.452 345.642 284.744 346.058 284.124C346.475 283.505 347.03 282.991 347.68 282.624Z" fill="#455A64"/>
<path d="M347.68 292.064L379.68 273.472C381.024 272.704 382.096 273.056 382.096 274.256C381.999 274.998 381.73 275.707 381.311 276.326C380.891 276.946 380.333 277.459 379.68 277.824L347.68 296.416C346.352 297.184 345.28 296.832 345.28 295.632C345.375 294.892 345.642 294.184 346.058 293.564C346.475 292.945 347.03 292.431 347.68 292.064Z" fill="#455A64"/>
<path d="M347.68 273.216L393.696 246.528C395.024 245.76 396.096 246.112 396.096 247.312C396.001 248.052 395.735 248.76 395.318 249.38C394.901 249.999 394.346 250.513 393.696 250.88L347.68 277.568C346.352 278.336 345.28 277.984 345.28 276.784C345.375 276.043 345.642 275.335 346.058 274.716C346.475 274.097 347.03 273.583 347.68 273.216Z" fill="#455A64"/>
<path d="M347.104 318.112L342.064 315.232C341.2 314.839 340.247 314.682 339.302 314.777C338.358 314.873 337.456 315.218 336.688 315.776C334.596 317.077 332.846 318.86 331.584 320.976C330.039 323.369 329.161 326.131 329.04 328.976C328.943 329.925 329.099 330.882 329.493 331.751C329.886 332.619 330.503 333.368 331.28 333.92L336.32 336.816C337.195 337.261 338.176 337.453 339.154 337.371C340.132 337.289 341.068 336.936 341.856 336.352C344.081 334.903 345.933 332.949 347.262 330.65C348.59 328.351 349.359 325.772 349.504 323.12C349.607 322.145 349.437 321.161 349.013 320.276C348.589 319.392 347.928 318.643 347.104 318.112Z" fill="#455A64"/>
<path d="M342.064 315.2C341.2 314.806 340.247 314.649 339.303 314.745C338.358 314.841 337.456 315.185 336.688 315.744C334.599 317.049 332.85 318.831 331.584 320.944C330.039 323.337 329.161 326.098 329.04 328.944C328.94 329.893 329.094 330.851 329.488 331.721C329.882 332.59 330.5 333.338 331.28 333.888L336.272 336.752C335.558 336.185 334.996 335.449 334.636 334.612C334.276 333.774 334.129 332.86 334.208 331.952C334.356 329.299 335.125 326.718 336.454 324.417C337.782 322.116 339.633 320.159 341.856 318.704C342.601 318.179 343.462 317.845 344.366 317.73C345.27 317.616 346.188 317.725 347.04 318.048L342.064 315.2Z" fill="#37474F"/>
<path d="M341.536 321.056C342.944 320.24 344.08 320.896 344.08 322.512C344.033 323.396 343.778 324.257 343.336 325.024C342.894 325.792 342.277 326.444 341.536 326.928C340.128 327.728 338.992 327.072 338.992 325.456C339.036 324.573 339.29 323.714 339.733 322.949C340.175 322.184 340.793 321.535 341.536 321.056Z" fill="white"/>
<path d="M341.872 334.976C343.848 333.725 345.459 331.975 346.544 329.904V329.696C346.544 327.024 344.672 325.952 342.368 327.28L340.928 328.112C339.767 328.872 338.792 329.884 338.075 331.072C337.358 332.26 336.916 333.594 336.784 334.976C336.895 335.1 337.018 335.212 337.152 335.312C337.89 335.707 338.725 335.886 339.561 335.826C340.396 335.767 341.197 335.472 341.872 334.976Z" fill="white"/>
<path d="M355.84 433.008L347.616 428.208C347.457 428.137 347.323 428.02 347.232 427.872L345.728 425.232L350.528 422.4L350.384 422.832L355.84 433.008Z" fill="#E0E0E0"/>
<path d="M349.856 422.864L355.552 432.72C355.624 432.882 355.744 433.018 355.897 433.108C356.05 433.198 356.227 433.238 356.404 433.222C356.58 433.206 356.747 433.135 356.882 433.019C357.016 432.904 357.11 432.749 357.152 432.576L363.168 415.2L349.856 422.864Z" fill="#F0F0F0"/>
<path d="M409.36 351.472C409.285 350.09 408.885 348.746 408.193 347.547C407.5 346.349 406.535 345.331 405.376 344.576C404.137 343.945 402.766 343.616 401.376 343.616C399.986 343.616 398.615 343.945 397.376 344.576L332.976 381.728C331.816 382.483 330.851 383.501 330.159 384.699C329.467 385.898 329.067 387.242 328.992 388.624V421.232C329.07 422.613 329.471 423.957 330.163 425.154C330.855 426.352 331.818 427.371 332.976 428.128C334.213 428.766 335.584 429.099 336.976 429.099C338.368 429.099 339.739 428.766 340.976 428.128L405.744 390.72C409.328 388.672 409.36 386.624 409.36 384.096V351.472Z" fill="#F0F0F0"/>
<path d="M329.04 421.232C329.118 422.613 329.519 423.957 330.211 425.155C330.903 426.352 331.866 427.371 333.024 428.128C334.142 428.696 335.367 429.02 336.62 429.078C337.872 429.136 339.123 428.927 340.288 428.464C338.416 429.168 336.992 428.112 336.992 425.84V393.2C337.041 391.815 337.443 390.466 338.16 389.28L330.16 384.704C329.442 385.889 329.039 387.239 328.992 388.624L329.04 421.232Z" fill="#E0E0E0"/>
<path d="M409.216 350.4C408.752 348.704 407.216 348.176 405.376 349.232L340.976 386.384C339.794 387.108 338.827 388.136 338.176 389.36L330.176 384.768C330.838 383.556 331.803 382.536 332.976 381.808L397.376 344.64C398.617 344.017 399.987 343.692 401.376 343.692C402.765 343.692 404.135 344.017 405.376 344.64C406.375 345.287 407.232 346.132 407.892 347.123C408.553 348.113 409.003 349.229 409.216 350.4Z" fill="#FAFAFA"/>
<path d="M347.68 400.992L393.696 374.288C395.024 373.52 396.096 373.872 396.096 375.088C395.999 375.825 395.731 376.53 395.315 377.147C394.898 377.763 394.344 378.274 393.696 378.64L347.68 405.328C346.352 406.112 345.28 405.76 345.28 404.544C345.377 403.806 345.645 403.101 346.061 402.485C346.478 401.869 347.032 401.357 347.68 400.992Z" fill="#455A64"/>
<path d="M347.68 410.416L379.68 391.84C381.024 391.072 382.096 391.424 382.096 392.624C381.999 393.366 381.73 394.075 381.311 394.694C380.891 395.314 380.333 395.826 379.68 396.192L347.68 414.768C346.352 415.536 345.28 415.184 345.28 413.984C345.375 413.243 345.642 412.535 346.058 411.916C346.475 411.297 347.03 410.783 347.68 410.416Z" fill="#455A64"/>
<path d="M347.68 391.584L393.696 364.896C395.024 364.112 396.096 364.464 396.096 365.68C396.001 366.42 395.735 367.128 395.318 367.748C394.901 368.367 394.346 368.881 393.696 369.248L347.68 395.936C346.352 396.704 345.28 396.352 345.28 395.152C345.375 394.411 345.642 393.703 346.058 393.084C346.475 392.465 347.03 391.951 347.68 391.584Z" fill="#455A64"/>
<path d="M347.104 436.48L342.064 433.6C341.2 433.206 340.247 433.049 339.302 433.145C338.358 433.24 337.455 433.585 336.688 434.144C334.596 435.445 332.845 437.228 331.584 439.344C330.039 441.737 329.161 444.498 329.04 447.344C328.943 448.292 329.099 449.25 329.492 450.118C329.886 450.987 330.503 451.735 331.28 452.288L336.32 455.168C337.192 455.619 338.173 455.815 339.152 455.736C340.131 455.657 341.067 455.305 341.856 454.72C344.083 453.269 345.936 451.313 347.265 449.011C348.594 446.709 349.361 444.126 349.504 441.472C349.605 440.499 349.435 439.517 349.011 438.636C348.587 437.754 347.927 437.008 347.104 436.48Z" fill="#455A64"/>
<path d="M342.064 433.6C341.2 433.206 340.247 433.049 339.303 433.145C338.358 433.24 337.456 433.585 336.688 434.144C334.599 435.449 332.85 437.231 331.584 439.344C330.039 441.737 329.161 444.498 329.04 447.344C328.94 448.293 329.094 449.251 329.488 450.12C329.882 450.99 330.5 451.738 331.28 452.288L336.272 455.136C335.555 454.571 334.991 453.836 334.63 452.998C334.27 452.16 334.125 451.245 334.208 450.336C334.319 447.489 335.198 444.724 336.752 442.336C338.014 440.215 339.764 438.427 341.856 437.12C342.601 436.595 343.462 436.26 344.366 436.146C345.27 436.032 346.188 436.141 347.04 436.464L342.064 433.6Z" fill="#37474F"/>
<path d="M341.536 439.408C342.944 438.608 344.08 439.264 344.08 440.88C344.033 441.762 343.778 442.621 343.336 443.385C342.894 444.15 342.277 444.799 341.536 445.28C340.128 446.096 338.992 445.44 338.992 443.824C339.039 442.94 339.294 442.079 339.736 441.312C340.178 440.545 340.795 439.892 341.536 439.408Z" fill="white"/>
<path d="M341.872 453.344C343.848 452.087 345.46 450.332 346.544 448.256V448C346.544 445.328 344.672 444.256 342.368 445.584L340.928 446.416C339.768 447.173 338.793 448.182 338.075 449.368C337.358 450.553 336.916 451.885 336.784 453.264C336.89 453.397 337.014 453.516 337.152 453.616C337.884 454.021 338.716 454.21 339.551 454.162C340.386 454.114 341.191 453.83 341.872 453.344Z" fill="white"/>
<path d="M452.08 321.168L443.856 316.368C443.694 316.302 443.559 316.184 443.472 316.032L441.952 313.392L446.848 310.576L446.688 311.008L452.08 321.168Z" fill="#56C0D8"/>
<g opacity="0.1">
<path d="M452.08 321.168L443.856 316.368C443.694 316.302 443.559 316.184 443.472 316.032L441.952 313.392L446.848 310.576L446.688 311.008L452.08 321.168Z" fill="black"/>
</g>
<path d="M446.096 311.024L451.792 320.88C451.864 321.042 451.984 321.178 452.137 321.268C452.29 321.358 452.467 321.398 452.644 321.382C452.82 321.366 452.987 321.295 453.122 321.179C453.256 321.063 453.35 320.908 453.392 320.736L459.408 303.376L446.096 311.024Z" fill="#56C0D8"/>
<path d="M477.264 256.08C477.189 254.7 476.791 253.357 476.102 252.159C475.413 250.961 474.452 249.942 473.296 249.184C472.057 248.553 470.686 248.224 469.296 248.224C467.906 248.224 466.535 248.553 465.296 249.184L400.944 286.4C399.784 287.151 398.818 288.166 398.126 289.361C397.433 290.557 397.034 291.9 396.96 293.28V325.904C397.034 327.284 397.433 328.626 398.126 329.822C398.818 331.018 399.784 332.033 400.944 332.784C402.183 333.415 403.554 333.743 404.944 333.743C406.334 333.743 407.705 333.415 408.944 332.784L473.6 295.312C477.168 293.28 477.2 291.232 477.2 288.688L477.264 256.08Z" fill="#56C0D8"/>
<path d="M418.368 304L464.368 277.312C465.696 276.544 466.784 276.896 466.784 278.096C466.687 278.838 466.418 279.547 465.999 280.166C465.579 280.786 465.021 281.299 464.368 281.664L418.368 308.352C417.04 309.12 415.952 308.768 415.952 307.568C416.049 306.826 416.318 306.117 416.737 305.498C417.156 304.878 417.715 304.365 418.368 304Z" fill="#455A64"/>
<path d="M432.304 305.232L464.304 286.64C465.632 285.872 466.72 286.224 466.72 287.424C466.623 288.166 466.354 288.875 465.935 289.494C465.515 290.114 464.957 290.627 464.304 290.992L432.304 309.584C430.976 310.352 429.888 310 429.888 308.8C429.985 308.058 430.254 307.349 430.673 306.73C431.093 306.11 431.651 305.597 432.304 305.232Z" fill="#455A64"/>
<path d="M418.368 294.592L464.368 267.904C465.696 267.136 466.784 267.488 466.784 268.688C466.687 269.43 466.418 270.139 465.999 270.758C465.579 271.378 465.021 271.89 464.368 272.256L418.368 298.944C417.04 299.712 415.952 299.36 415.952 298.16C416.049 297.418 416.318 296.709 416.737 296.089C417.156 295.47 417.715 294.957 418.368 294.592Z" fill="#455A64"/>
<path opacity="0.1" d="M396.96 325.856C397.034 327.236 397.433 328.579 398.126 329.774C398.818 330.97 399.784 331.985 400.944 332.736C402.067 333.297 403.295 333.617 404.548 333.675C405.802 333.732 407.054 333.527 408.224 333.072C406.352 333.776 404.928 332.704 404.928 330.432V297.824C404.975 296.439 405.378 295.089 406.096 293.904L398.096 289.312C397.379 290.498 396.977 291.847 396.928 293.232L396.96 325.856Z" fill="black"/>
<path opacity="0.3" d="M477.136 254.944C476.672 253.264 475.136 252.72 473.296 253.776L408.88 290.928C407.705 291.661 406.74 292.686 406.08 293.904L398.08 289.328C398.74 288.11 399.705 287.085 400.88 286.352L465.264 249.2C466.504 248.572 467.874 248.244 469.264 248.244C470.654 248.244 472.024 248.572 473.264 249.2C474.266 249.843 475.127 250.685 475.793 251.673C476.458 252.66 476.915 253.773 477.136 254.944Z" fill="white"/>
<path d="M474.848 308.8L469.824 305.92C468.96 305.526 468.007 305.369 467.063 305.465C466.118 305.56 465.216 305.905 464.448 306.464C462.352 307.76 460.601 309.544 459.344 311.664C457.795 314.054 456.916 316.817 456.8 319.664C456.7 320.611 456.852 321.568 457.243 322.437C457.634 323.305 458.249 324.055 459.024 324.608L464.08 327.504C464.955 327.948 465.936 328.141 466.914 328.059C467.892 327.977 468.828 327.624 469.616 327.04C471.843 325.589 473.696 323.633 475.025 321.331C476.354 319.029 477.121 316.446 477.264 313.792C477.366 312.817 477.194 311.834 476.767 310.952C476.34 310.07 475.675 309.325 474.848 308.8Z" fill="#455A64"/>
<path d="M469.824 305.936C468.96 305.542 468.007 305.385 467.063 305.481C466.118 305.576 465.216 305.921 464.448 306.48C462.352 307.776 460.601 309.56 459.344 311.68C457.795 314.071 456.916 316.833 456.8 319.68C456.7 320.627 456.852 321.584 457.243 322.453C457.634 323.321 458.249 324.071 459.024 324.624L464.016 327.488C463.307 326.917 462.75 326.18 462.393 325.343C462.036 324.506 461.89 323.594 461.968 322.688C462.081 319.841 462.96 317.077 464.512 314.688C465.769 312.564 467.52 310.774 469.616 309.472C470.361 308.947 471.222 308.612 472.126 308.498C473.03 308.384 473.948 308.493 474.8 308.816L469.824 305.936Z" fill="#37474F"/>
<path d="M469.184 312C470.576 311.184 471.728 311.856 471.728 313.472C471.678 314.354 471.422 315.211 470.98 315.975C470.539 316.74 469.923 317.389 469.184 317.872C467.776 318.688 466.64 318.032 466.64 316.4C466.688 315.518 466.944 314.66 467.386 313.896C467.828 313.131 468.444 312.482 469.184 312Z" fill="#56C0D8"/>
<path d="M469.504 325.952C471.489 324.7 473.106 322.944 474.192 320.864V320.672C474.192 318 472.32 316.928 470.016 318.256L468.576 319.088C467.416 319.847 466.44 320.856 465.72 322.041C465.001 323.226 464.555 324.556 464.416 325.936C464.536 326.061 464.664 326.179 464.8 326.288C465.535 326.684 466.368 326.863 467.201 326.803C468.034 326.744 468.833 326.449 469.504 325.952Z" fill="#56C0D8"/>
<path d="M449.728 411.936L445.104 409.264C445.058 409.248 445.016 409.223 444.98 409.19C444.944 409.157 444.915 409.117 444.896 409.072L444.032 407.584L446.784 405.984L446.704 406.24L449.728 411.936Z" fill="#56C0D8"/>
<g opacity="0.1">
<path d="M449.728 411.936L445.104 409.264C445.058 409.248 445.016 409.223 444.98 409.19C444.944 409.157 444.915 409.117 444.896 409.072L444.032 407.584L446.784 405.984L446.704 406.24L449.728 411.936Z" fill="black"/>
</g>
<path d="M446.4 406.24L449.6 411.776C449.646 411.854 449.714 411.918 449.795 411.959C449.876 412 449.967 412.018 450.057 412.009C450.148 412.001 450.234 411.967 450.306 411.912C450.378 411.856 450.433 411.781 450.464 411.696L453.84 401.936L446.4 406.24Z" fill="#56C0D8"/>
<path d="M471.44 378.672C471.362 377.293 470.961 375.951 470.269 374.756C469.577 373.561 468.613 372.545 467.456 371.792C466.217 371.161 464.846 370.832 463.456 370.832C462.066 370.832 460.695 371.161 459.456 371.792L436.656 384.944C435.501 385.698 434.539 386.714 433.85 387.91C433.161 389.105 432.763 390.446 432.688 391.824V400.528C432.76 401.908 433.157 403.252 433.846 404.451C434.536 405.649 435.499 406.668 436.656 407.424C437.893 408.062 439.264 408.395 440.656 408.395C442.048 408.395 443.419 408.062 444.656 407.424L467.824 394.016C471.408 391.984 471.44 389.936 471.44 387.408V378.672Z" fill="#56C0D8"/>
<path opacity="0.1" d="M432.736 400.528C432.808 401.909 433.205 403.253 433.894 404.451C434.584 405.649 435.547 406.668 436.704 407.424C437.824 407.993 439.053 408.317 440.308 408.375C441.563 408.433 442.816 408.223 443.984 407.76C442.112 408.48 440.688 407.408 440.688 405.136V396.432C440.738 395.047 441.14 393.698 441.856 392.512L433.856 387.92C433.14 389.106 432.738 390.455 432.688 391.84L432.736 400.528Z" fill="black"/>
<path opacity="0.3" d="M471.296 377.6C470.832 375.904 469.296 375.376 467.456 376.432L444.656 389.584C443.478 390.306 442.511 391.327 441.856 392.544L433.856 387.968C434.525 386.757 435.488 385.733 436.656 384.992L459.456 371.84C460.697 371.216 462.067 370.892 463.456 370.892C464.845 370.892 466.215 371.216 467.456 371.84C468.455 372.487 469.312 373.332 469.972 374.322C470.632 375.313 471.083 376.428 471.296 377.6Z" fill="white"/>
<path d="M449.488 393.968C448.853 394.381 448.325 394.939 447.947 395.595C447.569 396.251 447.351 396.988 447.312 397.744C447.312 399.12 448.272 399.696 449.488 398.992C450.121 398.581 450.648 398.026 451.026 397.372C451.404 396.719 451.622 395.986 451.664 395.232C451.664 393.84 450.688 393.28 449.488 393.968Z" fill="#455A64"/>
<path d="M456.368 389.984C455.733 390.397 455.205 390.954 454.827 391.611C454.448 392.267 454.231 393.003 454.192 393.76C454.192 395.136 455.168 395.712 456.368 395.008C457.001 394.596 457.528 394.041 457.906 393.388C458.284 392.735 458.502 392.001 458.544 391.248C458.544 389.856 457.6 389.296 456.368 389.984Z" fill="#455A64"/>
<path d="M463.264 386C462.631 386.411 462.104 386.966 461.726 387.62C461.348 388.273 461.129 389.006 461.088 389.76C461.088 391.152 462.064 391.712 463.264 391.024C463.905 390.606 464.437 390.041 464.816 389.376C465.194 388.711 465.408 387.965 465.44 387.2C465.44 385.872 464.464 385.312 463.264 386Z" fill="#455A64"/>
<path d="M474.848 401.168L469.824 398.288C468.96 397.894 468.007 397.737 467.063 397.833C466.118 397.928 465.216 398.273 464.448 398.832C462.352 400.128 460.601 401.912 459.344 404.032C457.795 406.423 456.916 409.185 456.8 412.032C456.7 412.979 456.852 413.936 457.243 414.805C457.634 415.673 458.249 416.423 459.024 416.976L464.08 419.872C464.955 420.317 465.936 420.509 466.914 420.427C467.892 420.345 468.828 419.992 469.616 419.408C471.841 417.958 473.693 416.005 475.022 413.706C476.35 411.407 477.119 408.827 477.264 406.176C477.367 405.199 477.196 404.213 476.769 403.328C476.342 402.443 475.677 401.695 474.848 401.168Z" fill="#455A64"/>
<path d="M469.824 398.288C468.96 397.894 468.007 397.737 467.063 397.833C466.118 397.928 465.216 398.273 464.448 398.832C462.352 400.128 460.601 401.912 459.344 404.032C457.795 406.423 456.916 409.185 456.8 412.032C456.7 412.979 456.852 413.936 457.243 414.805C457.634 415.673 458.249 416.423 459.024 416.976L464.016 419.84C463.307 419.269 462.75 418.533 462.393 417.696C462.036 416.858 461.89 415.947 461.968 415.04C462.081 412.193 462.96 409.429 464.512 407.04C465.773 404.919 467.523 403.131 469.616 401.824C470.361 401.299 471.222 400.964 472.126 400.85C473.03 400.736 473.948 400.845 474.8 401.168L469.824 398.288Z" fill="#37474F"/>
<path d="M469.184 404.368C470.576 403.568 471.728 404.224 471.728 405.84C471.678 406.722 471.422 407.579 470.98 408.343C470.539 409.108 469.923 409.757 469.184 410.24C467.776 411.056 466.64 410.4 466.64 408.768C466.688 407.886 466.944 407.028 467.386 406.264C467.828 405.499 468.444 404.85 469.184 404.368Z" fill="#56C0D8"/>
<path d="M469.504 418.304C471.489 417.052 473.106 415.296 474.192 413.216V413.024C474.192 410.352 472.32 409.28 470.016 410.608L468.576 411.44C467.416 412.199 466.44 413.208 465.72 414.393C465.001 415.578 464.555 416.908 464.416 418.288C464.536 418.413 464.664 418.531 464.8 418.64C465.535 419.036 466.368 419.215 467.201 419.155C468.034 419.096 468.833 418.801 469.504 418.304Z" fill="#56C0D8"/>
<path d="M613.744 342.56L605.52 337.76C605.36 337.683 605.226 337.56 605.136 337.408L603.632 334.768L608.512 331.952L608.352 332.384L613.744 342.56Z" fill="#E0E0E0"/>
<path d="M607.76 332.416L613.456 342.272C613.528 342.434 613.648 342.57 613.801 342.66C613.954 342.75 614.131 342.79 614.308 342.774C614.484 342.758 614.651 342.687 614.786 342.571C614.92 342.455 615.014 342.3 615.056 342.128L621.008 324.8L607.76 332.416Z" fill="#F0F0F0"/>
<path d="M667.2 261.024C667.122 259.643 666.721 258.299 666.029 257.101C665.337 255.903 664.374 254.885 663.216 254.128C661.979 253.489 660.608 253.156 659.216 253.156C657.824 253.156 656.453 253.489 655.216 254.128L590.816 291.264C589.658 292.021 588.695 293.039 588.003 294.237C587.311 295.435 586.91 296.779 586.832 298.16V330.768C586.907 332.15 587.307 333.494 587.999 334.692C588.692 335.89 589.657 336.909 590.816 337.664C592.055 338.295 593.426 338.623 594.816 338.623C596.206 338.623 597.577 338.295 598.816 337.664L663.584 300.24C667.152 298.208 667.2 296.16 667.2 293.616V261.024Z" fill="#F0F0F0"/>
<path d="M586.944 330.784C587.019 332.166 587.419 333.51 588.111 334.708C588.803 335.907 589.768 336.925 590.928 337.68C592.048 338.242 593.274 338.561 594.526 338.616C595.778 338.671 597.027 338.461 598.192 338C596.32 338.72 594.896 337.648 594.896 335.376V302.768C594.943 301.383 595.346 300.033 596.064 298.848L588.064 294.256C587.348 295.442 586.946 296.791 586.896 298.176L586.944 330.784Z" fill="#E0E0E0"/>
<path d="M667.2 259.888C666.736 258.208 665.2 257.664 663.36 258.72L598.88 295.872C597.701 296.6 596.735 297.627 596.08 298.848L588.08 294.272C588.74 293.054 589.705 292.029 590.88 291.296L655.264 254.144C656.504 253.515 657.874 253.188 659.264 253.188C660.654 253.188 662.024 253.515 663.264 254.144C664.278 254.781 665.151 255.619 665.828 256.607C666.505 257.596 666.972 258.712 667.2 259.888Z" fill="#F5F5F5"/>
<path d="M605.584 310.544L651.584 283.856C652.928 283.088 654 283.44 654 284.64C653.903 285.382 653.634 286.091 653.215 286.71C652.796 287.33 652.237 287.843 651.584 288.208L605.584 314.896C604.256 315.664 603.184 315.312 603.184 314.112C603.279 313.372 603.546 312.663 603.962 312.044C604.379 311.425 604.934 310.911 605.584 310.544Z" fill="#455A64"/>
<path d="M605.584 320L637.584 301.408C638.912 300.64 640 300.992 640 302.192C639.903 302.934 639.634 303.643 639.215 304.262C638.796 304.882 638.237 305.394 637.584 305.76L605.584 324.352C604.256 325.12 603.184 324.768 603.184 323.568C603.279 322.827 603.546 322.119 603.962 321.5C604.379 320.88 604.934 320.367 605.584 320Z" fill="#455A64"/>
<path d="M605.584 301.136L651.584 274.448C652.928 273.68 654 274.032 654 275.232C653.903 275.974 653.634 276.683 653.215 277.302C652.796 277.922 652.237 278.434 651.584 278.8L605.584 305.488C604.256 306.256 603.184 305.904 603.184 304.704C603.279 303.963 603.546 303.255 603.962 302.636C604.379 302.017 604.934 301.503 605.584 301.136Z" fill="#455A64"/>
<path d="M162.672 217.36L170.896 212.56C171.059 212.488 171.194 212.364 171.28 212.208L172.88 209.568L167.984 206.752L168.144 207.184L162.672 217.36Z" fill="#56C0D8"/>
<g opacity="0.1">
<path d="M162.672 217.36L170.896 212.56C171.059 212.488 171.194 212.364 171.28 212.208L172.88 209.568L167.984 206.752L168.144 207.184L162.672 217.36Z" fill="black"/>
</g>
<path d="M168.656 207.2L162.96 217.056C162.888 217.218 162.768 217.354 162.615 217.444C162.462 217.534 162.285 217.574 162.108 217.558C161.932 217.542 161.765 217.471 161.63 217.355C161.496 217.24 161.402 217.085 161.36 216.912L155.344 199.552L168.656 207.2Z" fill="#56C0D8"/>
<path d="M137.488 152.256C137.562 150.876 137.961 149.534 138.654 148.338C139.346 147.142 140.312 146.127 141.472 145.376C142.711 144.745 144.082 144.417 145.472 144.417C146.862 144.417 148.233 144.745 149.472 145.376L213.888 182.528C215.043 183.283 216.005 184.299 216.694 185.494C217.383 186.689 217.782 188.03 217.856 189.408V222.032C217.782 223.41 217.383 224.751 216.694 225.946C216.005 227.142 215.043 228.158 213.888 228.912C212.649 229.543 211.278 229.872 209.888 229.872C208.498 229.872 207.127 229.543 205.888 228.912L141.088 191.488C137.52 189.456 137.488 187.408 137.488 184.88V152.256Z" fill="#56C0D8"/>
<path d="M196.384 200.176L150.4 173.488C149.072 172.72 148 173.072 148 174.272C148.095 175.013 148.361 175.721 148.778 176.34C149.195 176.959 149.75 177.473 150.4 177.84L196.4 204.528C197.744 205.296 198.816 204.944 198.816 203.744C198.717 203.001 198.446 202.291 198.024 201.671C197.602 201.052 197.04 200.54 196.384 200.176Z" fill="#455A64"/>
<path d="M182.4 201.408L150.4 182.816C149.072 182.048 148 182.4 148 183.6C148.09 184.346 148.355 185.061 148.771 185.686C149.188 186.311 149.746 186.83 150.4 187.2L182.4 205.792C183.728 206.56 184.816 206.208 184.816 205.008C184.724 204.261 184.457 203.545 184.038 202.92C183.618 202.295 183.057 201.777 182.4 201.408Z" fill="#455A64"/>
<path d="M196.384 190.768L150.4 164.08C149.072 163.312 148 163.664 148 164.864C148.095 165.604 148.361 166.312 148.778 166.932C149.195 167.551 149.75 168.065 150.4 168.432L196.384 195.2C197.728 195.968 198.8 195.616 198.8 194.416C198.715 193.66 198.452 192.935 198.032 192.301C197.612 191.666 197.047 191.141 196.384 190.768Z" fill="#455A64"/>
<path opacity="0.1" d="M217.792 222.032C217.717 223.41 217.319 224.751 216.63 225.946C215.941 227.142 214.979 228.158 213.824 228.912C212.704 229.481 211.475 229.805 210.22 229.863C208.965 229.921 207.712 229.712 206.544 229.248C208.416 229.952 209.84 228.88 209.84 226.624V194C209.79 192.616 209.388 191.266 208.672 190.08L216.672 185.504C217.392 186.683 217.794 188.028 217.84 189.408L217.792 222.032Z" fill="black"/>
<path opacity="0.3" d="M137.6 151.136C138.064 149.44 139.6 148.912 141.44 149.968L205.872 187.2C207.05 187.922 208.017 188.944 208.672 190.16L216.672 185.584C216.003 184.373 215.04 183.35 213.872 182.608L149.424 145.376C148.184 144.748 146.814 144.42 145.424 144.42C144.034 144.42 142.664 144.748 141.424 145.376C140.429 146.026 139.577 146.872 138.919 147.863C138.262 148.853 137.813 149.967 137.6 151.136Z" fill="white"/>
<path d="M543.616 235.504L534.752 230.384C534.576 230.311 534.43 230.182 534.336 230.016L532.736 227.168L538 224.128L537.84 224.592L543.616 235.504Z" fill="#263238"/>
<path d="M537.168 224.56L543.296 235.184C543.391 235.317 543.519 235.422 543.668 235.489C543.816 235.556 543.98 235.583 544.142 235.566C544.304 235.55 544.459 235.492 544.592 235.396C544.724 235.301 544.829 235.173 544.896 235.024L551.296 216.304L537.168 224.56Z" fill="#37474F"/>
<path d="M609.936 98.1122C609.857 96.6244 609.427 95.1765 608.682 93.8863C607.937 92.5962 606.897 91.5003 605.648 90.6882L602.16 88.6722C600.833 87.9938 599.363 87.6401 597.872 87.6401C596.381 87.6401 594.912 87.9938 593.584 88.6722L511.168 136.272C509.919 137.084 508.88 138.18 508.134 139.47C507.389 140.76 506.959 142.208 506.88 143.696V223.184C506.959 224.672 507.389 226.12 508.134 227.41C508.88 228.7 509.919 229.796 511.168 230.608L514.656 232.624C515.984 233.303 517.453 233.656 518.944 233.656C520.435 233.656 521.905 233.303 523.232 232.624L606.048 184.736C609.904 182.544 609.936 180.336 609.936 177.6V98.1122Z" fill="#37474F"/>
<path d="M506.88 223.184C506.959 224.672 507.389 226.12 508.134 227.41C508.88 228.7 509.919 229.796 511.168 230.608L514.656 232.624C515.863 233.234 517.186 233.583 518.537 233.646C519.888 233.709 521.237 233.487 522.496 232.992C520.48 233.744 518.944 232.592 518.944 230.16V150.656C518.996 149.163 519.431 147.708 520.208 146.432L508.144 139.472C507.365 140.747 506.93 142.203 506.88 143.696V223.184Z" fill="#263238"/>
<path d="M609.792 96.896C609.296 95.072 607.632 94.496 605.648 95.632L523.2 143.232C521.931 144.018 520.889 145.121 520.176 146.432L508.112 139.472C508.83 138.164 509.871 137.062 511.136 136.272L593.6 88.672C594.932 88.0072 596.4 87.6611 597.888 87.6611C599.376 87.6611 600.844 88.0072 602.176 88.672L605.68 90.688C606.749 91.3913 607.665 92.304 608.372 93.371C609.078 94.438 609.562 95.6371 609.792 96.896Z" fill="#455A64"/>
<path d="M527.44 155.984C527.468 155.522 527.604 155.072 527.838 154.672C528.071 154.272 528.395 153.932 528.784 153.68L596.8 114.368C597.216 114.164 597.673 114.057 598.136 114.057C598.599 114.057 599.056 114.164 599.472 114.368L600.976 115.232C601.36 115.488 601.68 115.829 601.91 116.229C602.14 116.628 602.275 117.076 602.304 117.536V169.728C602.275 170.191 602.14 170.641 601.91 171.043C601.68 171.445 601.36 171.789 600.976 172.048L532.944 211.36C532.528 211.565 532.071 211.671 531.608 211.671C531.145 211.671 530.688 211.565 530.272 211.36L528.784 210.496C528.395 210.241 528.071 209.898 527.838 209.495C527.604 209.092 527.468 208.641 527.44 208.176V155.984Z" fill="#56C0D8"/>
<path opacity="0.4" d="M527.44 155.984C527.468 155.522 527.604 155.072 527.838 154.672C528.071 154.272 528.395 153.932 528.784 153.68L596.8 114.368C597.216 114.164 597.673 114.057 598.136 114.057C598.599 114.057 599.056 114.164 599.472 114.368L600.976 115.232C601.36 115.488 601.68 115.829 601.91 116.229C602.14 116.628 602.275 117.076 602.304 117.536V169.728C602.275 170.191 602.14 170.641 601.91 171.043C601.68 171.445 601.36 171.789 600.976 172.048L532.944 211.36C532.528 211.565 532.071 211.671 531.608 211.671C531.145 211.671 530.688 211.565 530.272 211.36L528.784 210.496C528.395 210.241 528.071 209.898 527.838 209.495C527.604 209.092 527.468 208.641 527.44 208.176V155.984Z" fill="white"/>
<path d="M533.68 158.064L527.84 154.672C527.599 155.069 527.461 155.52 527.44 155.984V208.176C527.468 208.64 527.604 209.092 527.838 209.495C528.071 209.898 528.395 210.24 528.784 210.496L530.272 211.36C530.688 211.565 531.145 211.671 531.608 211.671C532.071 211.671 532.528 211.565 532.944 211.36L533.68 210.928V158.064Z" fill="#56C0D8"/>
<path opacity="0.3" d="M533.68 158.064L527.84 154.672C527.599 155.069 527.461 155.52 527.44 155.984V208.176C527.468 208.64 527.604 209.092 527.838 209.495C528.071 209.898 528.395 210.24 528.784 210.496L530.272 211.36C530.688 211.565 531.145 211.671 531.608 211.671C532.071 211.671 532.528 211.565 532.944 211.36L533.68 210.928V158.064Z" fill="black"/>
<path d="M602.368 117.536V169.744C602.341 170.178 602.22 170.6 602.012 170.981C601.805 171.363 601.517 171.694 601.168 171.952H601.088L532.944 211.36C532.812 211.451 532.659 211.507 532.5 211.524C532.341 211.541 532.18 211.518 532.032 211.456C531.89 211.362 531.776 211.229 531.706 211.074C531.635 210.918 531.609 210.746 531.632 210.576V158.4C531.617 158.214 531.649 158.026 531.724 157.855C531.799 157.683 531.916 157.533 532.063 157.418C532.21 157.302 532.384 157.225 532.568 157.192C532.753 157.16 532.942 157.174 533.12 157.232L561.76 164.032L565.504 164.928C565.948 165.01 566.405 164.969 566.828 164.812C567.25 164.654 567.622 164.384 567.904 164.032L572.24 157.984L601.488 117.264C601.968 116.56 602.368 116.688 602.368 117.536Z" fill="#56C0D8"/>
<path d="M601.04 172.048H601.12C601.44 171.82 601.708 171.525 601.904 171.184C602.152 170.783 602.295 170.327 602.32 169.856L572.176 158.064L592.352 177.12L601.04 172.048Z" fill="#56C0D8"/>
<path opacity="0.2" d="M601.04 172.048H601.12C601.44 171.82 601.708 171.525 601.904 171.184C602.152 170.783 602.295 170.327 602.32 169.856L572.176 158.064L592.352 177.12L601.04 172.048Z" fill="black"/>
<path d="M531.616 210.576C531.594 210.746 531.619 210.918 531.69 211.073C531.761 211.229 531.874 211.362 532.016 211.456C532.164 211.517 532.325 211.541 532.484 211.524C532.644 211.507 532.796 211.451 532.928 211.36L556.368 197.824L561.728 164.016L531.6 209.712L531.616 210.576Z" fill="#56C0D8"/>
<path opacity="0.2" d="M531.616 210.576C531.594 210.746 531.619 210.918 531.69 211.073C531.761 211.229 531.874 211.362 532.016 211.456C532.164 211.517 532.325 211.541 532.484 211.524C532.644 211.507 532.796 211.451 532.928 211.36L556.368 197.824L561.728 164.016L531.6 209.712L531.616 210.576Z" fill="black"/>
<path d="M601.952 171.088C601.756 171.429 601.488 171.724 601.168 171.952L532.944 211.36C532.812 211.451 532.659 211.507 532.5 211.524C532.341 211.541 532.18 211.517 532.032 211.456L564.64 159.408C565.295 158.369 566.301 157.599 567.475 157.238C568.649 156.877 569.914 156.948 571.04 157.44L601.952 171.088Z" fill="#56C0D8"/>
<path opacity="0.3" d="M532.16 157.136L563.2 170.816C564.322 171.326 565.591 171.409 566.769 171.05C567.948 170.69 568.954 169.913 569.6 168.864L602.016 116.8L532.16 157.136Z" fill="black"/>
<path d="M532.16 157.136L563.36 168.8C564.439 169.201 565.623 169.223 566.716 168.862C567.809 168.502 568.747 167.78 569.376 166.816L602.016 116.8L532.16 157.136Z" fill="#56C0D8"/>
<path d="M627.936 78.4L620.8 74.16C618.336 72.768 614.944 72.976 611.2 75.136C603.664 79.488 597.552 90.08 597.552 98.8C597.552 103.136 599.072 106.192 601.536 107.632L608.24 111.472L609.44 109.456C610.82 109.125 612.142 108.585 613.36 107.856C620.912 103.488 627.024 92.896 627.024 84.192C627.022 83.0162 626.876 81.8449 626.592 80.704L627.936 78.4Z" fill="#F28F8F"/>
<path d="M617.984 79.1041C610.448 83.4561 604.336 94.0481 604.336 102.752C604.336 111.456 610.448 115.008 617.984 110.64C625.52 106.272 631.648 95.6961 631.648 86.9921C631.648 78.2881 625.6 74.7521 617.984 79.1041Z" fill="#FFA8A7"/>
<path d="M613.104 95.2481C613.015 95.117 612.98 94.9562 613.008 94.8001C613.039 94.6013 613.11 94.4108 613.216 94.2401L617.184 87.8401L617.552 87.2961C617.681 87.1019 617.85 86.9381 618.048 86.8161L620.288 85.5041C620.343 85.4683 620.407 85.4492 620.472 85.4492C620.537 85.4492 620.601 85.4683 620.656 85.5041C620.707 85.5535 620.746 85.6135 620.771 85.6799C620.796 85.7463 620.806 85.8174 620.8 85.8881V101.888C620.796 102.078 620.747 102.265 620.656 102.432C620.572 102.597 620.445 102.735 620.288 102.832L617.872 104.24C617.822 104.279 617.76 104.3 617.696 104.3C617.632 104.3 617.571 104.279 617.52 104.24C617.469 104.191 617.43 104.131 617.405 104.064C617.38 103.998 617.37 103.927 617.376 103.856V93.0401L615.168 96.5441C615.088 96.6955 614.958 96.8143 614.8 96.8801C614.752 96.9177 614.693 96.9382 614.632 96.9382C614.571 96.9382 614.512 96.9177 614.464 96.8801L613.104 95.2481Z" fill="white"/>
<path d="M645.376 496.304C641.488 491.792 638.352 485.392 636.96 484.064C632.912 480.208 628.8 425.6 628.8 425.6C638.256 425.28 643.328 428.8 644.96 436.064C646.592 443.328 653.072 478.464 653.072 478.464" fill="#FFA8A7"/>
<path d="M587.76 500.368C583.056 509.872 571.44 538.48 566.832 558.272C562.512 576.8 560.832 589.632 566.832 594.112C572.832 598.592 590 595.872 600.88 572.72C604.288 565.472 617.104 543.104 617.104 543.104C617.104 543.104 626.576 539.696 629.904 537.136C629.904 537.136 661.52 538.048 676.88 534.912C692.24 531.776 708.576 512.992 702.288 511.152C690.976 507.824 668.928 505.408 643.408 503.76L587.76 500.368Z" fill="#37474F"/>
<path d="M661.744 530.944C654.832 532.544 644.592 530.4 638.8 528.72C639.155 526.686 639.09 524.6 638.608 522.592C638.287 525.3 637.416 527.914 636.048 530.272C635.104 530.816 634.288 531.264 633.712 531.552C629.872 533.52 619.312 538.912 617.36 537.216C614.41 533.41 610.221 530.756 605.52 529.712C608.832 531.936 618.416 538.8 615.008 546.768L617.104 543.104C617.104 543.104 626.576 539.696 629.904 537.136C629.904 537.136 647.504 537.648 662.928 536.592L681.136 523.984C681.136 523.984 672.352 523.472 661.744 530.944Z" fill="#263238"/>
<path d="M644.032 553.072C640.72 556.064 635.664 558.464 632.112 557.728C628.56 556.992 623.472 556.64 621.488 563.728C619.232 571.728 611.888 576.672 607.856 581.088C603.824 585.504 605.088 592.128 607.2 596.704C610.752 604.416 615.936 599.76 618.816 594.864C621.696 589.968 630.144 580.992 634.224 577.264C638.747 572.77 643.557 568.574 648.624 564.704L644.032 553.072Z" fill="#FFA8A7"/>
<path d="M691.648 510.56C711.44 508.544 711.84 520.624 706.752 528.8C701.264 537.6 680.32 548.464 670.064 553.68C659.808 558.896 645.488 567.088 645.488 567.088C642.427 563.82 640.502 559.65 640 555.2C651.2 547.328 662.224 527.104 681.024 523.984L691.648 510.56Z" fill="#37474F"/>
<path d="M633.424 557.856C632.984 557.847 632.546 557.804 632.112 557.728C628.56 556.976 623.472 556.64 621.488 563.728C619.232 571.728 611.888 576.672 607.856 581.088C603.824 585.504 605.088 592.128 607.2 596.704C610.752 604.416 615.936 599.76 618.816 594.864C620.386 592.406 622.146 590.073 624.08 587.888C623.191 588.947 621.931 589.627 620.558 589.791C619.185 589.954 617.801 589.589 616.688 588.768C615.232 587.504 616.304 583.056 619.008 580.064C621.712 577.072 631.552 557.616 633.424 557.856Z" fill="#263238"/>
<path d="M635.888 555.52C639.504 554.608 644.816 553.312 647.008 550.432C649.2 547.552 653.744 544.752 659.904 548.832C666.88 553.424 675.616 552.336 681.568 552.992C687.52 553.648 690.896 559.52 692.304 564.352C694.688 572.512 687.84 569.728 682.464 567.92C677.088 566.112 664.592 564.416 659.296 565.12C654 565.824 640.72 569.184 640.72 569.184L635.888 555.52Z" fill="#FFA8A7"/>
<path d="M679.904 567.136C680.848 567.376 681.728 567.616 682.464 567.872C687.84 569.68 694.688 572.464 692.304 564.304C690.896 559.504 687.504 553.616 681.568 552.944C675.632 552.272 666.88 553.376 659.904 548.784C653.744 544.752 649.2 547.536 647.008 550.384C646.751 550.706 646.467 551.006 646.16 551.28C646.16 551.28 653.248 553.472 661.056 555.728C668.864 557.984 682.08 561.888 682.576 563.904C682.944 565.408 683.2 567.232 679.904 567.136Z" fill="#263238"/>
<path d="M563.584 588.8C564.736 595.84 572.624 599.232 589.536 595.84C606.448 592.448 642.88 569.328 642.88 569.328C642.88 569.328 645.12 557.408 635.872 554.8C635.872 554.8 627.456 556.4 613.728 559.312C607.531 560.678 601.41 562.371 595.392 564.384C586.112 576.832 576.448 571.808 572.992 576.192C567.184 583.536 563.584 588.8 563.584 588.8Z" fill="#37474F"/>
<path d="M607.088 560.928C600.086 562.408 593.391 565.082 587.296 568.832C587.296 568.832 595.952 558.688 609.328 556.864L607.088 560.928Z" fill="#263238"/>
<path d="M640.816 470.016C641.584 477.216 643.36 503.76 643.36 503.76C637.776 522.592 594.416 518.8 586.032 504.032C588.712 497.898 590.889 491.558 592.544 485.072L587.936 464.928C587.936 464.928 598.96 454.88 587.936 434.368L602.512 430L628.8 425.6C633.232 425.84 640.752 436 643.648 443.424C645.488 448.176 646.976 457.824 640.816 470.016Z" fill="#56C0D8"/>
<path opacity="0.15" d="M618.08 516.528C599.888 515.76 591.504 504.576 591.696 501.632C592.355 497.319 593.253 493.046 594.384 488.832L601.2 491.504L595.584 483.312L591.696 465.856C595.808 459.824 593.776 448.912 593.776 448.912L592.64 448.24C593.968 459.44 587.936 464.928 587.936 464.928L592.544 485.072C590.888 491.547 588.71 497.877 586.032 504C590.48 511.872 604.8 516.624 618.08 516.528Z" fill="black"/>
<path d="M617.872 418.608L608.272 418.864C605.105 418.952 601.952 418.414 598.994 417.282C596.035 416.151 593.328 414.447 591.028 412.269C588.727 410.09 586.879 407.48 585.588 404.587C584.297 401.694 583.589 398.575 583.504 395.408C583.4 391.615 584.044 387.837 585.399 384.293C586.755 380.748 588.795 377.505 591.404 374.749C594.013 371.992 597.14 369.777 600.605 368.23C604.07 366.682 607.806 365.832 611.6 365.728C615.394 365.624 619.171 366.268 622.716 367.623C626.261 368.979 629.504 371.019 632.26 373.628C635.016 376.237 637.231 379.364 638.779 382.829C640.327 386.294 641.176 390.03 641.28 393.824C641.457 400.213 639.091 406.411 634.702 411.058C630.314 415.704 624.261 418.42 617.872 418.608Z" fill="#263238"/>
<path d="M588.256 381.36L581.072 378.848C581.211 378.362 581.448 377.909 581.769 377.519C582.09 377.129 582.489 376.809 582.939 376.579C583.389 376.349 583.882 376.215 584.387 376.184C584.891 376.153 585.397 376.227 585.872 376.4C586.829 376.765 587.609 377.482 588.053 378.405C588.496 379.328 588.569 380.385 588.256 381.36Z" fill="#263238"/>
<path d="M588.176 379.504L585.968 372.24C586.439 372.064 586.941 371.986 587.443 372.011C587.945 372.037 588.436 372.165 588.886 372.389C589.337 372.612 589.736 372.926 590.06 373.311C590.383 373.695 590.625 374.143 590.768 374.624C591.055 375.615 590.945 376.679 590.461 377.59C589.977 378.501 589.158 379.187 588.176 379.504Z" fill="#263238"/>
<path d="M629.808 378.176C632.912 379.904 636.896 387.472 636.96 403.584C636.96 417.232 632.688 420.72 630.56 421.744C628.432 422.768 624.064 422.304 619.888 421.744L619.968 427.392C619.968 427.392 627.472 435.6 627.2 439.36C626.928 443.12 617.6 445.072 612.128 441.552C608.16 438.665 604.704 435.134 601.904 431.104L601.488 412.192C601.488 412.192 599.104 414.64 594.848 411.12C591.344 408.208 590.048 403.12 592.656 400.4C593.328 399.725 594.152 399.22 595.059 398.928C595.966 398.635 596.929 398.565 597.869 398.721C598.809 398.878 599.698 399.257 600.461 399.828C601.224 400.398 601.84 401.143 602.256 402C602.256 402 608.896 402 617.6 396.96C620.964 395.005 623.822 392.286 625.943 389.023C628.063 385.76 629.387 382.045 629.808 378.176Z" fill="#FFA8A7"/>
<path d="M621.632 400.56C621.664 400.792 621.648 401.027 621.585 401.252C621.522 401.477 621.414 401.687 621.267 401.869C621.12 402.051 620.938 402.2 620.731 402.309C620.524 402.417 620.297 402.482 620.064 402.5C619.831 402.517 619.597 402.487 619.376 402.411C619.155 402.334 618.953 402.214 618.78 402.056C618.608 401.898 618.47 401.707 618.374 401.494C618.278 401.28 618.227 401.05 618.224 400.816C618.192 400.585 618.208 400.349 618.271 400.124C618.334 399.899 618.442 399.689 618.589 399.508C618.736 399.326 618.918 399.176 619.125 399.068C619.332 398.959 619.559 398.894 619.792 398.877C620.025 398.859 620.259 398.89 620.48 398.966C620.701 399.042 620.903 399.163 621.076 399.321C621.248 399.479 621.386 399.67 621.482 399.883C621.578 400.096 621.629 400.327 621.632 400.56Z" fill="#263238"/>
<path d="M622.4 412.112L626.416 413.28C626.351 413.549 626.233 413.802 626.067 414.024C625.902 414.246 625.693 414.432 625.454 414.572C625.215 414.711 624.95 414.8 624.675 414.834C624.401 414.867 624.122 414.845 623.856 414.768C623.316 414.601 622.862 414.231 622.59 413.735C622.318 413.239 622.25 412.657 622.4 412.112Z" fill="#F28F8F"/>
<path d="M635.552 394.912L632 392.608C632.141 392.37 632.328 392.164 632.551 392C632.774 391.837 633.028 391.72 633.297 391.658C633.566 391.595 633.845 391.587 634.117 391.635C634.389 391.683 634.648 391.785 634.88 391.936C635.353 392.25 635.687 392.735 635.813 393.289C635.938 393.844 635.844 394.425 635.552 394.912Z" fill="#263238"/>
<path d="M634.864 398.96C634.888 399.191 634.866 399.424 634.798 399.646C634.73 399.868 634.618 400.074 634.468 400.252C634.319 400.43 634.135 400.575 633.929 400.681C633.722 400.786 633.496 400.848 633.264 400.864C632.807 400.895 632.355 400.745 632.008 400.445C631.66 400.146 631.445 399.721 631.408 399.264C631.391 399.039 631.419 398.813 631.489 398.599C631.56 398.385 631.672 398.187 631.819 398.016C631.966 397.845 632.145 397.705 632.347 397.604C632.548 397.502 632.767 397.441 632.992 397.424C633.217 397.407 633.443 397.435 633.657 397.506C633.871 397.576 634.069 397.688 634.24 397.835C634.411 397.982 634.551 398.162 634.653 398.363C634.754 398.564 634.815 398.783 634.832 399.008L634.864 398.96Z" fill="#263238"/>
<path d="M627.104 397.344L627.296 408.512L632.688 406.688L627.104 397.344Z" fill="#F28F8F"/>
<path d="M619.824 421.728C615.424 421.264 606.32 418.912 604.816 415.328C605.438 417.115 606.588 418.671 608.112 419.792C610.864 422.032 619.904 424.384 619.904 424.384L619.824 421.728Z" fill="#F28F8F"/>
<path d="M590.912 549.472V550.768C590.903 551.414 591.066 552.05 591.383 552.612C591.701 553.175 592.162 553.642 592.72 553.968L627.408 573.92C627.961 574.245 628.591 574.416 629.232 574.416C629.873 574.416 630.503 574.245 631.056 573.92L694.688 537.12C695.251 536.799 695.717 536.333 696.038 535.77C696.359 535.207 696.523 534.568 696.512 533.92V533.04L629.232 571.872L590.912 549.472Z" fill="#EBEBEB"/>
<path d="M696.512 533.104L658.784 511.312C658.453 511.123 658.078 511.023 657.696 511.023C657.314 511.023 656.939 511.123 656.608 511.312L591.152 549.12C591.079 549.162 591.018 549.223 590.976 549.296C590.934 549.369 590.912 549.452 590.912 549.536C590.912 549.62 590.934 549.703 590.976 549.776C591.018 549.849 591.079 549.91 591.152 549.952L629.232 571.952L696.512 533.104Z" fill="#FAFAFA"/>
<path d="M653.04 478.4C658.112 485.776 669.616 501.808 674.784 510.992C677.76 516.288 674.016 521.424 665.888 519.248C660.528 517.824 652.832 504.976 645.376 496.272" fill="#FFA8A7"/>
<path d="M628.896 568.736L608.544 557.008L668.048 522.64L688.512 534.32L628.896 568.736Z" fill="#E0E0E0"/>
<path d="M618.88 536.08L619.264 536.304L629.232 542.064L646.976 531.824L647.344 531.616L636.992 525.632L618.88 536.08Z" fill="#E0E0E0"/>
<path d="M619.264 536.304L629.232 542.064L646.976 531.824L636.992 526.064L619.264 536.304Z" fill="#E6E6E6"/>
<path d="M629.232 571.936V574.4C629.874 574.403 630.504 574.231 631.056 573.904L694.688 537.104C695.251 536.783 695.717 536.317 696.038 535.754C696.359 535.191 696.523 534.552 696.512 533.904V533.024L629.232 571.936Z" fill="#EBEBEB"/>
<g opacity="0.5">
<path d="M629.232 571.936V574.4C629.874 574.403 630.504 574.231 631.056 573.904L694.688 537.104C695.251 536.783 695.717 536.317 696.038 535.754C696.359 535.191 696.523 534.552 696.512 533.904V533.024L629.232 571.936Z" fill="#E0E0E0"/>
</g>
<path d="M630.256 572.48C630.857 572.712 631.502 572.807 632.145 572.757C632.787 572.707 633.41 572.514 633.968 572.192L697.328 535.616C697.881 535.301 698.357 534.866 698.72 534.342C699.083 533.819 699.323 533.221 699.424 532.592L706.368 491.2C706.384 490.966 706.384 490.731 706.368 490.496C706.37 489.926 706.259 489.362 706.042 488.834C705.825 488.307 705.506 487.828 705.104 487.424L639.264 525.456C638.849 525.685 638.491 526.004 638.214 526.388C637.937 526.773 637.75 527.214 637.664 527.68L630.256 572.48Z" fill="#56C0D8"/>
<g opacity="0.7">
<path d="M630.256 572.48C630.857 572.712 631.502 572.807 632.145 572.757C632.787 572.707 633.41 572.514 633.968 572.192L697.328 535.616C697.881 535.301 698.357 534.866 698.72 534.342C699.083 533.819 699.323 533.221 699.424 532.592L706.368 491.2C706.384 490.966 706.384 490.731 706.368 490.496C706.37 489.926 706.259 489.362 706.042 488.834C705.825 488.307 705.506 487.828 705.104 487.424L639.264 525.456C638.849 525.685 638.491 526.004 638.214 526.388C637.937 526.773 637.75 527.214 637.664 527.68L630.256 572.48Z" fill="white"/>
</g>
<path d="M629.232 571.952L629.664 572.192C629.855 572.301 630.053 572.397 630.256 572.48L637.76 527.68C637.845 527.214 638.033 526.773 638.31 526.388C638.587 526.004 638.945 525.685 639.36 525.456L705.2 487.424C704.93 487.175 704.635 486.955 704.32 486.768L638.336 524.848C637.919 525.079 637.56 525.4 637.283 525.787C637.006 526.175 636.819 526.619 636.736 527.088L629.232 571.952Z" fill="#FAFAFA"/>
<path d="M665.952 534.288C666.944 530.828 669.238 527.886 672.352 526.08C675.408 524.304 677.52 525.12 677.056 527.888C676.054 531.348 673.764 534.292 670.656 536.112C667.584 537.872 665.488 537.056 665.952 534.288Z" fill="#56C0D8"/>
<path d="M596.32 541.984C592.832 539.584 570.608 523.408 561.728 516.528C552.48 509.36 553.04 507.056 554.16 501.888C556.368 491.68 570.384 459.536 574.24 450C578.56 439.36 579.552 438.016 587.936 434.368C593.728 438.944 596.96 450.16 589.168 465.616L573.296 502.96C573.296 502.96 583.872 514.16 590.128 520.08C596.384 526 601.904 532.64 606.576 533.152C610.288 533.552 616.864 533.808 618.272 535.104C621.715 538.577 624.922 542.276 627.872 546.176C629.2 548.352 632.352 552.784 627.872 554.176C623.792 555.456 620.464 553.712 617.136 551.44C615.581 550.316 614.1 549.092 612.704 547.776C609.384 548.147 606.031 547.482 603.104 545.872C600.544 544.464 596.32 541.984 596.32 541.984Z" fill="#FFA8A7"/>
<path d="M584.544 448.912H585.008C587.261 448.911 589.491 448.459 591.566 447.583C593.642 446.707 595.522 445.425 597.094 443.811C598.667 442.198 599.901 440.287 600.725 438.19C601.548 436.093 601.943 433.852 601.888 431.6L601.456 413.6C599.236 413.598 597.037 414.033 594.985 414.882C592.933 415.73 591.069 416.974 589.498 418.543C587.928 420.112 586.682 421.976 585.832 424.027C584.981 426.078 584.544 428.276 584.544 430.496V448.912Z" fill="#263238"/>
<path d="M135.408 389.136C133.808 392.576 128.656 397.568 122.688 391.136C113.968 381.712 99.5999 348.256 99.5999 348.256L109.04 343.888L128.24 370.16L138.496 381.552" fill="#FFA8A7"/>
<path d="M137.952 324.896C133.424 340.08 124.32 373.904 124.32 373.904L135.408 389.136C137.389 385.234 139.079 381.191 140.464 377.04C142.4 371.76 148.8 350.688 148.8 350.688C148.8 350.688 147.44 320.288 152.192 316.224C154.755 313.954 157.718 312.18 160.928 310.992C153.36 311.6 142.08 310.992 137.952 324.896Z" fill="#FFA8A7"/>
<path d="M116.672 327.088C114.16 322.416 113.472 322.208 112.048 321.184C110.624 320.16 101.408 318.8 97.648 318.48C93.168 318.096 91.584 318.928 92.848 322.768C95.504 330.992 103.568 348.448 105.376 350.864C106.56 352.464 106.8 353.904 111.776 354.4C116.464 354.848 122.352 355.104 124.08 355.216C125.808 355.328 128.208 355.744 126.656 350.656C124.677 344.89 122.391 339.234 119.808 333.712C117.872 329.6 116.672 327.088 116.672 327.088Z" fill="#263238"/>
<path d="M99.5999 348.256C97.7279 340 92.2399 332.384 95.3439 329.6L96.9439 333.248C96.9439 333.248 107.216 335.712 112.176 335.328C117.136 334.944 121.184 333.728 122.544 334.72C125.424 336.752 126.256 345.392 118 348.544C111.056 351.2 99.5999 348.256 99.5999 348.256Z" fill="#FFA8A7"/>
<path d="M161.6 308.288C152.512 308.384 142.512 311.696 139.072 318.816C135.632 325.936 129.264 352 129.264 352C131.902 354.411 135.016 356.244 138.406 357.379C141.795 358.515 145.385 358.928 148.944 358.592L161.6 308.288Z" fill="#56C0D8"/>
<path opacity="0.1" d="M161.6 308.288C152.512 308.384 142.512 311.696 139.072 318.816C135.632 325.936 129.264 352 129.264 352C131.902 354.411 135.016 356.244 138.406 357.379C141.795 358.515 145.385 358.928 148.944 358.592L161.6 308.288Z" fill="black"/>
<path d="M201.088 570.688H188.512V588.992H201.088V570.688Z" fill="#FFA8A7"/>
<path d="M156.882 548.032L144.313 548.464L144.942 566.757L157.511 566.325L156.882 548.032Z" fill="#FFA8A7"/>
<path d="M200.256 392C200.256 404.016 201.856 481.6 201.856 481.6C202.144 485.04 205.376 491.408 204.688 504.672C203.728 522.704 202.176 572.752 202.176 572.752C202.176 572.752 196.272 578.608 187.952 572.752C187.952 572.752 176.576 504.736 174.32 486.88C172.352 471.296 169.024 428.96 169.024 428.96L162.624 479.776C162.624 479.776 164.672 491.504 165.12 499.76C165.568 508.016 157.744 554.816 157.744 554.816C155.708 556.092 153.373 556.811 150.972 556.901C148.572 556.991 146.189 556.449 144.064 555.328C144.064 555.328 139.264 486.528 137.92 479.072C136.576 471.616 141.456 392 141.456 392H200.256Z" fill="#37474F"/>
<path d="M181.328 308.8C182.8 309.152 194.912 312 200.256 313.808V392C191.44 401.6 160.704 406.064 141.456 392V330.72C141.456 320.928 146.896 309.168 161.92 308.32L181.328 308.8Z" fill="#EBEBEB"/>
<path d="M185.6 258.752C186.61 258.636 187.634 258.751 188.593 259.09C189.552 259.428 190.422 259.98 191.136 260.704C193.52 263.136 193.024 267.648 191.136 278L183.776 278.848L185.6 258.752Z" fill="#263238"/>
<path d="M142.672 255.76C141.089 255.767 139.521 255.451 138.064 254.832C135.808 253.536 135.216 256.096 136.464 258.32C137.28 259.917 138.493 261.279 139.986 262.273C141.48 263.268 143.203 263.862 144.992 264C144.992 263.68 147.104 258.24 147.104 258.24L142.672 255.76Z" fill="#263238"/>
<path d="M182.112 278.848C183.2 279.504 184.768 277.408 186.112 276C187.456 274.592 191.856 272.656 194.112 277.28C196.368 281.904 192.176 288.208 188.704 289.296C182.752 291.168 181.856 287.344 181.856 287.344L181.328 308.8C180.018 311.675 178.018 314.183 175.506 316.101C172.994 318.018 170.047 319.286 166.928 319.792C156.352 321.232 158.528 312.496 162 308.224V301.68C159.355 302.1 156.674 302.239 154 302.096C149.6 301.424 146.848 297.952 145.52 293.2C143.376 285.584 142.56 279.424 144.384 264.4C146.368 247.952 165.488 247.792 175.824 254.288C186.16 260.784 182.112 278.848 182.112 278.848Z" fill="#FFA8A7"/>
<path d="M182.112 280.688C182.656 280.688 184.752 277.232 186.112 276C188 274.272 185.568 258.752 185.568 258.752C185.568 258.752 187.472 252.864 183.744 248.96C180.016 245.056 172.8 245.76 167.536 245.536C161.056 245.565 154.638 244.275 148.672 241.744C141.184 238.544 140.672 238.112 139.696 241.392C138.72 244.672 138.416 252.224 142.896 257.264L146.624 258.64C146.624 258.64 148.624 260.416 155.616 261.264C162.066 261.752 168.548 261.634 174.976 260.912C177.008 260.624 177.44 262.592 178.528 267.952C179.472 272.672 180.272 280.656 182.112 280.688Z" fill="#263238"/>
<path d="M185.6 259.968L192.208 256.416C191.991 255.975 191.688 255.583 191.316 255.262C190.945 254.942 190.512 254.699 190.044 254.55C189.577 254.401 189.084 254.347 188.595 254.393C188.106 254.438 187.632 254.582 187.2 254.816C186.324 255.306 185.67 256.114 185.373 257.073C185.075 258.031 185.156 259.067 185.6 259.968Z" fill="#263238"/>
<path d="M161.936 301.744C161.936 301.744 171.728 299.776 175.152 297.952C177.189 296.91 178.863 295.276 179.952 293.264C179.436 295.271 178.522 297.153 177.264 298.8C174.768 302 162 304.352 162 304.352L161.936 301.744Z" fill="#F28F8F"/>
<path d="M164.288 276.4C164.304 276.785 164.432 277.157 164.658 277.47C164.883 277.783 165.196 278.023 165.557 278.16C165.917 278.297 166.31 278.324 166.687 278.24C167.063 278.155 167.406 277.961 167.673 277.683C167.941 277.405 168.12 277.054 168.19 276.675C168.26 276.296 168.216 275.904 168.065 275.549C167.914 275.194 167.662 274.891 167.341 274.678C167.019 274.466 166.642 274.352 166.256 274.352C165.992 274.356 165.731 274.412 165.489 274.517C165.247 274.623 165.028 274.775 164.845 274.966C164.662 275.156 164.519 275.381 164.423 275.627C164.328 275.873 164.282 276.136 164.288 276.4Z" fill="#263238"/>
<path d="M166.4 268.992L170.608 271.312C170.905 270.735 170.969 270.067 170.788 269.445C170.606 268.822 170.192 268.293 169.632 267.968C169.354 267.814 169.048 267.719 168.733 267.687C168.417 267.656 168.098 267.689 167.796 267.785C167.493 267.881 167.214 268.037 166.974 268.245C166.734 268.452 166.538 268.706 166.4 268.992Z" fill="#263238"/>
<path d="M162.832 289.952L158.4 291.632C158.495 291.934 158.651 292.213 158.857 292.453C159.063 292.693 159.317 292.888 159.601 293.027C159.885 293.167 160.195 293.247 160.511 293.262C160.827 293.278 161.143 293.23 161.44 293.12C162.034 292.871 162.509 292.403 162.768 291.814C163.027 291.224 163.05 290.557 162.832 289.952Z" fill="#F28F8F"/>
<path d="M146.784 270.624L150.624 267.68C150.444 267.421 150.214 267.201 149.947 267.034C149.68 266.867 149.381 266.757 149.07 266.709C148.759 266.661 148.441 266.677 148.136 266.756C147.831 266.835 147.545 266.975 147.296 267.168C146.786 267.57 146.448 268.152 146.353 268.794C146.258 269.437 146.412 270.091 146.784 270.624Z" fill="#263238"/>
<path d="M147.968 275.84C147.984 276.225 148.112 276.598 148.338 276.911C148.563 277.224 148.876 277.463 149.237 277.6C149.597 277.737 149.99 277.765 150.367 277.68C150.743 277.595 151.086 277.402 151.353 277.124C151.621 276.845 151.8 276.495 151.87 276.115C151.94 275.736 151.896 275.345 151.745 274.99C151.594 274.635 151.342 274.332 151.02 274.119C150.699 273.906 150.322 273.792 149.936 273.792C149.672 273.796 149.411 273.853 149.169 273.958C148.927 274.063 148.708 274.216 148.525 274.406C148.342 274.596 148.199 274.821 148.103 275.067C148.007 275.313 147.961 275.576 147.968 275.84Z" fill="#263238"/>
<path d="M157.968 273.984L157.328 285.776L151.168 283.68L157.968 273.984Z" fill="#F28F8F"/>
<path d="M188.512 582.784V580.992C187.312 581.504 184.512 592.192 179.52 596.72C175.552 600.336 170.144 604.512 168.768 608.544C167.392 612.576 176.304 615.056 179.968 614.4C184.272 613.632 191.728 610.608 193.6 607.792C195.472 604.976 196.352 600.848 197.872 598.784C199.392 596.72 202.896 594.432 203.728 592.048C204.176 590.736 203.632 587.872 203.008 585.44C202.384 583.008 201.792 580.784 201.024 580.992V582.4C199.238 583.805 197.025 584.556 194.752 584.528C192.96 584.544 188.496 584.192 188.512 582.784Z" fill="#263238"/>
<path d="M144.8 562.88C144.144 562.88 143.616 563.824 142.176 565.376C140.027 567.552 137.528 569.353 134.784 570.704C130.08 573.056 120.928 576.688 116.784 578.544C114.192 579.712 114.32 582.832 116.992 584.608C119.664 586.384 126.128 587.68 133.872 585.936C138.096 584.992 143.6 581.136 147.072 581.312C150.544 581.488 157.072 581.472 159.632 579.712C162.192 577.952 161.232 574.16 160.448 570.912C159.664 567.36 158.528 561.936 157.36 562.176V563.296C155.856 565.584 148.16 566.496 144.832 564.896L144.8 562.88Z" fill="#263238"/>
<path d="M223.36 383.2C224.144 379.424 215.68 341.936 212.368 330.08L197.696 347.2L206.72 384.192C205.039 394.538 202.578 404.743 199.36 414.72C198.771 416.268 197.632 417.544 196.16 418.304C192.24 420.4 190.576 422.704 187.552 425.472C185.184 427.632 183.264 428.08 183.504 428.848C183.875 429.687 184.549 430.356 185.391 430.721C186.233 431.085 187.182 431.119 188.048 430.816C189.989 430.2 191.852 429.363 193.6 428.32C192.065 431.622 190.013 434.657 187.52 437.312C181.824 443.392 181.328 447.344 191.936 448.144C198.576 448.656 204.16 444.944 210.16 430.544C211.888 426.432 214.064 420.432 215.696 415.008C219.536 402.224 221.552 392 223.36 383.2Z" fill="#FFA8A7"/>
<path d="M192.704 336.448C188.704 327.264 190.704 316.512 195.136 312.336C206.336 314.272 209.264 319.6 212.368 330.08C217.168 346.24 219.552 356.736 219.552 356.736C216.736 360.48 205.52 364.832 200.256 363.232L192.704 336.448Z" fill="#56C0D8"/>
<path opacity="0.1" d="M192.704 336.448C188.704 327.264 190.704 316.512 195.136 312.336C206.336 314.272 209.264 319.6 212.368 330.08C217.168 346.24 219.552 356.736 219.552 356.736C216.736 360.48 205.52 364.832 200.256 363.232L192.704 336.448Z" fill="black"/>
<path opacity="0.1" d="M200.256 363.232L195.136 345.072L200.256 379.232V363.232Z" fill="black"/>
<path d="M168.976 429.008C162.479 426.982 156.504 423.557 151.472 418.976C151.472 418.976 154.848 425.296 164.896 431.184L164.352 465.744L168.976 429.008Z" fill="#263238"/>
</svg>
