<svg width="500" height="500" viewBox="0 0 500 500" fill="none" xmlns="http://www.w3.org/2000/svg">
<path d="M500 382.4H0V382.65H500V382.4Z" fill="#EBEBEB"/>
<path d="M449.9 398.49H416.78V398.74H449.9V398.49Z" fill="#EBEBEB"/>
<path d="M331.22 401.21H322.53V401.46H331.22V401.21Z" fill="#EBEBEB"/>
<path d="M415.78 389.21H396.59V389.46H415.78V389.21Z" fill="#EBEBEB"/>
<path d="M95.65 390.89H52.46V391.14H95.65V390.89Z" fill="#EBEBEB"/>
<path d="M110.89 390.89H104.56V391.14H110.89V390.89Z" fill="#EBEBEB"/>
<path d="M225.15 395.11H131.47V395.36H225.15V395.11Z" fill="#EBEBEB"/>
<path d="M237 337.8H43.91C42.3973 337.797 40.9475 337.195 39.8788 336.124C38.8102 335.054 38.21 333.603 38.21 332.09V60.66C38.2231 59.156 38.8292 57.718 39.8964 56.6582C40.9637 55.5985 42.4059 55.0026 43.91 55H237C238.514 55 239.967 55.6016 241.038 56.6724C242.108 57.7433 242.71 59.1956 242.71 60.71V332.09C242.71 333.604 242.108 335.057 241.038 336.128C239.967 337.198 238.514 337.8 237 337.8V337.8ZM43.91 55.2C42.4636 55.2026 41.0774 55.7791 40.0556 56.8027C39.0338 57.8264 38.46 59.2136 38.46 60.66V332.09C38.46 333.536 39.0338 334.924 40.0556 335.947C41.0774 336.971 42.4636 337.547 43.91 337.55H237C238.447 337.547 239.834 336.971 240.858 335.948C241.881 334.924 242.457 333.537 242.46 332.09V60.66C242.457 59.2127 241.881 57.8255 240.858 56.8021C239.834 55.7787 238.447 55.2026 237 55.2H43.91Z" fill="#EBEBEB"/>
<path d="M453.31 337.8H260.21C258.696 337.797 257.246 337.195 256.175 336.125C255.105 335.054 254.503 333.604 254.5 332.09V60.66C254.516 59.1551 255.124 57.7171 256.193 56.6576C257.262 55.5981 258.705 55.0025 260.21 55H453.31C454.812 55.0052 456.252 55.6022 457.317 56.6617C458.382 57.7212 458.987 59.1578 459 60.66V332.09C459 333.601 458.401 335.05 457.335 336.121C456.268 337.191 454.821 337.795 453.31 337.8V337.8ZM260.21 55.2C258.763 55.2026 257.375 55.7787 256.352 56.8021C255.329 57.8255 254.753 59.2127 254.75 60.66V332.09C254.753 333.537 255.329 334.924 256.352 335.948C257.375 336.971 258.763 337.547 260.21 337.55H453.31C454.757 337.547 456.145 336.971 457.168 335.948C458.191 334.924 458.767 333.537 458.77 332.09V60.66C458.767 59.2127 458.191 57.8255 457.168 56.8021C456.145 55.7787 454.757 55.2026 453.31 55.2H260.21Z" fill="#EBEBEB"/>
<path d="M166.76 94.39H95.51V336.1H166.76V94.39Z" fill="#FAFAFA"/>
<path d="M156.15 94.39H151.99L127.14 336.1H131.3L156.15 94.39Z" fill="#F5F5F5"/>
<path d="M165.5 95.32H95.05V97.45H165.5V95.32Z" fill="#E0E0E0"/>
<path d="M165.5 333.98H95.05V338.54H165.5V333.98Z" fill="#EBEBEB"/>
<path d="M164.33 338.34H97.76V338.54H164.33V338.34Z" fill="#EBEBEB"/>
<path d="M97.76 95.32H164.33V338.34H168.31V92.34H93.77V338.34H97.76V95.32Z" fill="#EBEBEB"/>
<path d="M246.04 94.39H174.79V336.1H246.04V94.39Z" fill="#FAFAFA"/>
<path d="M226.28 94.39H203.57L178.72 336.1H201.43L226.28 94.39Z" fill="#F5F5F5"/>
<path d="M246.79 95.32H174.34V97.45H246.79V95.32Z" fill="#E0E0E0"/>
<path d="M246.79 333.98H174.34V338.54H246.79V333.98Z" fill="#EBEBEB"/>
<path d="M243.62 338.34H177.05V338.54H243.62V338.34Z" fill="#EBEBEB"/>
<path d="M177.05 95.32H243.62V338.34H247.6V92.34H173.06V338.34H177.05V95.32Z" fill="#EBEBEB"/>
<path d="M323.33 94.39H254.08V336.1H323.33V94.39Z" fill="#FAFAFA"/>
<path d="M293.32 94.39H289.16L264.31 336.1H268.47L293.32 94.39Z" fill="#F5F5F5"/>
<path d="M324.08 95.32H253.63V97.45H324.08V95.32Z" fill="#E0E0E0"/>
<path d="M324.08 333.98H253.63V338.54H324.08V333.98Z" fill="#EBEBEB"/>
<path d="M322.91 338.34H256.34V338.54H322.91V338.34Z" fill="#EBEBEB"/>
<path d="M256.33 95.32H322.9V338.34H326.89V92.34H252.35V338.34H256.33V95.32Z" fill="#EBEBEB"/>
<path d="M404.62 94.39H333.37V336.1H404.62V94.39Z" fill="#FAFAFA"/>
<path d="M397.65 94.39H374.94L350.08 336.1H372.8L397.65 94.39Z" fill="#F5F5F5"/>
<path d="M403.36 95.32H332.91V97.45H403.36V95.32Z" fill="#E0E0E0"/>
<path d="M403.36 333.98H332.91V338.54H403.36V333.98Z" fill="#EBEBEB"/>
<path d="M335.62 95.32H402.19V338.34H406.18V92.34H331.64V338.34H335.62V95.32Z" fill="#EBEBEB"/>
<path d="M402.19 338.34H335.62V338.54H402.19V338.34Z" fill="#EBEBEB"/>
<path d="M149.71 280.5H118.78V333.99H149.71V280.5Z" fill="#EBEBEB"/>
<path d="M143.77 273.03V286.44H141.34H127.16H124.72V273.03H143.77Z" fill="#EBEBEB"/>
<path d="M143.78 286.44H147.74V282.48H143.78V286.44Z" fill="#FAFAFA"/>
<path d="M136.11 286.44H140.07V282.48H136.11V286.44Z" fill="#FAFAFA"/>
<path d="M128.44 286.44H132.4V282.48H128.44V286.44Z" fill="#FAFAFA"/>
<path d="M120.76 286.44H124.72V282.48H120.76V286.44Z" fill="#F0F0F0"/>
<path d="M143.78 293.64H147.74V289.68H143.78V293.64Z" fill="#F0F0F0"/>
<path d="M136.11 293.64H140.07V289.68H136.11V293.64Z" fill="#F0F0F0"/>
<path d="M128.44 293.64H132.4V289.68H128.44V293.64Z" fill="#FAFAFA"/>
<path d="M120.76 293.64H124.72V289.68H120.76V293.64Z" fill="#FAFAFA"/>
<path d="M143.78 300.84H147.74V296.88H143.78V300.84Z" fill="#F0F0F0"/>
<path d="M136.11 300.84H140.07V296.88H136.11V300.84Z" fill="#FAFAFA"/>
<path d="M128.44 300.84H132.4V296.88H128.44V300.84Z" fill="#FAFAFA"/>
<path d="M136.11 280.22H140.07V276.26H136.11V280.22Z" fill="#FAFAFA"/>
<path d="M128.44 280.22H132.4V276.26H128.44V280.22Z" fill="#F0F0F0"/>
<path d="M120.76 300.84H124.72V296.88H120.76V300.84Z" fill="#F0F0F0"/>
<path d="M143.78 308.03H147.74V304.07H143.78V308.03Z" fill="#FAFAFA"/>
<path d="M136.11 308.03H140.07V304.07H136.11V308.03Z" fill="#F0F0F0"/>
<path d="M128.44 308.03H132.4V304.07H128.44V308.03Z" fill="#F0F0F0"/>
<path d="M120.76 308.03H124.72V304.07H120.76V308.03Z" fill="#FAFAFA"/>
<path d="M143.78 315.23H147.74V311.27H143.78V315.23Z" fill="#F0F0F0"/>
<path d="M136.11 315.23H140.07V311.27H136.11V315.23Z" fill="#FAFAFA"/>
<path d="M128.44 315.23H132.4V311.27H128.44V315.23Z" fill="#FAFAFA"/>
<path d="M120.76 315.23H124.72V311.27H120.76V315.23Z" fill="#F0F0F0"/>
<path d="M143.78 322.42H147.74V318.46H143.78V322.42Z" fill="#F0F0F0"/>
<path d="M136.11 322.42H140.07V318.46H136.11V322.42Z" fill="#FAFAFA"/>
<path d="M128.44 322.42H132.4V318.46H128.44V322.42Z" fill="#F0F0F0"/>
<path d="M120.76 322.42H124.72V318.46H120.76V322.42Z" fill="#FAFAFA"/>
<path d="M143.78 329.61H147.74V325.65H143.78V329.61Z" fill="#FAFAFA"/>
<path d="M136.11 329.61H140.07V325.65H136.11V329.61Z" fill="#FAFAFA"/>
<path d="M128.44 329.61H132.4V325.65H128.44V329.61Z" fill="#F0F0F0"/>
<path d="M120.76 329.61H124.72V325.65H120.76V329.61Z" fill="#F0F0F0"/>
<path d="M367.6 299.99H339.89V333.99H367.6V299.99Z" fill="#F0F0F0"/>
<path d="M342.31 303.76H348.75H350.53H352.3V307.31H350.53H348.75H342.31V303.76Z" fill="#E6E6E6"/>
<path d="M342.31 310.63H348.75H350.53H352.3V314.18H350.53H348.75H342.31V310.63Z" fill="#FAFAFA"/>
<path d="M342.31 317.5H348.75H350.53H352.3V321.05H350.53H348.75H342.31V317.5Z" fill="#E6E6E6"/>
<path d="M342.31 324.37H348.75H351.49H352.3V327.92H351.49H348.75H342.31V324.37Z" fill="#FAFAFA"/>
<path d="M355.2 303.76H361.64H363.42H365.19V307.31H363.42H361.64H355.2V303.76Z" fill="#FAFAFA"/>
<path d="M355.2 310.63H361.64H364.14H365.19V314.18H364.14H361.64H355.2V310.63Z" fill="#FAFAFA"/>
<path d="M355.2 317.5H361.64H363.42H365.19V321.05H363.42H361.64H355.2V317.5Z" fill="#E6E6E6"/>
<path d="M355.2 324.37H361.64H363.42H365.19V327.92H363.42H361.64H355.2V324.37Z" fill="#FAFAFA"/>
<path d="M234.08 312.86H208.9V333.99H234.08V312.86Z" fill="#F0F0F0"/>
<path d="M229.25 318.71H232.47V315.49H229.25V318.71Z" fill="#FAFAFA"/>
<path d="M223 318.71H226.22V315.49H223V318.71Z" fill="#FAFAFA"/>
<path d="M216.76 318.71H219.98V315.49H216.76V318.71Z" fill="#FAFAFA"/>
<path d="M210.52 318.71H213.74V315.49H210.52V318.71Z" fill="#FAFAFA"/>
<path d="M229.25 324.58H232.47V321.36H229.25V324.58Z" fill="#FAFAFA"/>
<path d="M223 324.58H226.22V321.36H223V324.58Z" fill="#FAFAFA"/>
<path d="M216.76 324.58H219.98V321.36H216.76V324.58Z" fill="#FAFAFA"/>
<path d="M210.52 324.58H213.74V321.36H210.52V324.58Z" fill="#E6E6E6"/>
<path d="M229.25 330.43H232.47V327.21H229.25V330.43Z" fill="#E6E6E6"/>
<path d="M223 330.43H226.22V327.21H223V330.43Z" fill="#E6E6E6"/>
<path d="M216.76 330.43H219.98V327.21H216.76V330.43Z" fill="#FAFAFA"/>
<path d="M210.52 330.43H213.74V327.21H210.52V330.43Z" fill="#E6E6E6"/>
<path d="M205.49 297.24H180.31V333.99H205.49V297.24Z" fill="#F0F0F0"/>
<path d="M203.88 298.85H194.41V307.93H203.88V298.85Z" fill="#FAFAFA"/>
<path d="M191.39 298.85H181.92V307.93H191.39V298.85Z" fill="#FAFAFA"/>
<path d="M203.88 310.56H194.41V319.64H203.88V310.56Z" fill="#FAFAFA"/>
<path d="M191.39 310.56H181.92V319.64H191.39V310.56Z" fill="#FAFAFA"/>
<path d="M203.88 322.28H194.41V331.36H203.88V322.28Z" fill="#FAFAFA"/>
<path d="M191.39 322.28H181.92V331.36H191.39V322.28Z" fill="#FAFAFA"/>
<path d="M250 427.56C357.083 427.56 443.89 422.492 443.89 416.24C443.89 409.988 357.083 404.92 250 404.92C142.918 404.92 56.1101 409.988 56.1101 416.24C56.1101 422.492 142.918 427.56 250 427.56Z" fill="#F5F5F5"/>
<path d="M412.9 386.72C412.9 386.39 411.8 354.08 406.56 348.99C401.51 344.08 395.68 348.81 395.44 348.99L394.8 348.22C394.86 348.17 401.56 342.71 407.26 348.22C412.78 353.59 413.86 385.29 413.9 386.64L412.9 386.72Z" fill="#56C0D8"/>
<path d="M413.35 393.08C413.2 391.5 409.75 354.21 423.82 338.08L424.57 338.74C410.79 354.56 414.31 392.62 414.35 393L413.35 393.08Z" fill="#56C0D8"/>
<path d="M413 389L412 388.94C412 388.5 414.75 345.27 404.48 335.82L405.16 335.08C415.79 344.86 413.13 387.21 413 389Z" fill="#56C0D8"/>
<path d="M414.35 389H413.35C413.35 387.81 413.69 359.72 421.7 355.13C422.467 354.632 423.343 354.327 424.254 354.24C425.164 354.153 426.082 354.287 426.93 354.63C431.79 356.63 434.19 365.24 434.29 365.63L433.29 365.89C433.29 365.81 430.92 357.39 426.52 355.57C425.813 355.286 425.047 355.179 424.289 355.257C423.531 355.335 422.804 355.597 422.17 356.02C414.68 360.28 414.35 388.7 414.35 389Z" fill="#56C0D8"/>
<path d="M411.25 389L410.25 388.94C410.25 388.72 411.45 366.81 405.55 359.11C404.14 357.26 402.55 356.39 400.99 356.5C397.16 356.76 393.93 362.4 393.9 362.5L393 362C393.14 361.75 396.52 355.84 400.89 355.54C402.89 355.41 404.68 356.41 406.32 358.54C412.47 366.51 411.3 388.09 411.25 389Z" fill="#56C0D8"/>
<path d="M412.37 392C412.21 389.87 408.5 339.75 415.04 330.9L415.85 331.49C409.52 340.05 413.33 391.41 413.37 391.93L412.37 392Z" fill="#56C0D8"/>
<path d="M428.67 359.75C428.67 359.75 424.76 361.2 425.92 364.6C427.08 368 439.47 373.6 439.47 373.6C439.47 373.6 444.65 368.85 439.89 361.12C435.13 353.39 428.78 357.31 428.67 359.75Z" fill="#56C0D8"/>
<path opacity="0.5" d="M428.67 359.75C428.67 359.75 424.76 361.2 425.92 364.6C427.08 368 439.47 373.6 439.47 373.6C439.47 373.6 444.65 368.85 439.89 361.12C435.13 353.39 428.78 357.31 428.67 359.75Z" fill="white"/>
<path d="M411.65 353.27C411.65 353.27 415.82 353.09 416.06 356.68C416.3 360.27 407.06 370.22 407.06 370.22C407.06 370.22 400.44 367.83 401.86 358.86C403.28 349.89 410.62 351.06 411.65 353.27Z" fill="#56C0D8"/>
<path opacity="0.5" d="M411.65 353.27C411.65 353.27 415.82 353.09 416.06 356.68C416.3 360.27 407.06 370.22 407.06 370.22C407.06 370.22 400.44 367.83 401.86 358.86C403.28 349.89 410.62 351.06 411.65 353.27Z" fill="white"/>
<path d="M408.12 336.07C408.12 336.07 410.9 335.77 410.68 334.07C410.46 332.37 399.87 328.02 393.63 335.07C393.63 335.07 397.63 341.94 403.41 342.07C409.19 342.2 408.12 336.07 408.12 336.07Z" fill="#56C0D8"/>
<path opacity="0.5" d="M408.12 336.07C408.12 336.07 410.9 335.77 410.68 334.07C410.46 332.37 399.87 328.02 393.63 335.07C393.63 335.07 397.63 341.94 403.41 342.07C409.19 342.2 408.12 336.07 408.12 336.07Z" fill="white"/>
<path d="M413.3 332C413.3 332 410.79 333.21 410.08 331.66C409.37 330.11 416.08 320.81 425.08 323.49C425.08 323.49 425.31 331.43 420.46 334.56C415.61 337.69 413.3 332 413.3 332Z" fill="#56C0D8"/>
<path opacity="0.5" d="M413.3 332C413.3 332 410.79 333.21 410.08 331.66C409.37 330.11 416.08 320.81 425.08 323.49C425.08 323.49 425.31 331.43 420.46 334.56C415.61 337.69 413.3 332 413.3 332Z" fill="white"/>
<path d="M400.14 358.38C400.14 358.38 402.06 356.83 399.99 356.08C397.92 355.33 387.76 355.54 387.66 365.6C387.66 365.6 399.49 367.6 400.95 363.73C402.41 359.86 400.14 358.38 400.14 358.38Z" fill="#56C0D8"/>
<path opacity="0.5" d="M400.14 358.38C400.14 358.38 402.06 356.83 399.99 356.08C397.92 355.33 387.76 355.54 387.66 365.6C387.66 365.6 399.49 367.6 400.95 363.73C402.41 359.86 400.14 358.38 400.14 358.38Z" fill="white"/>
<path d="M424.27 335.82C424.27 335.82 422.35 334.27 424.42 333.51C426.49 332.75 436.65 332.97 436.75 343.03C436.75 343.03 424.92 345.03 423.46 341.17C422 337.31 424.27 335.82 424.27 335.82Z" fill="#56C0D8"/>
<path opacity="0.5" d="M424.27 335.82C424.27 335.82 422.35 334.27 424.42 333.51C426.49 332.75 436.65 332.97 436.75 343.03C436.75 343.03 424.92 345.03 423.46 341.17C422 337.31 424.27 335.82 424.27 335.82Z" fill="white"/>
<path d="M418 343.92C418 343.92 417.83 342.04 419.35 342.78C420.87 343.52 426.17 349.23 420.68 354.65C420.68 354.65 413.29 349.18 414.62 346.33C415.95 343.48 418 343.92 418 343.92Z" fill="#56C0D8"/>
<path opacity="0.5" d="M418 343.92C418 343.92 417.83 342.04 419.35 342.78C420.87 343.52 426.17 349.23 420.68 354.65C420.68 354.65 413.29 349.18 414.62 346.33C415.95 343.48 418 343.92 418 343.92Z" fill="white"/>
<path d="M398.43 346.6C398.43 346.6 399.58 345.1 397.9 344.92C396.22 344.74 388.69 346.74 390.44 354.25C390.44 354.25 399.61 353.56 400.01 350.44C400.41 347.32 398.43 346.6 398.43 346.6Z" fill="#56C0D8"/>
<path opacity="0.5" d="M398.43 346.6C398.43 346.6 399.58 345.1 397.9 344.92C396.22 344.74 388.69 346.74 390.44 354.25C390.44 354.25 399.61 353.56 400.01 350.44C400.41 347.32 398.43 346.6 398.43 346.6Z" fill="white"/>
<path d="M429.4 416.87H397.94L394.55 382.43H432.8L429.4 416.87Z" fill="#263238"/>
<path opacity="0.2" d="M429.4 416.87H397.94L394.55 382.43H432.8L429.4 416.87Z" fill="white"/>
<path d="M434.48 378.63H392.87V386.23H434.48V378.63Z" fill="#263238"/>
<path opacity="0.4" d="M434.48 378.63H392.87V386.23H434.48V378.63Z" fill="white"/>
<path d="M339.07 416.87H246.24C244.908 416.894 243.587 416.633 242.364 416.106C241.14 415.579 240.043 414.798 239.145 413.814C238.248 412.83 237.57 411.666 237.157 410.4C236.744 409.134 236.605 407.794 236.75 406.47L260.75 132.35C261.035 129.542 262.335 126.934 264.406 125.017C266.478 123.1 269.178 122.006 272 121.94H364.83C366.163 121.916 367.485 122.177 368.709 122.704C369.933 123.232 371.031 124.014 371.929 124.999C372.827 125.984 373.505 127.149 373.917 128.417C374.329 129.684 374.467 131.025 374.32 132.35L350.32 406.47C350.033 409.276 348.732 411.881 346.661 413.796C344.589 415.711 341.89 416.804 339.07 416.87V416.87Z" fill="#56C0D8"/>
<path opacity="0.4" d="M339.07 416.87H246.24C244.908 416.894 243.587 416.633 242.364 416.106C241.14 415.579 240.043 414.798 239.145 413.814C238.248 412.83 237.57 411.666 237.157 410.4C236.744 409.134 236.605 407.794 236.75 406.47L260.75 132.35C261.035 129.542 262.335 126.934 264.406 125.017C266.478 123.1 269.178 122.006 272 121.94H364.83C366.163 121.916 367.485 122.177 368.709 122.704C369.933 123.232 371.031 124.014 371.929 124.999C372.827 125.984 373.505 127.149 373.917 128.417C374.329 129.684 374.467 131.025 374.32 132.35L350.32 406.47C350.033 409.276 348.732 411.881 346.661 413.796C344.589 415.711 341.89 416.804 339.07 416.87V416.87Z" fill="white"/>
<path d="M329.07 416.87H236.24C234.908 416.894 233.587 416.633 232.364 416.106C231.14 415.579 230.043 414.798 229.145 413.814C228.248 412.83 227.57 411.666 227.157 410.4C226.744 409.134 226.605 407.794 226.75 406.47L250.75 132.35C251.035 129.542 252.335 126.934 254.406 125.017C256.478 123.1 259.178 122.006 262 121.94H354.83C356.163 121.916 357.485 122.177 358.709 122.704C359.933 123.232 361.031 124.014 361.929 124.999C362.827 125.984 363.505 127.149 363.917 128.417C364.329 129.684 364.467 131.025 364.32 132.35L340.32 406.47C340.033 409.276 338.732 411.881 336.661 413.796C334.589 415.711 331.89 416.804 329.07 416.87V416.87Z" fill="#263238"/>
<path d="M329.07 416.87H236.24C234.908 416.894 233.587 416.633 232.364 416.106C231.14 415.579 230.043 414.798 229.145 413.814C228.248 412.83 227.57 411.666 227.157 410.4C226.744 409.134 226.605 407.794 226.75 406.47L250.75 132.35C251.035 129.542 252.335 126.934 254.406 125.017C256.478 123.1 259.178 122.006 262 121.94H354.83C356.163 121.916 357.485 122.177 358.709 122.704C359.933 123.232 361.031 124.014 361.929 124.999C362.827 125.984 363.505 127.149 363.917 128.417C364.329 129.684 364.467 131.025 364.32 132.35L340.32 406.47C340.033 409.276 338.732 411.881 336.661 413.796C334.589 415.711 331.89 416.804 329.07 416.87V416.87Z" fill="#56C0D8"/>
<path opacity="0.4" d="M360.57 131.82L336.57 406.46C336.37 408.72 334.96 410.46 333.39 410.46H232.76C231.32 410.46 230.37 408.85 230.56 406.77L254.64 131.47C254.8 129.67 255.85 128.1 257.1 128.1H282.25C282.96 128.1 283.55 128.77 283.73 129.74L284.45 133.44C284.63 134.39 285.21 135.05 285.92 135.05H328.75C329.168 134.991 329.56 134.807 329.873 134.524C330.187 134.241 330.409 133.87 330.51 133.46L331.87 129.74C331.973 129.324 332.196 128.947 332.51 128.656C332.825 128.364 333.217 128.171 333.64 128.1H358.43C359.8 128.12 360.75 129.84 360.57 131.82Z" fill="white"/>
<path d="M359.4 145.28L338.78 380.94H232.82L253.44 145.28H359.4Z" fill="#56C0D8"/>
<path opacity="0.6" d="M265.64 139.19H266.95L267.17 136.67H265.87L265.64 139.19Z" fill="white"/>
<path opacity="0.6" d="M263.51 139.19H264.82L265.11 135.83H263.81L263.51 139.19Z" fill="white"/>
<path opacity="0.6" d="M261.38 139.19H262.69L263.06 134.99H261.75L261.38 139.19Z" fill="white"/>
<path opacity="0.6" d="M259.25 139.19H260.56L261 134.15H259.69L259.25 139.19Z" fill="white"/>
<path opacity="0.6" d="M348.02 138.27H347.24L347.46 135.75H348.24L348.02 138.27Z" fill="white"/>
<path opacity="0.6" d="M348.47 139.19H354.65L355.03 134.83H348.85L348.47 139.19Z" fill="white"/>
<path opacity="0.6" d="M307.87 128.48C307.77 129.64 307.03 130.58 306.23 130.58C305.43 130.58 304.86 129.64 304.96 128.48C305.06 127.32 305.79 126.38 306.6 126.38C307.41 126.38 308 127.32 307.87 128.48Z" fill="#263238"/>
<path opacity="0.6" d="M310.81 128.48C310.75 129.23 310.28 129.83 309.76 129.83C309.24 129.83 308.88 129.23 308.95 128.48C309.02 127.73 309.48 127.14 310 127.14C310.52 127.14 310.88 127.74 310.81 128.48Z" fill="#263238"/>
<path d="M359.39 145.28L356.53 177.97L356.04 183.61L353.75 209.8L353.39 213.87L350.14 251L349.79 255.07L346.67 290.72L346.22 295.85L338.78 380.93H232.81L253.43 145.28H359.39Z" fill="#263238"/>
<path opacity="0.5" d="M254.73 218.08C254.837 218.167 254.972 218.213 255.11 218.21C255.215 218.206 255.319 218.18 255.414 218.134C255.509 218.087 255.592 218.021 255.66 217.94C255.716 217.877 255.76 217.803 255.787 217.722C255.815 217.642 255.826 217.557 255.82 217.472C255.815 217.388 255.793 217.305 255.755 217.229C255.717 217.153 255.664 217.085 255.6 217.03L253.78 215.61L255.83 214.18C255.978 214.087 256.084 213.94 256.125 213.77C256.166 213.6 256.139 213.42 256.05 213.27C255.999 213.201 255.936 213.143 255.863 213.098C255.79 213.054 255.709 213.024 255.624 213.011C255.539 212.998 255.453 213.002 255.37 213.022C255.287 213.043 255.209 213.079 255.14 213.13L252.33 215.13C252.243 215.191 252.171 215.27 252.117 215.361C252.064 215.453 252.031 215.555 252.02 215.66C252.011 215.76 252.027 215.86 252.065 215.952C252.103 216.044 252.163 216.126 252.24 216.19L254.73 218.08Z" fill="white"/>
<path opacity="0.5" d="M263.81 215.6L261.76 217C261.613 217.096 261.509 217.246 261.469 217.418C261.43 217.589 261.459 217.769 261.55 217.92C261.605 218.002 261.68 218.068 261.767 218.114C261.854 218.159 261.952 218.182 262.05 218.18C262.194 218.181 262.334 218.136 262.45 218.05L265.26 216.1C265.349 216.044 265.423 215.967 265.477 215.877C265.531 215.787 265.563 215.685 265.57 215.58C265.581 215.48 265.567 215.379 265.529 215.286C265.49 215.194 265.429 215.112 265.35 215.05L262.87 213.11C262.728 213.007 262.55 212.963 262.376 212.989C262.202 213.016 262.046 213.109 261.94 213.25C261.884 213.313 261.84 213.387 261.813 213.468C261.785 213.548 261.774 213.633 261.78 213.718C261.785 213.802 261.807 213.885 261.845 213.961C261.883 214.037 261.936 214.105 262 214.16L263.81 215.6Z" fill="white"/>
<path opacity="0.5" d="M257.67 218.17C257.743 218.18 257.817 218.18 257.89 218.17C258.029 218.167 258.165 218.124 258.28 218.046C258.396 217.968 258.486 217.858 258.54 217.73L260.25 213.83C260.288 213.755 260.309 213.672 260.312 213.588C260.316 213.504 260.301 213.42 260.27 213.341C260.239 213.263 260.192 213.192 260.132 213.133C260.071 213.075 259.999 213.029 259.92 213C259.751 212.946 259.568 212.957 259.408 213.031C259.247 213.105 259.119 213.237 259.05 213.4L257.34 217.29C257.295 217.368 257.269 217.455 257.261 217.544C257.254 217.634 257.267 217.724 257.298 217.808C257.33 217.892 257.379 217.968 257.444 218.03C257.508 218.093 257.585 218.141 257.67 218.17Z" fill="white"/>
<path opacity="0.5" d="M268.59 218.42H272C272.235 218.41 272.46 218.318 272.634 218.158C272.808 217.999 272.92 217.784 272.95 217.55C272.961 217.439 272.949 217.327 272.914 217.221C272.879 217.115 272.821 217.017 272.746 216.935C272.67 216.853 272.578 216.788 272.475 216.744C272.373 216.7 272.262 216.678 272.15 216.68H268.69C268.446 216.678 268.209 216.765 268.025 216.926C267.841 217.086 267.722 217.308 267.69 217.55C267.676 217.67 267.691 217.792 267.732 217.906C267.773 218.019 267.839 218.122 267.926 218.206C268.013 218.29 268.118 218.353 268.233 218.39C268.348 218.427 268.47 218.438 268.59 218.42V218.42Z" fill="white"/>
<path d="M280.8 241C280.811 240.889 280.799 240.777 280.764 240.671C280.728 240.565 280.671 240.467 280.596 240.385C280.52 240.303 280.428 240.238 280.325 240.194C280.222 240.15 280.112 240.128 280 240.13H250C249.766 240.142 249.544 240.236 249.372 240.395C249.201 240.554 249.09 240.768 249.06 241C249.047 241.111 249.058 241.224 249.093 241.331C249.127 241.438 249.185 241.536 249.261 241.618C249.336 241.701 249.429 241.766 249.533 241.81C249.636 241.853 249.748 241.874 249.86 241.87H279.86C280.094 241.858 280.316 241.764 280.487 241.605C280.659 241.446 280.77 241.232 280.8 241V241Z" fill="white"/>
<path opacity="0.5" d="M284.57 241.88H293.4C293.634 241.868 293.856 241.774 294.027 241.615C294.199 241.456 294.31 241.242 294.34 241.01C294.351 240.899 294.339 240.787 294.304 240.681C294.268 240.575 294.211 240.477 294.135 240.395C294.06 240.313 293.968 240.248 293.865 240.204C293.762 240.16 293.652 240.138 293.54 240.14H284.72C284.476 240.138 284.239 240.225 284.055 240.386C283.871 240.546 283.752 240.768 283.72 241.01C283.708 241.125 283.721 241.242 283.759 241.352C283.797 241.462 283.859 241.562 283.94 241.645C284.022 241.728 284.12 241.792 284.229 241.833C284.338 241.873 284.454 241.889 284.57 241.88Z" fill="white"/>
<path opacity="0.5" d="M250.31 236.36H261.67C261.905 236.35 262.13 236.258 262.304 236.098C262.477 235.939 262.589 235.724 262.62 235.49C262.631 235.379 262.619 235.267 262.584 235.161C262.548 235.055 262.491 234.957 262.415 234.875C262.34 234.793 262.248 234.728 262.145 234.684C262.042 234.64 261.932 234.618 261.82 234.62H250.46C250.216 234.618 249.979 234.705 249.795 234.866C249.611 235.026 249.492 235.248 249.46 235.49C249.448 235.606 249.461 235.722 249.499 235.832C249.537 235.942 249.599 236.042 249.68 236.125C249.762 236.208 249.86 236.272 249.969 236.313C250.078 236.353 250.194 236.369 250.31 236.36V236.36Z" fill="white"/>
<path d="M303.55 235.49C303.561 235.379 303.549 235.267 303.514 235.161C303.478 235.055 303.421 234.957 303.346 234.875C303.27 234.793 303.178 234.728 303.075 234.684C302.972 234.64 302.862 234.618 302.75 234.62H267.46C267.224 234.63 267 234.722 266.826 234.882C266.652 235.041 266.54 235.256 266.51 235.49C266.499 235.601 266.511 235.713 266.546 235.819C266.581 235.925 266.639 236.023 266.714 236.105C266.79 236.187 266.882 236.252 266.985 236.296C267.087 236.34 267.198 236.362 267.31 236.36H302.6C302.835 236.35 303.06 236.258 303.234 236.098C303.407 235.939 303.519 235.724 303.55 235.49V235.49Z" fill="white"/>
<path d="M250.78 230.85H271.37C271.606 230.84 271.83 230.748 272.004 230.588C272.178 230.429 272.29 230.214 272.32 229.98C272.331 229.869 272.319 229.757 272.284 229.651C272.249 229.545 272.191 229.447 272.116 229.365C272.04 229.283 271.948 229.218 271.845 229.174C271.743 229.13 271.632 229.108 271.52 229.11H250.93C250.686 229.108 250.449 229.195 250.265 229.356C250.081 229.516 249.962 229.738 249.93 229.98C249.918 230.095 249.931 230.212 249.97 230.322C250.008 230.432 250.07 230.532 250.151 230.615C250.232 230.698 250.33 230.762 250.439 230.803C250.548 230.843 250.664 230.859 250.78 230.85V230.85Z" fill="white"/>
<path opacity="0.5" d="M275.31 230C275.299 230.111 275.311 230.223 275.346 230.329C275.381 230.435 275.439 230.533 275.514 230.615C275.59 230.697 275.682 230.762 275.785 230.806C275.888 230.85 275.998 230.872 276.11 230.87H281.21C281.454 230.872 281.691 230.785 281.875 230.624C282.059 230.464 282.178 230.242 282.21 230C282.221 229.889 282.209 229.777 282.174 229.671C282.138 229.565 282.081 229.467 282.006 229.385C281.93 229.303 281.838 229.238 281.735 229.194C281.632 229.15 281.522 229.128 281.41 229.13H276.31C276.066 229.128 275.829 229.215 275.645 229.376C275.461 229.536 275.342 229.758 275.31 230Z" fill="white"/>
<path opacity="0.5" d="M251.25 225.33H275.56C275.796 225.32 276.02 225.228 276.194 225.068C276.368 224.909 276.48 224.694 276.51 224.46C276.521 224.349 276.509 224.237 276.474 224.131C276.439 224.025 276.381 223.927 276.306 223.845C276.23 223.763 276.138 223.698 276.035 223.654C275.933 223.61 275.822 223.588 275.71 223.59H251.39C251.155 223.6 250.93 223.692 250.756 223.852C250.583 224.011 250.471 224.226 250.44 224.46C250.429 224.572 250.441 224.685 250.477 224.792C250.513 224.898 250.571 224.996 250.648 225.079C250.725 225.161 250.818 225.226 250.922 225.269C251.026 225.313 251.138 225.333 251.25 225.33V225.33Z" fill="white"/>
<path d="M293.63 225.33H312.28C312.524 225.332 312.761 225.245 312.945 225.084C313.129 224.924 313.248 224.702 313.28 224.46C313.291 224.349 313.279 224.237 313.244 224.131C313.209 224.025 313.151 223.927 313.076 223.845C313 223.763 312.908 223.698 312.805 223.654C312.702 223.61 312.592 223.588 312.48 223.59H293.77C293.536 223.602 293.314 223.696 293.142 223.855C292.971 224.014 292.86 224.228 292.83 224.46C292.819 224.571 292.831 224.683 292.866 224.789C292.902 224.895 292.959 224.993 293.034 225.075C293.11 225.157 293.202 225.222 293.305 225.266C293.408 225.31 293.518 225.332 293.63 225.33Z" fill="white"/>
<path opacity="0.5" d="M332.66 267.72H278.56C278.325 267.73 278.1 267.822 277.926 267.982C277.752 268.141 277.64 268.356 277.61 268.59C277.599 268.701 277.611 268.813 277.646 268.919C277.682 269.025 277.739 269.123 277.814 269.205C277.89 269.287 277.982 269.352 278.085 269.396C278.188 269.44 278.298 269.462 278.41 269.46H332.51C332.746 269.45 332.97 269.358 333.144 269.198C333.318 269.039 333.43 268.824 333.46 268.59C333.471 268.479 333.459 268.367 333.424 268.261C333.389 268.155 333.331 268.057 333.256 267.975C333.18 267.893 333.088 267.828 332.985 267.784C332.883 267.74 332.772 267.718 332.66 267.72V267.72Z" fill="white"/>
<path d="M344.54 267.72H337.85C337.606 267.718 337.369 267.805 337.185 267.966C337.001 268.126 336.882 268.348 336.85 268.59C336.839 268.701 336.851 268.813 336.886 268.919C336.922 269.025 336.979 269.123 337.054 269.205C337.13 269.287 337.222 269.352 337.325 269.396C337.428 269.44 337.538 269.462 337.65 269.46H344.34C344.575 269.45 344.8 269.358 344.974 269.198C345.148 269.039 345.26 268.824 345.29 268.59C345.301 268.483 345.29 268.375 345.258 268.272C345.226 268.17 345.173 268.075 345.103 267.993C345.032 267.912 344.946 267.846 344.849 267.799C344.753 267.752 344.647 267.725 344.54 267.72V267.72Z" fill="white"/>
<path d="M295.19 263.94H317C317.236 263.93 317.46 263.838 317.634 263.678C317.808 263.519 317.92 263.304 317.95 263.07C317.961 262.959 317.949 262.847 317.914 262.741C317.879 262.635 317.821 262.537 317.746 262.455C317.67 262.373 317.578 262.308 317.475 262.264C317.373 262.22 317.262 262.198 317.15 262.2H295.34C295.105 262.21 294.88 262.302 294.706 262.462C294.533 262.621 294.42 262.836 294.39 263.07C294.379 263.181 294.391 263.293 294.426 263.399C294.462 263.505 294.519 263.603 294.594 263.685C294.67 263.767 294.762 263.832 294.865 263.876C294.968 263.92 295.078 263.942 295.19 263.94V263.94Z" fill="white"/>
<path opacity="0.5" d="M333 263.94C333.235 263.93 333.46 263.838 333.634 263.678C333.808 263.519 333.92 263.304 333.95 263.07C333.961 262.958 333.949 262.845 333.913 262.738C333.877 262.632 333.819 262.534 333.742 262.451C333.666 262.369 333.572 262.304 333.468 262.261C333.364 262.217 333.253 262.197 333.14 262.2H320.77C320.534 262.21 320.31 262.302 320.136 262.462C319.962 262.621 319.85 262.836 319.82 263.07C319.809 263.181 319.821 263.293 319.856 263.399C319.891 263.505 319.949 263.603 320.024 263.685C320.1 263.767 320.192 263.832 320.295 263.876C320.397 263.92 320.508 263.942 320.62 263.94H333Z" fill="white"/>
<path opacity="0.5" d="M345 262.2H338.42C338.184 262.21 337.96 262.302 337.786 262.462C337.612 262.621 337.5 262.836 337.47 263.07C337.459 263.181 337.471 263.293 337.506 263.399C337.541 263.505 337.599 263.603 337.674 263.685C337.75 263.767 337.842 263.832 337.945 263.876C338.047 263.92 338.158 263.942 338.27 263.94H344.85C345.085 263.93 345.31 263.838 345.484 263.678C345.657 263.519 345.769 263.304 345.8 263.07C345.811 262.959 345.799 262.847 345.764 262.741C345.728 262.635 345.671 262.537 345.595 262.455C345.52 262.373 345.428 262.308 345.325 262.264C345.222 262.22 345.112 262.198 345 262.2V262.2Z" fill="white"/>
<path d="M333.68 256.69H304.55C304.315 256.7 304.09 256.792 303.916 256.952C303.742 257.111 303.63 257.326 303.6 257.56C303.589 257.671 303.601 257.783 303.636 257.889C303.672 257.995 303.729 258.093 303.804 258.175C303.88 258.257 303.972 258.322 304.075 258.366C304.178 258.41 304.288 258.432 304.4 258.43H333.53C333.774 258.432 334.011 258.345 334.195 258.184C334.379 258.024 334.498 257.802 334.53 257.56C334.542 257.444 334.529 257.328 334.491 257.218C334.452 257.108 334.391 257.008 334.309 256.925C334.228 256.842 334.13 256.778 334.021 256.737C333.912 256.697 333.796 256.681 333.68 256.69Z" fill="white"/>
<path d="M345.47 256.69H338.83C338.595 256.7 338.37 256.792 338.196 256.952C338.022 257.111 337.91 257.326 337.88 257.56C337.869 257.671 337.881 257.783 337.916 257.889C337.952 257.995 338.009 258.093 338.084 258.175C338.16 258.257 338.252 258.322 338.355 258.366C338.458 258.41 338.568 258.432 338.68 258.43H345.33C345.564 258.418 345.786 258.324 345.958 258.165C346.129 258.006 346.24 257.792 346.27 257.56C346.281 257.449 346.269 257.337 346.234 257.231C346.199 257.125 346.141 257.027 346.066 256.945C345.99 256.863 345.898 256.798 345.795 256.754C345.693 256.71 345.582 256.688 345.47 256.69V256.69Z" fill="white"/>
<path opacity="0.5" d="M318 252C318.013 251.889 318.002 251.776 317.967 251.669C317.933 251.562 317.875 251.464 317.799 251.382C317.723 251.299 317.631 251.234 317.527 251.19C317.424 251.147 317.312 251.126 317.2 251.13H287.53C287.295 251.14 287.07 251.232 286.896 251.392C286.722 251.551 286.61 251.766 286.58 252C286.569 252.111 286.581 252.223 286.616 252.329C286.652 252.435 286.709 252.533 286.784 252.615C286.86 252.697 286.952 252.762 287.055 252.806C287.158 252.85 287.268 252.872 287.38 252.87H317.08C317.31 252.853 317.528 252.758 317.695 252.599C317.863 252.441 317.971 252.229 318 252V252Z" fill="white"/>
<path opacity="0.5" d="M322.61 251.17C322.375 251.18 322.15 251.272 321.976 251.432C321.803 251.591 321.691 251.806 321.66 252.04C321.649 252.151 321.661 252.263 321.696 252.369C321.732 252.475 321.789 252.573 321.864 252.655C321.94 252.737 322.032 252.802 322.135 252.846C322.238 252.89 322.348 252.912 322.46 252.91H334C334.236 252.9 334.46 252.808 334.634 252.648C334.808 252.489 334.92 252.274 334.95 252.04C334.961 251.929 334.949 251.817 334.914 251.711C334.879 251.605 334.821 251.507 334.746 251.425C334.67 251.343 334.578 251.278 334.475 251.234C334.373 251.19 334.262 251.168 334.15 251.17H322.61Z" fill="white"/>
<path d="M345.94 251.17H339.37C339.135 251.18 338.91 251.272 338.736 251.432C338.563 251.591 338.451 251.806 338.42 252.04C338.409 252.151 338.421 252.263 338.456 252.369C338.492 252.475 338.549 252.573 338.624 252.655C338.7 252.737 338.792 252.802 338.895 252.846C338.998 252.89 339.108 252.912 339.22 252.91H345.79C346.026 252.9 346.25 252.808 346.424 252.648C346.598 252.489 346.71 252.274 346.74 252.04C346.751 251.929 346.739 251.817 346.704 251.711C346.669 251.605 346.611 251.507 346.536 251.425C346.46 251.343 346.368 251.278 346.265 251.234C346.163 251.19 346.052 251.168 345.94 251.17V251.17Z" fill="white"/>
<path d="M324.57 247.4H330.28C330.524 247.402 330.761 247.315 330.945 247.154C331.129 246.994 331.248 246.772 331.28 246.53C331.293 246.418 331.282 246.305 331.247 246.198C331.213 246.09 331.155 245.992 331.08 245.908C331.004 245.825 330.911 245.759 330.808 245.714C330.704 245.67 330.593 245.648 330.48 245.65H324.76C324.523 245.66 324.297 245.754 324.123 245.915C323.949 246.077 323.838 246.294 323.81 246.53C323.799 246.638 323.81 246.747 323.843 246.85C323.876 246.953 323.93 247.049 324.001 247.13C324.072 247.212 324.16 247.278 324.257 247.324C324.355 247.371 324.462 247.396 324.57 247.4Z" fill="white"/>
<path opacity="0.5" d="M334.35 247.4H346.26C346.495 247.39 346.72 247.298 346.894 247.138C347.068 246.979 347.18 246.764 347.21 246.53C347.223 246.418 347.212 246.305 347.177 246.198C347.143 246.09 347.085 245.992 347.01 245.908C346.934 245.825 346.841 245.759 346.738 245.714C346.634 245.67 346.523 245.648 346.41 245.65H334.5C334.263 245.66 334.037 245.754 333.863 245.915C333.689 246.077 333.578 246.294 333.55 246.53C333.539 246.641 333.551 246.753 333.586 246.859C333.621 246.965 333.679 247.063 333.754 247.145C333.83 247.227 333.922 247.292 334.025 247.336C334.127 247.38 334.238 247.402 334.35 247.4Z" fill="white"/>
<path d="M260.17 153.76C260.277 153.847 260.412 153.893 260.55 153.89C260.655 153.889 260.759 153.866 260.854 153.821C260.949 153.776 261.033 153.711 261.1 153.63C261.157 153.566 261.2 153.491 261.228 153.41C261.256 153.329 261.267 153.243 261.261 153.157C261.256 153.072 261.233 152.988 261.195 152.912C261.157 152.835 261.105 152.766 261.04 152.71L259.22 151.29L261.22 149.87C261.368 149.777 261.474 149.63 261.515 149.46C261.557 149.29 261.53 149.11 261.44 148.96C261.391 148.89 261.327 148.83 261.254 148.785C261.181 148.74 261.1 148.71 261.015 148.697C260.93 148.684 260.843 148.688 260.76 148.709C260.677 148.73 260.599 148.768 260.53 148.82L257.72 150.82C257.633 150.88 257.559 150.959 257.506 151.05C257.452 151.142 257.42 151.244 257.41 151.35C257.401 151.448 257.417 151.547 257.455 151.637C257.494 151.728 257.554 151.808 257.63 151.87L260.17 153.76Z" fill="white"/>
<path d="M269.25 151.28L267.2 152.71C267.053 152.805 266.949 152.952 266.91 153.122C266.871 153.292 266.9 153.471 266.99 153.62C267.042 153.705 267.116 153.774 267.204 153.822C267.292 153.869 267.39 153.893 267.49 153.89C267.634 153.891 267.774 153.846 267.89 153.76L270.71 151.81C270.796 151.749 270.868 151.669 270.922 151.578C270.975 151.487 271.009 151.385 271.02 151.28C271.028 151.181 271.011 151.082 270.97 150.991C270.93 150.9 270.868 150.821 270.79 150.76L268.31 148.81C268.167 148.709 267.99 148.667 267.817 148.693C267.644 148.719 267.487 148.811 267.38 148.95C267.323 149.014 267.28 149.089 267.252 149.17C267.224 149.251 267.213 149.337 267.219 149.422C267.224 149.508 267.247 149.592 267.285 149.668C267.323 149.745 267.375 149.814 267.44 149.87L269.25 151.28Z" fill="white"/>
<path d="M263.11 153.85C263.183 153.865 263.257 153.865 263.33 153.85C263.469 153.847 263.605 153.804 263.72 153.726C263.836 153.648 263.926 153.538 263.98 153.41L265.69 149.52C265.727 149.445 265.749 149.362 265.752 149.278C265.756 149.194 265.741 149.11 265.71 149.031C265.679 148.953 265.632 148.882 265.571 148.823C265.511 148.765 265.439 148.719 265.36 148.69C265.192 148.635 265.011 148.645 264.85 148.717C264.689 148.789 264.561 148.919 264.49 149.08L262.78 152.98C262.735 153.057 262.708 153.143 262.701 153.232C262.694 153.321 262.707 153.41 262.738 153.493C262.77 153.577 262.82 153.652 262.884 153.714C262.948 153.775 263.025 153.822 263.11 153.85V153.85Z" fill="white"/>
<path opacity="0.5" d="M274 154.11H277.45C277.686 154.1 277.91 154.008 278.084 153.848C278.258 153.689 278.37 153.474 278.4 153.24C278.411 153.129 278.399 153.017 278.364 152.911C278.329 152.805 278.271 152.707 278.196 152.625C278.12 152.543 278.028 152.478 277.925 152.434C277.823 152.39 277.712 152.368 277.6 152.37H274.14C273.906 152.382 273.684 152.476 273.513 152.635C273.341 152.794 273.23 153.008 273.2 153.24C273.187 153.351 273.198 153.464 273.233 153.571C273.267 153.678 273.325 153.776 273.401 153.858C273.477 153.941 273.569 154.006 273.673 154.05C273.776 154.093 273.888 154.114 274 154.11V154.11Z" fill="white"/>
<path opacity="0.5" d="M318.29 161H323C323.234 160.988 323.456 160.894 323.628 160.735C323.799 160.576 323.91 160.362 323.94 160.13C323.953 160.019 323.942 159.906 323.907 159.799C323.873 159.692 323.815 159.594 323.739 159.512C323.663 159.429 323.571 159.364 323.467 159.32C323.364 159.277 323.252 159.256 323.14 159.26H318.47C318.234 159.27 318.01 159.362 317.836 159.522C317.662 159.681 317.55 159.896 317.52 160.13C317.509 160.239 317.52 160.348 317.554 160.452C317.587 160.556 317.642 160.652 317.714 160.734C317.787 160.815 317.875 160.881 317.974 160.927C318.073 160.973 318.181 160.998 318.29 161V161Z" fill="white"/>
<path d="M267.77 160.15C267.759 160.261 267.771 160.373 267.806 160.479C267.841 160.585 267.899 160.683 267.974 160.765C268.05 160.847 268.142 160.912 268.245 160.956C268.347 161 268.458 161.022 268.57 161.02H312.28C312.524 161.022 312.761 160.935 312.945 160.774C313.129 160.614 313.248 160.392 313.28 160.15C313.291 160.039 313.279 159.927 313.244 159.821C313.208 159.715 313.151 159.617 313.076 159.535C313 159.453 312.908 159.388 312.805 159.344C312.702 159.3 312.592 159.278 312.48 159.28H268.71C268.476 159.292 268.254 159.386 268.082 159.545C267.911 159.704 267.8 159.918 267.77 160.15Z" fill="white"/>
<path opacity="0.5" d="M256.69 161H263.37C263.605 160.99 263.83 160.898 264.004 160.738C264.178 160.579 264.29 160.364 264.32 160.13C264.331 160.019 264.319 159.907 264.284 159.801C264.249 159.695 264.191 159.597 264.116 159.515C264.04 159.433 263.948 159.368 263.845 159.324C263.743 159.28 263.632 159.258 263.52 159.26H256.83C256.596 159.272 256.374 159.366 256.202 159.525C256.031 159.684 255.92 159.898 255.89 160.13C255.877 160.241 255.888 160.354 255.923 160.461C255.957 160.568 256.015 160.666 256.091 160.748C256.167 160.831 256.259 160.896 256.363 160.94C256.466 160.983 256.578 161.004 256.69 161Z" fill="white"/>
<path d="M301.52 166.53C301.764 166.532 302.001 166.445 302.185 166.284C302.369 166.124 302.488 165.902 302.52 165.66C302.531 165.548 302.519 165.435 302.483 165.328C302.447 165.221 302.389 165.124 302.312 165.041C302.236 164.959 302.142 164.894 302.038 164.851C301.934 164.807 301.823 164.787 301.71 164.79H284.31C284.075 164.8 283.85 164.892 283.676 165.052C283.502 165.211 283.39 165.426 283.36 165.66C283.349 165.771 283.361 165.883 283.396 165.989C283.432 166.095 283.489 166.193 283.564 166.275C283.64 166.357 283.732 166.422 283.835 166.466C283.938 166.51 284.048 166.532 284.16 166.53H301.52Z" fill="white"/>
<path d="M268.1 166.53H280.45C280.685 166.52 280.91 166.428 281.084 166.268C281.258 166.109 281.37 165.894 281.4 165.66C281.411 165.549 281.399 165.437 281.364 165.331C281.328 165.225 281.271 165.127 281.196 165.045C281.12 164.963 281.028 164.898 280.925 164.854C280.822 164.81 280.712 164.788 280.6 164.79H268.25C268.014 164.8 267.79 164.892 267.616 165.052C267.442 165.211 267.33 165.426 267.3 165.66C267.289 165.771 267.301 165.883 267.336 165.989C267.371 166.095 267.429 166.193 267.504 166.275C267.58 166.357 267.672 166.422 267.775 166.466C267.877 166.51 267.988 166.532 268.1 166.53V166.53Z" fill="white"/>
<path opacity="0.5" d="M256.22 166.53H262.79C263.026 166.52 263.25 166.428 263.424 166.268C263.598 166.109 263.71 165.894 263.74 165.66C263.751 165.549 263.739 165.437 263.704 165.331C263.669 165.225 263.611 165.127 263.536 165.045C263.46 164.963 263.368 164.898 263.265 164.854C263.163 164.81 263.052 164.788 262.94 164.79H256.37C256.126 164.788 255.889 164.875 255.705 165.036C255.521 165.196 255.402 165.418 255.37 165.66C255.358 165.775 255.371 165.892 255.41 166.002C255.448 166.112 255.509 166.212 255.591 166.295C255.672 166.378 255.77 166.442 255.879 166.483C255.988 166.523 256.104 166.539 256.22 166.53V166.53Z" fill="white"/>
<path d="M293.26 171.18C293.271 171.069 293.259 170.957 293.224 170.851C293.188 170.745 293.131 170.647 293.056 170.565C292.98 170.483 292.888 170.418 292.785 170.374C292.682 170.33 292.572 170.308 292.46 170.31H267.69C267.456 170.322 267.234 170.416 267.062 170.575C266.891 170.734 266.78 170.948 266.75 171.18C266.739 171.291 266.751 171.403 266.786 171.509C266.821 171.615 266.879 171.713 266.954 171.795C267.03 171.877 267.122 171.942 267.225 171.986C267.327 172.03 267.438 172.052 267.55 172.05H292.31C292.545 172.04 292.77 171.948 292.944 171.788C293.117 171.629 293.23 171.414 293.26 171.18V171.18Z" fill="white"/>
<path opacity="0.5" d="M255.75 172.05H262.4C262.644 172.052 262.881 171.965 263.065 171.804C263.249 171.644 263.368 171.422 263.4 171.18C263.411 171.069 263.399 170.957 263.364 170.851C263.329 170.745 263.271 170.647 263.196 170.565C263.12 170.483 263.028 170.418 262.925 170.374C262.823 170.33 262.712 170.308 262.6 170.31H255.9C255.656 170.308 255.419 170.395 255.235 170.556C255.051 170.716 254.932 170.938 254.9 171.18C254.888 171.296 254.901 171.412 254.94 171.522C254.978 171.632 255.04 171.732 255.121 171.815C255.202 171.898 255.3 171.962 255.409 172.003C255.518 172.043 255.634 172.059 255.75 172.05V172.05Z" fill="white"/>
<path d="M284 177.57H309.33C309.565 177.558 309.788 177.462 309.96 177.301C310.132 177.14 310.242 176.924 310.27 176.69C310.283 176.579 310.272 176.466 310.237 176.359C310.203 176.252 310.145 176.154 310.069 176.072C309.993 175.989 309.901 175.924 309.797 175.88C309.694 175.837 309.582 175.816 309.47 175.82H284.15C283.914 175.83 283.69 175.922 283.516 176.082C283.342 176.241 283.23 176.456 283.2 176.69C283.187 176.802 283.198 176.915 283.233 177.022C283.267 177.13 283.325 177.228 283.4 177.312C283.476 177.395 283.569 177.461 283.672 177.506C283.776 177.55 283.887 177.572 284 177.57V177.57Z" fill="white"/>
<path d="M267.24 175.82C267.006 175.832 266.784 175.926 266.612 176.085C266.441 176.244 266.33 176.458 266.3 176.69C266.285 176.802 266.295 176.916 266.329 177.024C266.363 177.132 266.42 177.231 266.496 177.315C266.572 177.399 266.666 177.465 266.77 177.509C266.874 177.553 266.987 177.574 267.1 177.57H278.62C278.855 177.558 279.078 177.462 279.25 177.301C279.422 177.14 279.532 176.924 279.56 176.69C279.571 176.579 279.559 176.467 279.524 176.361C279.488 176.255 279.431 176.157 279.356 176.075C279.28 175.993 279.188 175.928 279.085 175.884C278.982 175.84 278.872 175.818 278.76 175.82H267.24Z" fill="white"/>
<path opacity="0.5" d="M255.29 177.57H261.86C262.095 177.558 262.318 177.462 262.49 177.301C262.662 177.14 262.772 176.924 262.8 176.69C262.811 176.579 262.799 176.467 262.764 176.361C262.728 176.255 262.671 176.157 262.595 176.075C262.52 175.993 262.428 175.928 262.325 175.884C262.222 175.84 262.112 175.818 262 175.82H255.43C255.196 175.832 254.974 175.926 254.802 176.085C254.631 176.244 254.52 176.458 254.49 176.69C254.475 176.802 254.485 176.916 254.519 177.024C254.553 177.132 254.61 177.231 254.686 177.315C254.762 177.399 254.856 177.465 254.96 177.509C255.064 177.553 255.177 177.574 255.29 177.57V177.57Z" fill="white"/>
<path d="M276.66 181.34H271C270.764 181.35 270.54 181.442 270.366 181.602C270.192 181.761 270.08 181.976 270.05 182.21C270.039 182.321 270.051 182.433 270.086 182.539C270.121 182.645 270.179 182.743 270.254 182.825C270.33 182.907 270.422 182.972 270.525 183.016C270.627 183.06 270.738 183.082 270.85 183.08H276.56C276.795 183.07 277.02 182.978 277.194 182.818C277.368 182.659 277.48 182.444 277.51 182.21C277.522 182.095 277.509 181.978 277.471 181.868C277.432 181.758 277.371 181.658 277.289 181.575C277.208 181.492 277.11 181.428 277.001 181.387C276.892 181.347 276.776 181.331 276.66 181.34V181.34Z" fill="white"/>
<path d="M266.88 181.34H255C254.764 181.35 254.54 181.442 254.366 181.602C254.192 181.761 254.08 181.976 254.05 182.21C254.039 182.321 254.051 182.433 254.086 182.539C254.121 182.645 254.179 182.743 254.254 182.825C254.33 182.907 254.422 182.972 254.525 183.016C254.627 183.06 254.738 183.082 254.85 183.08H266.76C266.995 183.07 267.22 182.978 267.394 182.818C267.568 182.659 267.68 182.444 267.71 182.21C267.722 182.096 267.709 181.981 267.672 181.873C267.635 181.765 267.575 181.666 267.496 181.583C267.417 181.501 267.321 181.436 267.215 181.394C267.108 181.352 266.994 181.334 266.88 181.34Z" fill="white"/>
<path d="M303.81 187.73C303.799 187.841 303.811 187.953 303.846 188.059C303.881 188.165 303.939 188.263 304.014 188.345C304.09 188.427 304.182 188.492 304.285 188.536C304.388 188.58 304.498 188.602 304.61 188.6H351.23C351.465 188.59 351.69 188.498 351.864 188.338C352.038 188.179 352.15 187.964 352.18 187.73C352.193 187.618 352.182 187.505 352.147 187.398C352.113 187.29 352.055 187.192 351.98 187.108C351.904 187.025 351.811 186.959 351.708 186.914C351.604 186.87 351.493 186.848 351.38 186.85H304.76C304.523 186.86 304.297 186.954 304.123 187.115C303.949 187.277 303.838 187.494 303.81 187.73Z" fill="white"/>
<path opacity="0.5" d="M291.22 186.85C290.974 186.848 290.736 186.937 290.552 187.099C290.368 187.262 290.249 187.486 290.22 187.73C290.209 187.841 290.221 187.953 290.256 188.059C290.291 188.165 290.349 188.263 290.424 188.345C290.5 188.427 290.592 188.492 290.695 188.536C290.797 188.58 290.908 188.602 291.02 188.6H299.85C300.094 188.602 300.331 188.515 300.515 188.354C300.699 188.194 300.818 187.972 300.85 187.73C300.861 187.618 300.849 187.504 300.813 187.397C300.777 187.29 300.719 187.191 300.643 187.108C300.566 187.025 300.473 186.959 300.369 186.914C300.265 186.87 300.153 186.848 300.04 186.85H291.22Z" fill="white"/>
<path opacity="0.5" d="M350.91 192.37H339.56C339.325 192.38 339.1 192.472 338.926 192.632C338.752 192.791 338.64 193.006 338.61 193.24C338.599 193.351 338.611 193.463 338.646 193.569C338.682 193.675 338.739 193.773 338.814 193.855C338.89 193.937 338.982 194.002 339.085 194.046C339.188 194.09 339.298 194.112 339.41 194.11H350.77C351.004 194.098 351.226 194.004 351.398 193.845C351.569 193.686 351.68 193.472 351.71 193.24C351.721 193.129 351.709 193.017 351.674 192.911C351.639 192.805 351.581 192.707 351.506 192.625C351.43 192.543 351.338 192.478 351.235 192.434C351.133 192.39 351.022 192.368 350.91 192.37V192.37Z" fill="white"/>
<path d="M334.71 193.24C334.721 193.129 334.709 193.017 334.674 192.911C334.639 192.805 334.581 192.707 334.506 192.625C334.43 192.543 334.338 192.478 334.235 192.434C334.133 192.39 334.022 192.368 333.91 192.37H286.38C286.145 192.38 285.92 192.472 285.746 192.632C285.573 192.791 285.461 193.006 285.43 193.24C285.419 193.351 285.431 193.463 285.466 193.569C285.502 193.675 285.559 193.773 285.635 193.855C285.71 193.937 285.802 194.002 285.905 194.046C286.008 194.09 286.118 194.112 286.23 194.11H333.77C334.004 194.098 334.226 194.004 334.398 193.845C334.569 193.686 334.68 193.472 334.71 193.24V193.24Z" fill="white"/>
<path d="M350.45 197.89H329.86C329.625 197.9 329.4 197.992 329.226 198.152C329.053 198.311 328.941 198.526 328.91 198.76C328.899 198.871 328.911 198.983 328.946 199.089C328.982 199.195 329.039 199.293 329.114 199.375C329.19 199.457 329.282 199.522 329.385 199.566C329.488 199.61 329.598 199.632 329.71 199.63H350.3C350.536 199.62 350.76 199.528 350.934 199.368C351.108 199.209 351.22 198.994 351.25 198.76C351.261 198.649 351.249 198.537 351.214 198.431C351.179 198.325 351.121 198.227 351.046 198.145C350.97 198.063 350.878 197.998 350.775 197.954C350.673 197.91 350.562 197.888 350.45 197.89Z" fill="white"/>
<path opacity="0.5" d="M320 197.89C319.764 197.9 319.54 197.992 319.366 198.152C319.192 198.311 319.08 198.526 319.05 198.76C319.039 198.871 319.051 198.983 319.086 199.089C319.121 199.195 319.179 199.293 319.254 199.375C319.33 199.457 319.422 199.522 319.525 199.566C319.627 199.61 319.738 199.632 319.85 199.63H325C325.234 199.618 325.456 199.524 325.628 199.365C325.799 199.206 325.91 198.992 325.94 198.76C325.951 198.649 325.939 198.537 325.904 198.431C325.868 198.325 325.811 198.227 325.736 198.145C325.66 198.063 325.568 197.998 325.465 197.954C325.362 197.91 325.252 197.888 325.14 197.89H320Z" fill="white"/>
<path d="M350 203.4H309.05C308.816 203.412 308.594 203.506 308.422 203.665C308.251 203.824 308.14 204.038 308.11 204.27C308.099 204.381 308.111 204.493 308.146 204.599C308.182 204.705 308.239 204.803 308.314 204.885C308.39 204.967 308.482 205.032 308.585 205.076C308.688 205.12 308.798 205.142 308.91 205.14H349.83C350.066 205.13 350.29 205.038 350.464 204.878C350.638 204.719 350.75 204.504 350.78 204.27C350.791 204.161 350.779 204.05 350.745 203.945C350.711 203.841 350.656 203.745 350.582 203.663C350.509 203.581 350.419 203.515 350.319 203.47C350.219 203.425 350.11 203.401 350 203.4V203.4Z" fill="white"/>
<path d="M291 203.4H276.71C276.474 203.41 276.25 203.502 276.076 203.662C275.902 203.821 275.79 204.036 275.76 204.27C275.749 204.381 275.761 204.493 275.796 204.599C275.831 204.705 275.889 204.803 275.964 204.885C276.04 204.967 276.132 205.032 276.235 205.076C276.337 205.12 276.448 205.142 276.56 205.14H290.84C291.084 205.142 291.321 205.055 291.505 204.894C291.689 204.734 291.808 204.512 291.84 204.27C291.852 204.155 291.839 204.04 291.801 203.931C291.763 203.822 291.703 203.722 291.623 203.639C291.542 203.557 291.445 203.492 291.338 203.451C291.23 203.409 291.115 203.392 291 203.4V203.4Z" fill="white"/>
<path d="M344 320.43L338.62 380.93V381.14H233V380.93L244.42 252.35L250.22 253.87L278.51 261.24L280.08 261.65L282.01 262.15L284.39 262.77L285.87 263.16L304.82 268.1H304.94C306.32 268.46 307.67 268.87 308.99 269.33C319.505 273.001 328.572 279.936 334.869 289.123C341.165 298.31 344.361 309.269 343.99 320.4L344 320.43Z" fill="#56C0D8"/>
<path opacity="0.8" d="M344 320.43L338.62 380.93V381.14H233V380.93L244.42 252.35L250.22 253.87L278.51 261.24L280.08 261.65L282.01 262.15L284.39 262.77L285.87 263.16L304.82 268.1H304.94C306.32 268.46 307.67 268.87 308.99 269.33C319.505 273.001 328.572 279.936 334.869 289.123C341.165 298.31 344.361 309.269 343.99 320.4L344 320.43Z" fill="white"/>
<path opacity="0.6" d="M285.89 263.16H249.42L249.59 261.24L250.24 253.87L278.53 261.24L280.1 261.65L282.03 262.15L284.41 262.77L285.89 263.16Z" fill="black"/>
<path opacity="0.5" d="M285.89 263.16H249.42L249.59 261.24H278.53L280.1 261.65L282.03 262.15L284.41 262.77L285.89 263.16Z" fill="black"/>
<path opacity="0.6" d="M282.03 262.15L281.94 263.16H249.42L249.59 261.24H278.53L280.1 261.65L282.03 262.15Z" fill="white"/>
<path d="M284.41 262.77C284.37 262.905 284.316 263.036 284.25 263.16C284.039 263.569 283.721 263.913 283.33 264.156C282.939 264.399 282.49 264.532 282.03 264.54C281.591 264.561 281.158 264.438 280.796 264.189C280.435 263.939 280.166 263.578 280.03 263.16C279.927 262.872 279.89 262.564 279.92 262.26C279.941 262.052 279.988 261.847 280.06 261.65L281.99 262.15L284.41 262.77Z" fill="white"/>
<path opacity="0.4" d="M296.18 277.26H250C249.769 277.266 249.54 277.222 249.327 277.131C249.115 277.041 248.924 276.906 248.769 276.735C248.613 276.564 248.496 276.362 248.425 276.142C248.355 275.922 248.333 275.689 248.36 275.46V275.46C248.412 274.967 248.646 274.51 249.015 274.18C249.385 273.849 249.864 273.667 250.36 273.67H296.5C296.729 273.666 296.957 273.711 297.168 273.801C297.379 273.892 297.568 274.026 297.723 274.195C297.878 274.365 297.996 274.565 298.068 274.783C298.139 275.001 298.164 275.232 298.14 275.46V275.46C298.091 275.948 297.864 276.401 297.503 276.733C297.141 277.065 296.671 277.253 296.18 277.26V277.26Z" fill="#56C0D8"/>
<path opacity="0.4" d="M309 269.9C308.948 270.393 308.714 270.85 308.345 271.18C307.975 271.511 307.496 271.693 307 271.69H250.46C250.231 271.694 250.003 271.649 249.792 271.559C249.581 271.468 249.392 271.334 249.237 271.165C249.081 270.995 248.964 270.795 248.892 270.577C248.821 270.359 248.796 270.128 248.82 269.9C248.87 269.405 249.102 268.946 249.472 268.613C249.842 268.281 250.322 268.098 250.82 268.1H304.88H305C306.38 268.46 307.73 268.87 309.05 269.33C309.062 269.521 309.045 269.714 309 269.9V269.9Z" fill="#56C0D8"/>
<path opacity="0.3" d="M340.1 298.81L337.52 327.87H243.67L247.29 287.15H333.45C336.16 290.734 338.395 294.653 340.1 298.81V298.81Z" fill="#56C0D8"/>
<path opacity="0.5" d="M309.48 294.24H302.12C301.911 294.244 301.704 294.204 301.512 294.121C301.32 294.039 301.147 293.916 301.006 293.762C300.865 293.608 300.759 293.425 300.694 293.227C300.629 293.028 300.607 292.818 300.63 292.61V292.61C300.676 292.168 300.883 291.758 301.211 291.458C301.539 291.157 301.966 290.987 302.41 290.98H309.77C309.979 290.976 310.186 291.016 310.377 291.099C310.569 291.181 310.741 291.304 310.881 291.458C311.021 291.613 311.127 291.795 311.19 291.994C311.254 292.193 311.274 292.403 311.25 292.61V292.61C311.206 293.051 311.001 293.461 310.675 293.762C310.349 294.062 309.924 294.232 309.48 294.24V294.24Z" fill="white"/>
<path opacity="0.5" d="M329.82 299.47H301.65C301.442 299.474 301.234 299.434 301.043 299.351C300.851 299.269 300.679 299.146 300.539 298.992C300.399 298.837 300.293 298.655 300.23 298.456C300.166 298.257 300.146 298.047 300.17 297.84C300.216 297.4 300.422 296.993 300.748 296.695C301.074 296.396 301.498 296.227 301.94 296.22H330.11C330.318 296.216 330.525 296.256 330.716 296.338C330.907 296.42 331.079 296.541 331.22 296.695C331.361 296.848 331.467 297.029 331.533 297.226C331.598 297.424 331.621 297.633 331.6 297.84V297.84C331.554 298.282 331.347 298.692 331.019 298.992C330.691 299.293 330.265 299.463 329.82 299.47V299.47Z" fill="white"/>
<path opacity="0.3" d="M291.1 324.04H248.44L251.38 290.98H294.03L291.1 324.04Z" fill="#56C0D8"/>
<path opacity="0.5" d="M249.09 316.75L261.66 307.51L268.25 312.73L282.18 302.76L292.15 312.18L291.1 324.04H248.44L249.09 316.75Z" fill="white"/>
<path opacity="0.5" d="M263.37 298.77C263.293 299.703 262.879 300.576 262.206 301.225C261.532 301.875 260.645 302.257 259.71 302.3C259.272 302.293 258.84 302.193 258.443 302.006C258.046 301.819 257.694 301.549 257.41 301.215C257.126 300.881 256.917 300.49 256.796 300.068C256.675 299.646 256.646 299.204 256.71 298.77C256.789 297.838 257.204 296.966 257.877 296.317C258.55 295.668 259.436 295.285 260.37 295.24C260.809 295.245 261.242 295.344 261.639 295.531C262.037 295.717 262.39 295.987 262.674 296.322C262.958 296.656 263.168 297.048 263.288 297.47C263.408 297.893 263.436 298.336 263.37 298.77Z" fill="white"/>
<path opacity="0.3" d="M333.44 373.88H239.58L243.2 333.15H337.06L333.44 373.88Z" fill="#56C0D8"/>
<path opacity="0.5" d="M305.39 340.24H298C297.791 340.244 297.584 340.204 297.393 340.121C297.201 340.039 297.029 339.916 296.889 339.762C296.749 339.607 296.643 339.425 296.58 339.226C296.516 339.027 296.496 338.817 296.52 338.61C296.566 338.17 296.772 337.763 297.098 337.465C297.424 337.166 297.848 336.997 298.29 336.99H305.65C305.858 336.986 306.064 337.026 306.255 337.108C306.445 337.19 306.617 337.312 306.757 337.465C306.897 337.618 307.003 337.8 307.067 337.997C307.131 338.195 307.153 338.404 307.13 338.61V338.61C307.087 339.046 306.886 339.452 306.566 339.752C306.246 340.052 305.828 340.225 305.39 340.24V340.24Z" fill="white"/>
<path opacity="0.5" d="M325.73 345.48H297.57C297.361 345.484 297.154 345.444 296.962 345.361C296.77 345.279 296.597 345.156 296.456 345.002C296.315 344.848 296.209 344.665 296.144 344.467C296.079 344.268 296.057 344.058 296.08 343.85V343.85C296.126 343.408 296.333 342.998 296.661 342.698C296.989 342.397 297.415 342.227 297.86 342.22H326C326.209 342.216 326.416 342.256 326.608 342.339C326.801 342.421 326.973 342.544 327.114 342.698C327.255 342.852 327.361 343.035 327.426 343.233C327.491 343.432 327.513 343.642 327.49 343.85C327.444 344.289 327.24 344.696 326.917 344.996C326.593 345.296 326.171 345.468 325.73 345.48V345.48Z" fill="white"/>
<path opacity="0.3" d="M287.01 370.04H244.35L247.29 336.99H289.95L287.01 370.04Z" fill="#56C0D8"/>
<path opacity="0.5" d="M245 362.75L257.57 353.51L264.17 358.73L278.09 348.76L288.06 358.19L287.01 370.04H244.35L245 362.75Z" fill="white"/>
<path opacity="0.5" d="M259.29 344.77C259.211 345.702 258.796 346.574 258.123 347.223C257.45 347.872 256.564 348.255 255.63 348.3C255.191 348.295 254.758 348.196 254.361 348.009C253.963 347.823 253.61 347.553 253.326 347.218C253.042 346.884 252.832 346.492 252.712 346.07C252.592 345.647 252.564 345.204 252.63 344.77C252.707 343.838 253.121 342.967 253.795 342.319C254.469 341.671 255.356 341.291 256.29 341.25C256.728 341.255 257.16 341.354 257.557 341.54C257.953 341.726 258.305 341.995 258.59 342.328C258.874 342.662 259.083 343.052 259.204 343.473C259.325 343.895 259.354 344.337 259.29 344.77Z" fill="white"/>
<path opacity="0.2" d="M324 278.76C296.32 264.94 252.52 292.14 251.24 292.61C246.83 294.25 241.7 292.05 237.06 288.74L240.66 247.53L242.76 247.4C242.76 247.4 302.15 262 324 278.76Z" fill="black"/>
<path d="M179.52 234.62C179.52 234.62 185.92 238.47 189.39 240.14C191.39 241.07 198.71 239.72 204.65 243.53C210.38 247.2 209.74 250.89 212.16 254.15C219.49 264.03 235.16 263.71 235.16 263.71C235.16 263.71 301.86 251.17 336.07 291C336.07 291 310.75 241.59 179.52 234.62Z" fill="#56C0D8"/>
<path opacity="0.4" d="M179.52 234.62C179.52 234.62 185.92 238.47 189.39 240.14C191.39 241.07 198.71 239.72 204.65 243.53C210.38 247.2 209.74 250.89 212.16 254.15C219.49 264.03 235.16 263.71 235.16 263.71C235.16 263.71 301.86 251.17 336.07 291C336.07 291 310.75 241.59 179.52 234.62Z" fill="white"/>
<path d="M185.49 239.39C186.554 238.23 187.788 237.239 189.15 236.45C190.665 235.85 192.271 235.511 193.9 235.45L194.67 240.7C193.47 241.643 192.189 242.476 190.84 243.19C189.49 243.76 186.43 243.5 186.43 243.5L185.49 239.39Z" fill="#EBB376"/>
<path d="M154.76 227.45C154.76 227.45 161.63 237.33 164.24 239.05C166.85 240.77 185.49 239.39 185.49 239.39L186.43 243.45C186.43 243.45 167.31 246.94 163.29 244.8C159.27 242.66 149.2 231.51 149.2 231.51L154.76 227.45Z" fill="#EBB376"/>
<path opacity="0.2" d="M185.49 239.39C186.554 238.23 187.788 237.239 189.15 236.45C190.665 235.85 192.271 235.511 193.9 235.45L194.67 240.7C193.47 241.643 192.189 242.476 190.84 243.19C189.49 243.76 186.43 243.5 186.43 243.5L185.49 239.39Z" fill="black"/>
<path opacity="0.2" d="M154.76 227.45C154.76 227.45 161.63 237.33 164.24 239.05C166.85 240.77 185.49 239.39 185.49 239.39L186.43 243.45C186.43 243.45 167.31 246.94 163.29 244.8C159.27 242.66 149.2 231.51 149.2 231.51L154.76 227.45Z" fill="black"/>
<path d="M178.3 203.65C178.233 203.651 178.169 203.626 178.12 203.58C178.096 203.558 178.077 203.53 178.064 203.5C178.051 203.47 178.044 203.438 178.044 203.405C178.044 203.372 178.051 203.34 178.064 203.31C178.077 203.28 178.096 203.252 178.12 203.23C178.54 202.856 179.043 202.588 179.587 202.445C180.131 202.303 180.701 202.291 181.25 202.41C181.282 202.417 181.313 202.43 181.34 202.449C181.367 202.468 181.39 202.493 181.407 202.52C181.425 202.548 181.437 202.579 181.443 202.612C181.448 202.644 181.447 202.678 181.44 202.71C181.423 202.772 181.385 202.825 181.331 202.86C181.278 202.895 181.213 202.91 181.15 202.9C180.682 202.804 180.199 202.815 179.737 202.933C179.274 203.05 178.844 203.272 178.48 203.58C178.431 203.626 178.367 203.651 178.3 203.65V203.65Z" fill="#263238"/>
<path d="M179.59 206.83C180.03 207.844 180.591 208.801 181.26 209.68C181.048 209.932 180.771 210.121 180.458 210.225C180.146 210.33 179.811 210.345 179.49 210.27L179.59 206.83Z" fill="#D58745"/>
<path d="M180.87 205.13C180.87 205.67 180.52 206.13 180.16 206.07C179.8 206.01 179.54 205.59 179.57 205.07C179.6 204.55 179.92 204.12 180.28 204.14C180.64 204.16 180.9 204.6 180.87 205.13Z" fill="#263238"/>
<path d="M180.13 204.14L181.32 203.76C181.32 203.76 180.68 204.7 180.13 204.14Z" fill="#263238"/>
<path d="M164.94 215.11C164.993 215.18 165.057 215.241 165.13 215.29C166.028 216.2 167.099 216.921 168.28 217.41C171.74 218.73 174.28 218.58 176.07 217.18C178.64 215.06 179.79 210.84 180.19 205.61C180.419 203.537 180.318 201.441 179.89 199.4C179.89 199.4 179.89 199.32 179.89 199.3C179.89 199.28 179.89 199.14 179.89 199.07C179.597 197.919 179.022 196.86 178.218 195.987C177.413 195.114 176.403 194.455 175.28 194.07C174.309 193.711 173.304 193.453 172.28 193.3C162.11 191.77 158 208.27 164.94 215.11Z" fill="#EBB376"/>
<path opacity="0.2" d="M165.13 215.29C166.043 216.161 167.121 216.841 168.3 217.29C171.76 218.61 174.3 218.29 176.11 216.92C173.9 217.15 171.674 216.655 169.77 215.51C169.064 215.123 168.279 214.902 167.475 214.863C166.671 214.825 165.869 214.971 165.13 215.29Z" fill="black"/>
<path d="M168.6 190.09C168.6 190.09 175.6 189.31 178.97 192.55C182.9 196.33 184.1 199.84 178.22 204.23C178.22 204.23 167.37 198.98 163.49 199.23C161.22 199.376 158.965 199.711 156.75 200.23C157 192.62 165 188 168.6 190.09Z" fill="#263238"/>
<path d="M170.06 217.82C169.458 218.088 168.923 218.484 168.492 218.982C168.06 219.479 167.744 220.066 167.564 220.699C167.385 221.333 167.347 221.998 167.453 222.648C167.56 223.298 167.808 223.917 168.18 224.46L153.57 220.37C153.57 220.37 160.5 217.37 161.06 212.47C161.06 212.47 168.74 211.85 170.06 217.82Z" fill="#EBB376"/>
<path d="M170.06 191.77C170.06 191.77 168.34 180.29 159.51 180.56C150.68 180.83 149.62 190.05 155.15 194.01C160.68 197.97 169.4 198.49 170.06 191.77Z" fill="#263238"/>
<path d="M157.53 194.27C157.53 194.27 150.05 192.82 149.77 199.42C150.401 198.27 151.423 197.383 152.65 196.92C152.65 196.92 150.06 198.23 151.75 201.66C151.75 201.66 151.21 199.53 154.56 198.74C157.91 197.95 166.36 199.68 165.56 195.2C164.76 190.72 157.53 194.27 157.53 194.27Z" fill="#263238"/>
<path d="M168.74 191.75C168.708 191.749 168.676 191.741 168.647 191.727C168.617 191.713 168.591 191.693 168.57 191.669C168.548 191.645 168.532 191.616 168.521 191.586C168.511 191.555 168.507 191.522 168.51 191.49C168.51 191.42 168.79 184.81 165.17 181.23C164.266 180.379 163.188 179.736 162.01 179.344C160.833 178.952 159.584 178.821 158.35 178.96C158.285 178.963 158.222 178.94 158.174 178.897C158.125 178.855 158.095 178.795 158.09 178.73C158.087 178.664 158.109 178.6 158.152 178.55C158.195 178.5 158.255 178.468 158.32 178.46C159.624 178.314 160.944 178.455 162.188 178.873C163.432 179.291 164.569 179.976 165.52 180.88C169.3 184.61 169.02 191.24 169.01 191.52C169.008 191.553 168.999 191.585 168.984 191.614C168.969 191.644 168.948 191.67 168.923 191.691C168.898 191.713 168.869 191.729 168.837 191.739C168.806 191.749 168.773 191.753 168.74 191.75Z" fill="#263238"/>
<path d="M160.9 210.26C160.851 210.277 160.799 210.277 160.75 210.26C160.68 210.21 153.65 204.73 156.22 198.7C156.23 198.667 156.247 198.636 156.27 198.609C156.293 198.583 156.321 198.562 156.352 198.547C156.384 198.532 156.418 198.524 156.453 198.523C156.488 198.522 156.522 198.528 156.555 198.542C156.587 198.555 156.616 198.575 156.64 198.6C156.664 198.625 156.683 198.655 156.694 198.688C156.706 198.721 156.711 198.756 156.709 198.791C156.706 198.825 156.696 198.859 156.68 198.89C154.26 204.57 160.99 209.81 161.05 209.89C161.094 209.94 161.119 210.004 161.119 210.07C161.119 210.136 161.094 210.201 161.05 210.25C161.002 210.269 160.95 210.272 160.9 210.26V210.26Z" fill="#263238"/>
<path d="M148.56 197.54H148.48C148.418 197.519 148.367 197.475 148.337 197.418C148.307 197.36 148.301 197.292 148.32 197.23C149.82 192.57 156.73 193.93 156.8 193.94C156.866 193.954 156.923 193.994 156.96 194.05C156.998 194.106 157.012 194.174 157 194.24C156.993 194.272 156.979 194.303 156.96 194.33C156.942 194.357 156.917 194.38 156.89 194.398C156.862 194.415 156.831 194.427 156.798 194.433C156.765 194.438 156.732 194.437 156.7 194.43C156.64 194.43 150.16 193.15 148.8 197.43C148.774 197.469 148.738 197.5 148.696 197.519C148.653 197.539 148.606 197.546 148.56 197.54Z" fill="#263238"/>
<path d="M179.91 199.33C179.91 199.33 179.49 206.5 172.35 208.62C172.35 208.62 168.45 215.62 164.19 215.11C158.37 214.45 154.41 205.5 157.57 197.39C161.67 186.86 178.28 188.25 179.91 199.33Z" fill="#263238"/>
<path d="M176 207.05C176.15 205.94 175.52 203.96 173.77 203.98C172.02 204 170.36 208.25 174.6 209.83C175.24 210.06 175.72 209.36 176 207.05Z" fill="#EBB376"/>
<path d="M184.65 409.59L189.39 408.29C187.66 384.37 182.96 355.51 178.97 333.87C178.35 330.48 177.75 327.27 177.16 324.28C176.89 322.86 176.62 321.5 176.36 320.18C175.1 313.7 174.03 308.57 173.36 305.41C172.87 303.1 172.59 301.83 172.59 301.83L155.59 306.77L157.01 311.07L161.7 325.26L162.23 326.88L165.33 336.25L170.6 352.19C171.29 376.59 184.65 409.59 184.65 409.59Z" fill="#EBB376"/>
<path d="M143.29 408.43L148.19 407.96C150.75 382.02 150.85 349.72 150.5 327.28C150.44 323.8 150.38 320.55 150.31 317.61C150.31 317.46 150.31 317.32 150.31 317.18C150.16 311.33 150.01 306.69 149.9 303.75L149.76 300.18L132.11 302.18L133.21 309.52L134.81 320.31L135.13 322.42L136.23 329.78L139.18 349.49C135.74 373.63 143.29 408.43 143.29 408.43Z" fill="#EBB376"/>
<path opacity="0.2" d="M134.8 320.29L150.31 317.61C150.31 317.46 150.31 317.32 150.31 317.18C150.16 311.33 150.01 306.69 149.9 303.75L133.2 309.5L134.8 320.29Z" fill="black"/>
<path opacity="0.2" d="M175.08 313.7L158.76 316.47L156.97 311.07L173.36 305.41C173.79 307.42 174.38 310.24 175.08 313.7Z" fill="black"/>
<path d="M132.79 255.56C132.79 255.56 122.21 280.29 132.1 316.14L151.38 313.94V305.41L154.38 313.18L174.89 309.38C168.95 280.29 163.59 267.09 163.59 267.09L162.15 252.45L132.79 255.56Z" fill="#56C0D8"/>
<path d="M141 407.43C141 406.82 148.58 407.3 148.58 407.3C148.58 407.3 153.23 412.03 157.75 413.09C162.27 414.15 159.75 416.87 154.7 416.87H142.2C138.57 416.87 140.81 413.81 141 407.43Z" fill="#263238"/>
<path d="M152.52 409.23C151.426 409.083 150.366 408.745 149.39 408.23C149.362 408.216 149.338 408.195 149.32 408.17V408.17C149.305 408.121 149.305 408.069 149.32 408.02C149.32 407.94 149.99 406.18 151.01 405.75C151.167 405.678 151.338 405.641 151.51 405.641C151.683 405.641 151.853 405.678 152.01 405.75C152.35 405.91 152.52 406.13 152.51 406.38C152.5 406.63 151.95 407.18 151.33 407.51C151.903 407.412 152.491 407.474 153.03 407.69C153.129 407.744 153.216 407.819 153.284 407.908C153.353 407.998 153.403 408.1 153.43 408.21C153.482 408.346 153.493 408.495 153.461 408.637C153.429 408.78 153.356 408.909 153.25 409.01C153.045 409.177 152.783 409.256 152.52 409.23ZM150.08 408.15C151.19 408.62 152.58 409.04 152.93 408.74C152.93 408.74 153.06 408.64 152.93 408.35C152.919 408.292 152.894 408.237 152.857 408.19C152.821 408.143 152.774 408.105 152.72 408.08C151.85 407.866 150.938 407.89 150.08 408.15V408.15ZM151.43 406.07C151.324 406.071 151.219 406.092 151.12 406.13C150.529 406.523 150.077 407.094 149.83 407.76C150.95 407.33 152.03 406.76 152.05 406.4C152.05 406.3 151.88 406.2 151.78 406.15C151.672 406.095 151.552 406.068 151.43 406.07V406.07Z" fill="#56C0D8"/>
<path d="M183.3 407.43C183.3 406.82 190.88 407.3 190.88 407.3C190.88 407.3 195.53 412.03 200.05 413.09C204.57 414.15 202.05 416.87 196.99 416.87H184.5C180.91 416.87 183.15 413.81 183.3 407.43Z" fill="#263238"/>
<path d="M194.86 409.23C193.763 409.082 192.701 408.743 191.72 408.23C191.72 408.23 191.67 408.23 191.66 408.17C191.65 408.146 191.645 408.121 191.645 408.095C191.645 408.069 191.65 408.044 191.66 408.02C191.66 407.94 192.32 406.18 193.35 405.75C193.507 405.678 193.677 405.641 193.85 405.641C194.023 405.641 194.193 405.678 194.35 405.75C194.69 405.91 194.86 406.13 194.84 406.38C194.82 406.63 194.28 407.18 193.67 407.51C194.239 407.411 194.824 407.474 195.36 407.69C195.46 407.744 195.548 407.819 195.618 407.908C195.689 407.997 195.74 408.1 195.77 408.21C195.822 408.346 195.833 408.495 195.801 408.637C195.769 408.78 195.695 408.909 195.59 409.01C195.382 409.171 195.122 409.25 194.86 409.23V409.23ZM192.42 408.15C193.53 408.62 194.92 409.04 195.27 408.74C195.27 408.74 195.4 408.64 195.27 408.35C195.255 408.293 195.229 408.24 195.193 408.193C195.157 408.147 195.112 408.108 195.06 408.08C194.19 407.866 193.278 407.89 192.42 408.15V408.15ZM193.77 406.07C193.664 406.071 193.559 406.092 193.46 406.13C192.866 406.523 192.411 407.093 192.16 407.76C193.28 407.33 194.37 406.76 194.39 406.4C194.39 406.3 194.22 406.2 194.12 406.15C194.011 406.096 193.891 406.069 193.77 406.07V406.07Z" fill="#56C0D8"/>
<path opacity="0.2" d="M151.38 305.4V310.45C131.24 302.03 136.23 281.9 136.23 281.9C137.52 289.63 146.37 292.5 146.37 292.5L151.38 305.4Z" fill="black"/>
<path d="M139.33 261.18L155.59 262.88V259.19L139.81 257.62C139.68 258.52 139.49 260 139.33 261.18Z" fill="#263238"/>
<path d="M156.86 259.31V263.01L163.59 263.71V259.98L156.86 259.31Z" fill="#263238"/>
<path d="M138.51 257.5L131.68 256.82L130.82 260.29L137.87 261.02L138.51 257.5Z" fill="#263238"/>
<path opacity="0.2" d="M141.37 269.45H149.76L150.65 277.8L146.01 281.41L141.37 278.54V269.45Z" fill="black"/>
<path opacity="0.2" d="M133.26 268.08L132.8 277.8L129.8 281.9C129.8 281.9 128.8 281.05 128.01 280.19C128.217 276.128 128.681 272.083 129.4 268.08H133.26Z" fill="black"/>
<path d="M207.72 252.93C209.011 252.029 210.43 251.328 211.93 250.85C213.542 250.574 215.188 250.574 216.8 250.85L216.42 256.14C215.045 256.806 213.613 257.345 212.14 257.75C210.69 258.01 207.77 257.09 207.77 257.09L207.72 252.93Z" fill="#EBB376"/>
<path d="M153 312C153 312 153.4 314.77 154.06 314.24C154.72 313.71 175.68 310.43 175.68 310.43V307.65L153 312Z" fill="#56C0D8"/>
<path opacity="0.7" d="M153 312C153 312 153.4 314.77 154.06 314.24C154.72 313.71 175.68 310.43 175.68 310.43V307.65L153 312Z" fill="white"/>
<path d="M131.46 315.64C131.46 315.64 131.82 318.43 132.41 317.92C133 317.41 151.8 314.8 151.8 314.8V312L131.46 315.64Z" fill="#56C0D8"/>
<path opacity="0.7" d="M131.46 315.64C131.46 315.64 131.82 318.43 132.41 317.92C133 317.41 151.8 314.8 151.8 314.8V312L131.46 315.64Z" fill="white"/>
<path d="M132.79 255.56L162.79 258.92L177.69 225.33C177.69 225.33 167.31 216.39 148.1 219.33C148.09 219.29 141.2 222.35 132.79 255.56Z" fill="#263238"/>
<path d="M180.3 234.62C180.3 234.62 184.88 245.76 187.05 248C189.22 250.24 207.72 252.93 207.72 252.93L207.77 257.09C207.77 257.09 188.34 256.37 184.88 253.41C181.42 250.45 173.99 237.41 173.99 237.41L180.3 234.62Z" fill="#EBB376"/>
<path d="M177.68 225.33C179.91 227.7 182.37 238.46 182.37 238.46H171.69L168.18 232.66C169.431 230.811 171.035 229.227 172.9 228C174.394 226.944 175.997 226.048 177.68 225.33V225.33Z" fill="#263238"/>
</svg>
