<svg width="218" height="206" viewBox="0 0 218 206" fill="none" xmlns="http://www.w3.org/2000/svg">
<path d="M206.018 19.0011H202.191V15.2009C202.191 14.5676 201.553 13.9342 200.915 13.9342C200.277 13.9342 199.639 14.5676 199.639 15.2009V19.0011H195.599C194.961 19.0011 194.324 19.6345 194.324 20.2679C194.324 20.9012 194.961 21.5346 195.599 21.5346H199.426V25.3348C199.426 25.9682 200.064 26.6016 200.702 26.6016C201.34 26.6016 201.978 25.9682 201.978 25.3348V21.5346H205.805C206.443 21.5346 207.081 20.9012 207.081 20.2679C207.081 19.6345 206.656 19.0011 206.018 19.0011Z" fill="#B496DB"/>
<path d="M65.6868 5.06694H61.8596V1.26674C61.8596 0.633368 61.2217 0 60.5839 0C59.946 0 59.3081 0.633368 59.3081 1.26674V5.06694H55.4809C54.8431 5.06694 54.2052 5.70031 54.2052 6.33368C54.2052 6.96704 54.8431 7.60041 55.4809 7.60041H59.3081V11.4006C59.3081 12.034 59.946 12.6674 60.5839 12.6674C61.2217 12.6674 61.8596 12.034 61.8596 11.4006V7.60041H65.6868C66.3247 7.60041 66.9625 6.96704 66.9625 6.33368C66.9625 5.70031 66.5373 5.06694 65.6868 5.06694Z" fill="#CCDCFF"/>
<path d="M18.697 134.485L15.5077 136.596L13.3815 133.429C12.7436 132.796 12.1057 132.585 11.4679 133.007C10.83 133.429 10.83 134.274 11.0426 134.696L13.1688 137.863L9.9795 139.974C9.34164 140.396 9.34164 141.241 9.55426 141.663C9.9795 142.297 10.83 142.297 11.2552 142.085L14.4446 139.974L16.5708 143.141C16.996 143.774 17.8465 143.774 18.2718 143.563C18.9096 143.141 18.9096 142.297 18.697 141.874L16.5708 138.707L19.7601 136.596C20.398 136.174 20.398 135.33 20.1854 134.907C19.9728 134.274 19.1223 134.063 18.697 134.485Z" fill="#CCDCFF"/>
<path d="M18.2718 31.4572C20.1507 31.4572 21.6738 29.9449 21.6738 28.0793C21.6738 26.2137 20.1507 24.7013 18.2718 24.7013C16.393 24.7013 14.8699 26.2137 14.8699 28.0793C14.8699 29.9449 16.393 31.4572 18.2718 31.4572Z" fill="#CCDCFF"/>
<path d="M211.795 89.999C213.694 89.3863 214.733 87.3615 214.116 85.4764C213.498 83.5914 211.459 82.5599 209.561 83.1726C207.662 83.7853 206.624 85.8101 207.241 87.6952C207.858 89.5803 209.897 90.6117 211.795 89.999Z" fill="#6F4A9F"/>
<path d="M10.4634 172.963C12.3619 172.35 13.4007 170.325 12.7836 168.44C12.1666 166.555 10.1274 165.524 8.22889 166.136C6.33043 166.749 5.29165 168.774 5.9087 170.659C6.52575 172.544 8.56497 173.576 10.4634 172.963Z" fill="#6F4A9F"/>
<path d="M54.6307 160.031L37.4083 205H52.5045L72.9163 168.265L54.6307 160.031Z" fill="#1189A1" stroke="#182052" stroke-miterlimit="10" stroke-linecap="round" stroke-linejoin="round"/>
<path d="M146.271 160.031L163.493 205H148.397L127.985 168.265L146.271 160.031Z" fill="#1189A1" stroke="#182052" stroke-miterlimit="10" stroke-linecap="round" stroke-linejoin="round"/>
<path d="M110.338 177.554C155.783 177.554 192.623 140.974 192.623 95.8496C192.623 50.7255 155.783 14.1452 110.338 14.1452C64.8933 14.1452 28.0531 50.7255 28.0531 95.8496C28.0531 140.974 64.8933 177.554 110.338 177.554Z" fill="#1189A1" stroke="#182052" stroke-miterlimit="10" stroke-linecap="round" stroke-linejoin="round"/>
<path d="M100.557 177.554C146.002 177.554 182.842 140.974 182.842 95.8496C182.842 50.7255 146.002 14.1452 100.557 14.1452C55.1124 14.1452 18.2722 50.7255 18.2722 95.8496C18.2722 140.974 55.1124 177.554 100.557 177.554Z" fill="white" stroke="#182052" stroke-miterlimit="10" stroke-linecap="round" stroke-linejoin="round"/>
<path d="M100.557 157.497C134.846 157.497 162.643 129.897 162.643 95.8496C162.643 61.8024 134.846 34.2018 100.557 34.2018C66.268 34.2018 38.4712 61.8024 38.4712 95.8496C38.4712 129.897 66.268 157.497 100.557 157.497Z" fill="#DFE9FF"/>
<path d="M100.556 139.13C124.629 139.13 144.144 119.753 144.144 95.8496C144.144 71.9466 124.629 52.5695 100.556 52.5695C76.4835 52.5695 56.9687 71.9466 56.9687 95.8496C56.9687 119.753 76.4835 139.13 100.556 139.13Z" fill="white"/>
<path d="M100.557 119.706C113.827 119.706 124.584 109.025 124.584 95.8496C124.584 82.6739 113.827 71.9928 100.557 71.9928C87.2879 71.9928 76.5309 82.6739 76.5309 95.8496C76.5309 109.025 87.2879 119.706 100.557 119.706Z" fill="#DFE9FF"/>
<path d="M217.5 151.375C217.5 154.542 217.075 157.708 216.437 160.664C216.012 162.564 215.374 164.253 214.736 165.942C210.696 176.498 202.191 184.943 191.56 188.955C190.71 189.166 190.072 189.588 189.221 189.799C185.181 191.066 181.142 191.699 176.677 191.699C154.139 191.699 135.853 173.543 135.853 151.164C135.853 128.785 154.139 110.628 176.677 110.628C199.214 111.05 217.5 128.996 217.5 151.375Z" fill="white"/>
<path d="M217.5 153.486C217.5 156.653 217.075 159.82 216.437 162.775C216.012 164.676 215.374 166.364 214.736 168.053C210.696 178.61 202.191 187.055 191.56 191.066C190.709 191.277 190.072 191.699 189.221 191.91C185.181 193.177 181.141 193.81 176.676 193.81C154.138 193.81 135.853 175.654 135.853 153.275C135.853 130.896 154.138 112.739 176.676 112.739C199.214 113.162 217.5 131.107 217.5 153.486Z" fill="#56C0D8"/>
<path d="M195.812 186.421C194.324 187.266 192.623 187.899 191.134 188.533C190.284 188.744 189.646 189.166 188.795 189.377C184.756 190.644 180.716 191.277 176.251 191.277C153.713 191.277 135.427 173.121 135.427 150.742C135.427 135.33 143.932 122.029 156.689 115.273" stroke="#182052" stroke-miterlimit="10" stroke-linecap="round" stroke-linejoin="round"/>
<path d="M170.936 110.839C172.637 110.628 174.55 110.417 176.251 110.417C198.789 110.417 217.075 128.574 217.075 150.953C217.075 154.119 216.65 157.286 216.012 160.242C215.586 162.142 214.949 163.831 214.311 165.52C212.61 169.743 210.271 173.754 207.294 177.343" stroke="#182052" stroke-miterlimit="10" stroke-linecap="round" stroke-linejoin="round"/>
<path d="M162.855 112.738C163.068 112.738 163.493 112.527 163.706 112.527" stroke="#182052" stroke-miterlimit="10" stroke-linecap="round" stroke-linejoin="round"/>
<path d="M172.424 169.531C171.148 169.531 169.872 169.109 169.022 168.054L159.666 158.764C157.753 156.864 157.753 153.908 159.666 152.008C161.58 150.108 164.557 150.108 166.47 152.008L172.424 157.92L189.434 141.03C191.347 139.13 194.324 139.13 196.237 141.03C198.151 142.93 198.151 145.886 196.237 147.786L175.826 168.054C174.975 168.898 173.699 169.531 172.424 169.531Z" fill="white"/>
<path d="M58.8828 81.4934L101.195 92.4718C103.108 92.894 104.171 95.0053 103.746 96.9054C103.321 98.8055 101.195 99.8611 99.2811 99.4388L6.36511 75.3709C4.45151 74.9486 3.3884 72.8374 3.81364 70.9373C4.23889 69.0372 6.36511 67.9816 8.27871 68.4038L40.1721 76.6376" fill="#1C3754"/>
<path d="M46.1255 71.5706L45.0624 69.4594C43.7867 66.9259 41.2352 64.8147 38.4711 64.1813L9.55447 56.792C7.42825 56.3698 5.72727 58.2699 6.79038 60.17L13.3817 73.2596L1.04958 81.4933C-0.651399 82.7601 -0.226154 85.2935 1.90007 85.9269L30.8167 93.3162C33.5808 94.1607 36.7701 93.5273 39.109 91.8383L49.1022 85.0824C50.8032 84.0268 51.2285 81.9156 50.378 80.2266L46.1255 71.5706Z" fill="#6F4A9F"/>
<path d="M200.915 205H202.403" stroke="#182052" stroke-miterlimit="10" stroke-linecap="round" stroke-linejoin="round"/>
<path d="M4.4516 205H192.835" stroke="#182052" stroke-miterlimit="10" stroke-linecap="round" stroke-linejoin="round"/>
</svg>
