<svg width="236" height="222" viewBox="0 0 236 222" fill="none" xmlns="http://www.w3.org/2000/svg">
<path d="M21.3022 74.9966C23.7755 74.1582 25.1288 71.3873 24.3249 68.8078C23.5211 66.2282 20.8644 64.8167 18.3911 65.6551C15.9178 66.4936 14.5645 69.2644 15.3684 71.844C16.1723 74.4236 18.8289 75.8351 21.3022 74.9966Z" fill="#56C0D8"/>
<path d="M34.3248 34.4709C35.6109 34.035 36.3146 32.5941 35.8966 31.2527C35.4785 29.9114 34.097 29.1774 32.8109 29.6134C31.5248 30.0493 30.8211 31.4902 31.2391 32.8315C31.6572 34.1729 33.0386 34.9069 34.3248 34.4709Z" fill="#56C0D8"/>
<path d="M17.1991 148.128C17.8232 148.128 18.3292 147.6 18.3292 146.949C18.3292 146.298 17.8232 145.77 17.1991 145.77C16.5749 145.77 16.0689 146.298 16.0689 146.949C16.0689 147.6 16.5749 148.128 17.1991 148.128Z" fill="url(#paint0_linear_47941_1266)"/>
<path d="M223.454 134.965C224.286 134.965 224.961 134.261 224.961 133.393C224.961 132.525 224.286 131.822 223.454 131.822C222.622 131.822 221.947 132.525 221.947 133.393C221.947 134.261 222.622 134.965 223.454 134.965Z" fill="#84A2FF"/>
<path d="M230.006 89.7769C232.925 86.9955 233.128 82.2735 230.462 79.2299C227.795 76.1863 223.267 75.9737 220.349 78.7551C217.431 81.5364 217.227 86.2585 219.894 89.3021C222.561 92.3457 227.088 92.5583 230.006 89.7769Z" fill="#56C0D8"/>
<path d="M230.547 56.3085C231.776 55.1374 231.862 53.1492 230.739 51.8677C229.616 50.5862 227.71 50.4967 226.481 51.6678C225.253 52.8388 225.167 54.8271 226.29 56.1086C227.412 57.3901 229.319 57.4796 230.547 56.3085Z" fill="#56C0D8"/>
<path d="M117.407 221.209C169.109 221.209 211.022 177.495 211.022 123.571C211.022 69.6464 169.109 25.9321 117.407 25.9321C65.7047 25.9321 23.7917 69.6464 23.7917 123.571C23.7917 177.495 65.7047 221.209 117.407 221.209Z" fill="#56C0D8"/>
<path d="M215.166 189.776V195.081C215.166 199.992 211.211 203.921 206.313 203.921H27.1822C22.2848 203.921 18.3292 199.992 18.3292 195.081V189.776H99.3244C100.078 191.741 101.961 193.116 104.033 193.116H129.274C131.534 193.116 133.418 191.741 133.983 189.776H215.166Z" fill="#DDE7FF"/>
<path d="M215.166 189.776C215.166 194.688 211.211 198.617 206.313 198.617H27.1822C22.2848 198.617 18.3292 194.688 18.3292 189.776H99.3244C100.078 191.741 101.961 193.116 104.033 193.116H129.274C131.534 193.116 133.418 191.741 133.983 189.776H215.166Z" fill="white"/>
<path d="M204.995 189.776H28.3124V71.1171C28.3124 68.5632 30.3843 66.4022 32.833 66.4022H200.474C202.923 66.4022 204.995 68.5632 204.995 71.1171V189.776Z" fill="white"/>
<path d="M90.6598 66.4022H198.591C202.169 66.4022 204.995 69.349 204.995 73.0817V189.776" stroke="#182052" stroke-miterlimit="10" stroke-linecap="round" stroke-linejoin="round"/>
<path d="M79.7349 66.4022H80.1116" stroke="#182052" stroke-miterlimit="10" stroke-linecap="round" stroke-linejoin="round"/>
<path d="M28.3124 189.776V73.0817C28.3124 69.349 31.1378 66.4022 34.7166 66.4022H72.9539" stroke="#182052" stroke-miterlimit="10" stroke-linecap="round" stroke-linejoin="round"/>
<path d="M95.1805 189.776H99.3244C100.078 191.741 101.961 193.116 104.033 193.116H129.274C131.534 193.116 133.418 191.741 133.983 189.776H214.978V195.081C214.978 199.992 211.022 203.921 206.125 203.921H27.1822C22.2848 203.921 18.3292 199.992 18.3292 195.081V189.776H83.5021" stroke="#182052" stroke-miterlimit="10" stroke-linecap="round" stroke-linejoin="round"/>
<path d="M107.612 79.7612C108.028 79.7612 108.366 79.4093 108.366 78.9753C108.366 78.5413 108.028 78.1895 107.612 78.1895C107.196 78.1895 106.859 78.5413 106.859 78.9753C106.859 79.4093 107.196 79.7612 107.612 79.7612Z" fill="white"/>
<path d="M109.873 79.7612C110.289 79.7612 110.626 79.4093 110.626 78.9753C110.626 78.5413 110.289 78.1895 109.873 78.1895C109.457 78.1895 109.119 78.5413 109.119 78.9753C109.119 79.4093 109.457 79.7612 109.873 79.7612Z" fill="white"/>
<path d="M112.133 79.7612C112.549 79.7612 112.886 79.4093 112.886 78.9753C112.886 78.5413 112.549 78.1895 112.133 78.1895C111.717 78.1895 111.379 78.5413 111.379 78.9753C111.379 79.4093 111.717 79.7612 112.133 79.7612Z" fill="white"/>
<path d="M131.911 87.6195H114.77C114.393 87.6195 114.017 87.2266 114.017 86.8337C114.017 86.4408 114.393 86.0479 114.77 86.0479H131.911C132.288 86.0479 132.664 86.4408 132.664 86.8337C132.664 87.2266 132.288 87.6195 131.911 87.6195Z" fill="#1189A1"/>
<path d="M108.366 91.3519H107.801C107.424 91.3519 107.047 90.959 107.047 90.5661C107.047 90.1732 107.424 89.7803 107.801 89.7803H108.366C108.742 89.7803 109.119 90.1732 109.119 90.5661C109.119 90.959 108.742 91.3519 108.366 91.3519Z" fill="#1189A1"/>
<path d="M108.366 102.354H107.801C107.424 102.354 107.047 101.961 107.047 101.568C107.047 101.175 107.424 100.782 107.801 100.782H108.366C108.742 100.782 109.119 101.175 109.119 101.568C109.119 101.961 108.742 102.354 108.366 102.354Z" fill="#1189A1"/>
<path d="M128.332 91.3519H114.77C114.393 91.3519 114.017 90.959 114.017 90.5661C114.017 90.1732 114.393 89.7803 114.77 89.7803H128.332C128.709 89.7803 129.085 90.1732 129.085 90.5661C129.085 90.959 128.709 91.3519 128.332 91.3519Z" fill="#1189A1"/>
<path d="M164.874 91.3519H131.157C130.781 91.3519 130.404 90.959 130.404 90.5661C130.404 90.1732 130.781 89.7803 131.157 89.7803H164.874C165.251 89.7803 165.627 90.1732 165.627 90.5661C165.627 90.959 165.251 91.3519 164.874 91.3519Z" fill="#1189A1"/>
<path d="M179.378 91.3519H169.583C169.206 91.3519 168.83 90.959 168.83 90.5661C168.83 90.1732 169.206 89.7803 169.583 89.7803H179.378C179.754 89.7803 180.131 90.1732 180.131 90.5661C180.131 90.959 179.754 91.3519 179.378 91.3519Z" fill="#1189A1"/>
<path d="M187.477 91.3519H184.275C183.899 91.3519 183.522 90.959 183.522 90.5661C183.522 90.1732 183.899 89.7803 184.275 89.7803H187.477C187.854 89.7803 188.231 90.1732 188.231 90.5661C188.231 90.959 187.854 91.3519 187.477 91.3519Z" fill="#1189A1"/>
<path d="M136.997 94.8882H119.856C119.479 94.8882 119.102 94.4953 119.102 94.1024C119.102 93.7095 119.479 93.3166 119.856 93.3166H136.997C137.373 93.3166 137.75 93.7095 137.75 94.1024C137.75 94.4953 137.373 94.8882 136.997 94.8882Z" fill="#1189A1"/>
<path d="M136.997 109.622H119.856C119.479 109.622 119.102 109.23 119.102 108.837C119.102 108.444 119.479 108.051 119.856 108.051H136.997C137.373 108.051 137.75 108.444 137.75 108.837C137.75 109.23 137.373 109.622 136.997 109.622Z" fill="#1189A1"/>
<path d="M132.476 113.355H119.856C119.479 113.355 119.102 112.962 119.102 112.569C119.102 112.176 119.479 111.783 119.856 111.783H132.476C132.853 111.783 133.229 112.176 133.229 112.569C133.229 112.962 132.853 113.355 132.476 113.355Z" fill="#1189A1"/>
<path d="M165.816 113.355H136.055C135.678 113.355 135.301 112.962 135.301 112.569C135.301 112.176 135.678 111.783 136.055 111.783H165.816C166.192 111.783 166.569 112.176 166.569 112.569C166.569 112.962 166.192 113.355 165.816 113.355Z" fill="#1189A1"/>
<path d="M141.894 98.621H125.883C125.507 98.621 125.13 98.228 125.13 97.8351C125.13 97.4422 125.507 97.0493 125.883 97.0493H141.894C142.271 97.0493 142.647 97.4422 142.647 97.8351C142.647 98.228 142.271 98.621 141.894 98.621Z" fill="#1189A1"/>
<path d="M150.935 98.621H144.343C143.966 98.621 143.589 98.228 143.589 97.8351C143.589 97.4422 143.966 97.0493 144.343 97.0493H150.935C151.312 97.0493 151.689 97.4422 151.689 97.8351C151.689 98.228 151.312 98.621 150.935 98.621Z" fill="#1189A1"/>
<path d="M170.148 102.354H125.883C125.507 102.354 125.13 101.961 125.13 101.568C125.13 101.175 125.507 100.782 125.883 100.782H169.96C170.337 100.782 170.713 101.175 170.713 101.568C170.713 101.961 170.525 102.354 170.148 102.354Z" fill="#1189A1"/>
<path d="M177.871 102.354H173.727C173.35 102.354 172.973 101.961 172.973 101.568C172.973 101.175 173.35 100.782 173.727 100.782H177.871C178.248 100.782 178.624 101.175 178.624 101.568C178.624 101.961 178.248 102.354 177.871 102.354Z" fill="#1189A1"/>
<path d="M193.693 102.354H180.885C180.508 102.354 180.131 101.961 180.131 101.568C180.131 101.175 180.508 100.782 180.885 100.782H193.693C194.07 100.782 194.447 101.175 194.447 101.568C194.447 101.961 194.07 102.354 193.693 102.354Z" fill="#1189A1"/>
<path d="M156.209 106.086H125.883C125.507 106.086 125.13 105.693 125.13 105.3C125.13 104.907 125.507 104.514 125.883 104.514H156.209C156.586 104.514 156.963 104.907 156.963 105.3C156.963 105.693 156.586 106.086 156.209 106.086Z" fill="#1189A1"/>
<path d="M143.024 120.82H131.157C130.781 120.82 130.404 120.427 130.404 120.034C130.404 119.642 130.781 119.249 131.157 119.249H143.024C143.401 119.249 143.778 119.642 143.778 120.034C143.778 120.427 143.401 120.82 143.024 120.82Z" fill="#1189A1"/>
<path d="M158.281 120.82H145.661C145.285 120.82 144.908 120.427 144.908 120.034C144.908 119.642 145.285 119.249 145.661 119.249H158.281C158.658 119.249 159.035 119.642 159.035 120.034C159.035 120.427 158.658 120.82 158.281 120.82Z" fill="#1189A1"/>
<path d="M169.583 120.82H160.73C160.353 120.82 159.977 120.427 159.977 120.034C159.977 119.642 160.353 119.249 160.73 119.249H169.583C169.96 119.249 170.337 119.642 170.337 120.034C170.337 120.427 169.96 120.82 169.583 120.82Z" fill="#1189A1"/>
<path d="M177.494 120.82H172.974C172.597 120.82 172.22 120.427 172.22 120.034C172.22 119.642 172.597 119.249 172.974 119.249H177.494C177.871 119.249 178.248 119.642 178.248 120.034C178.248 120.427 177.871 120.82 177.494 120.82Z" fill="#1189A1"/>
<path d="M143.024 131.822H131.157C130.781 131.822 130.404 131.429 130.404 131.036C130.404 130.643 130.781 130.25 131.157 130.25H143.024C143.401 130.25 143.778 130.643 143.778 131.036C143.778 131.429 143.401 131.822 143.024 131.822Z" fill="#1189A1"/>
<path d="M169.583 142.824H131.157C130.781 142.824 130.404 142.431 130.404 142.038C130.404 141.645 130.781 141.252 131.157 141.252H169.583C169.96 141.252 170.337 141.645 170.337 142.038C170.337 142.431 169.96 142.824 169.583 142.824Z" fill="#1189A1"/>
<path d="M148.298 124.357H136.432C136.055 124.357 135.678 123.964 135.678 123.571C135.678 123.178 136.055 122.785 136.432 122.785H148.298C148.675 122.785 149.052 123.178 149.052 123.571C149.052 123.964 148.675 124.357 148.298 124.357Z" fill="#1189A1"/>
<path d="M167.511 124.357H150.747C150.37 124.357 149.993 123.964 149.993 123.571C149.993 123.178 150.37 122.785 150.747 122.785H167.511C167.888 122.785 168.264 123.178 168.264 123.571C168.264 123.964 167.888 124.357 167.511 124.357Z" fill="#1189A1"/>
<path d="M178.624 124.357H169.96C169.583 124.357 169.206 123.964 169.206 123.571C169.206 123.178 169.583 122.785 169.96 122.785H178.624C179.001 122.785 179.378 123.178 179.378 123.571C179.378 123.964 179.001 124.357 178.624 124.357Z" fill="#1189A1"/>
<path d="M183.898 124.357H181.073C180.696 124.357 180.32 123.964 180.32 123.571C180.32 123.178 180.696 122.785 181.073 122.785H183.898C184.275 122.785 184.652 123.178 184.652 123.571C184.652 123.964 184.275 124.357 183.898 124.357Z" fill="#1189A1"/>
<path d="M150.935 128.089H136.432C136.055 128.089 135.678 127.696 135.678 127.303C135.678 126.911 136.055 126.518 136.432 126.518H150.935C151.312 126.518 151.689 126.911 151.689 127.303C151.689 127.696 151.312 128.089 150.935 128.089Z" fill="#1189A1"/>
<path d="M157.716 128.089H153.761C153.384 128.089 153.007 127.696 153.007 127.303C153.007 126.911 153.384 126.518 153.761 126.518H157.716C158.093 126.518 158.47 126.911 158.47 127.303C158.47 127.696 158.093 128.089 157.716 128.089Z" fill="#1189A1"/>
<path d="M190.491 128.089H160.542C160.165 128.089 159.788 127.696 159.788 127.303C159.788 126.911 160.165 126.518 160.542 126.518H190.491C190.868 126.518 191.245 126.911 191.245 127.303C191.245 127.696 190.868 128.089 190.491 128.089Z" fill="#1189A1"/>
<path d="M143.024 117.088H125.883C125.507 117.088 125.13 116.695 125.13 116.302C125.13 115.909 125.507 115.516 125.883 115.516H143.024C143.401 115.516 143.778 115.909 143.778 116.302C143.778 116.695 143.401 117.088 143.024 117.088Z" fill="#1189A1"/>
<path d="M150.182 117.088H145.661C145.285 117.088 144.908 116.695 144.908 116.302C144.908 115.909 145.285 115.516 145.661 115.516H150.182C150.559 115.516 150.935 115.909 150.935 116.302C150.935 116.695 150.559 117.088 150.182 117.088Z" fill="#1189A1"/>
<path d="M143.024 135.555H125.883C125.507 135.555 125.13 135.162 125.13 134.769C125.13 134.376 125.507 133.983 125.883 133.983H143.024C143.401 133.983 143.778 134.376 143.778 134.769C143.778 135.162 143.401 135.555 143.024 135.555Z" fill="#1189A1"/>
<path d="M156.398 139.091H125.883C125.507 139.091 125.13 138.698 125.13 138.305C125.13 137.912 125.507 137.519 125.883 137.519H156.398C156.775 137.519 157.151 137.912 157.151 138.305C157.151 138.894 156.775 139.091 156.398 139.091Z" fill="#1189A1"/>
<path d="M169.583 139.091H158.847C158.47 139.091 158.093 138.698 158.093 138.305C158.093 137.912 158.47 137.519 158.847 137.519H169.583C169.96 137.519 170.337 137.912 170.337 138.305C170.337 138.894 170.148 139.091 169.583 139.091Z" fill="#1189A1"/>
<path d="M176.741 139.091H172.408C172.032 139.091 171.655 138.698 171.655 138.305C171.655 137.912 172.032 137.519 172.408 137.519H176.741C177.117 137.519 177.494 137.912 177.494 138.305C177.494 138.894 177.117 139.091 176.741 139.091Z" fill="#1189A1"/>
<path d="M43.7579 80.7433V166.988H39.2373C37.9188 166.988 36.7886 165.809 36.7886 164.434V80.7433H43.7579Z" fill="#56C0D8"/>
<path d="M194.447 75.832H126.448H107.236H39.2373C37.9188 75.832 36.7886 77.0107 36.7886 78.3859V81.7256H104.787H128.897H196.895V78.3859C197.084 77.0107 195.954 75.832 194.447 75.832Z" fill="url(#paint1_linear_47941_1266)"/>
<path d="M39.6139 79.7612C40.03 79.7612 40.3674 79.4093 40.3674 78.9753C40.3674 78.5413 40.03 78.1895 39.6139 78.1895C39.1978 78.1895 38.8605 78.5413 38.8605 78.9753C38.8605 79.4093 39.1978 79.7612 39.6139 79.7612Z" fill="white"/>
<path d="M41.686 79.7612C42.1021 79.7612 42.4394 79.4093 42.4394 78.9753C42.4394 78.5413 42.1021 78.1895 41.686 78.1895C41.2699 78.1895 40.9325 78.5413 40.9325 78.9753C40.9325 79.4093 41.2699 79.7612 41.686 79.7612Z" fill="white"/>
<path d="M43.9463 79.7612C44.3625 79.7612 44.6998 79.4093 44.6998 78.9753C44.6998 78.5413 44.3625 78.1895 43.9463 78.1895C43.5302 78.1895 43.1929 78.5413 43.1929 78.9753C43.1929 79.4093 43.5302 79.7612 43.9463 79.7612Z" fill="white"/>
<path d="M63.9126 87.6195H46.7717C46.395 87.6195 46.0183 87.2266 46.0183 86.8337C46.0183 86.4408 46.395 86.0479 46.7717 86.0479H63.9126C64.2893 86.0479 64.666 86.4408 64.666 86.8337C64.666 87.2266 64.2893 87.6195 63.9126 87.6195Z" fill="#1189A1"/>
<path d="M40.3674 87.6195H39.6139C39.2372 87.6195 38.8605 87.2266 38.8605 86.8337C38.8605 86.4408 39.2372 86.0479 39.6139 86.0479H40.179C40.5557 86.0479 40.9325 86.4408 40.9325 86.8337C41.1208 87.2266 40.7441 87.6195 40.3674 87.6195Z" fill="#1189A1"/>
<path d="M40.3674 91.3519H39.6139C39.2372 91.3519 38.8605 90.959 38.8605 90.5661C38.8605 90.1732 39.2372 89.7803 39.6139 89.7803H40.179C40.5557 89.7803 40.9325 90.1732 40.9325 90.5661C40.9325 90.959 40.7441 91.3519 40.3674 91.3519Z" fill="#1189A1"/>
<path d="M40.3674 95.0846H39.6139C39.2372 95.0846 38.8605 94.6917 38.8605 94.2988C38.8605 93.9059 39.2372 93.5129 39.6139 93.5129H40.179C40.5557 93.5129 40.9325 93.9059 40.9325 94.2988C40.9325 94.6917 40.7441 95.0846 40.3674 95.0846Z" fill="#1189A1"/>
<path d="M40.3674 98.621H39.6139C39.2372 98.621 38.8605 98.228 38.8605 97.8351C38.8605 97.4422 39.2372 97.0493 39.6139 97.0493H40.179C40.5557 97.0493 40.9325 97.4422 40.9325 97.8351C40.9325 98.228 40.7441 98.621 40.3674 98.621Z" fill="#1189A1"/>
<path d="M40.3674 102.354H39.6139C39.2372 102.354 38.8605 101.961 38.8605 101.568C38.8605 101.175 39.2372 100.782 39.6139 100.782H40.179C40.5557 100.782 40.9325 101.175 40.9325 101.568C40.9325 101.961 40.7441 102.354 40.3674 102.354Z" fill="#1189A1"/>
<path d="M40.3674 106.086H39.6139C39.2372 106.086 38.8605 105.693 38.8605 105.3C38.8605 104.907 39.2372 104.514 39.6139 104.514H40.179C40.5557 104.514 40.9325 104.907 40.9325 105.3C41.1208 105.693 40.7441 106.086 40.3674 106.086Z" fill="#1189A1"/>
<path d="M40.3674 109.819H39.6139C39.2372 109.819 38.8605 109.426 38.8605 109.033C38.8605 108.64 39.2372 108.247 39.6139 108.247H40.179C40.5557 108.247 40.9325 108.64 40.9325 109.033C41.1208 109.426 40.7441 109.819 40.3674 109.819Z" fill="#1189A1"/>
<path d="M40.3674 113.552H39.6139C39.2372 113.552 38.8605 113.159 38.8605 112.766C38.8605 112.373 39.2372 111.98 39.6139 111.98H40.179C40.5557 111.98 40.9325 112.373 40.9325 112.766C40.9325 113.159 40.7441 113.552 40.3674 113.552Z" fill="#1189A1"/>
<path d="M40.3674 117.284H39.6139C39.2372 117.284 38.8605 116.891 38.8605 116.498C38.8605 116.106 39.2372 115.713 39.6139 115.713H40.179C40.5557 115.713 40.9325 116.106 40.9325 116.498C40.9325 116.891 40.7441 117.284 40.3674 117.284Z" fill="#1189A1"/>
<path d="M40.3674 120.82H39.6139C39.2372 120.82 38.8605 120.427 38.8605 120.034C38.8605 119.642 39.2372 119.249 39.6139 119.249H40.179C40.5557 119.249 40.9325 119.642 40.9325 120.034C40.9325 120.427 40.7441 120.82 40.3674 120.82Z" fill="#1189A1"/>
<path d="M40.3674 124.553H39.6139C39.2372 124.553 38.8605 124.16 38.8605 123.767C38.8605 123.374 39.2372 122.981 39.6139 122.981H40.179C40.5557 122.981 40.9325 123.374 40.9325 123.767C41.1208 124.357 40.7441 124.553 40.3674 124.553Z" fill="#1189A1"/>
<path d="M40.3674 128.286H39.6139C39.2372 128.286 38.8605 127.893 38.8605 127.5C38.8605 127.107 39.2372 126.714 39.6139 126.714H40.179C40.5557 126.714 40.9325 127.107 40.9325 127.5C40.9325 127.893 40.7441 128.286 40.3674 128.286Z" fill="#1189A1"/>
<path d="M40.3674 132.018H39.6139C39.2372 132.018 38.8605 131.626 38.8605 131.233C38.8605 130.84 39.2372 130.447 39.6139 130.447H40.179C40.5557 130.447 40.9325 130.84 40.9325 131.233C40.9325 131.626 40.7441 132.018 40.3674 132.018Z" fill="#1189A1"/>
<path d="M40.3674 135.751H39.6139C39.2372 135.751 38.8605 135.358 38.8605 134.965C38.8605 134.572 39.2372 134.179 39.6139 134.179H40.179C40.5557 134.179 40.9325 134.572 40.9325 134.965C40.9325 135.358 40.7441 135.751 40.3674 135.751Z" fill="#1189A1"/>
<path d="M40.3674 139.484H39.6139C39.2372 139.484 38.8605 139.091 38.8605 138.698C38.8605 138.305 39.2372 137.912 39.6139 137.912H40.179C40.5557 137.912 40.9325 138.305 40.9325 138.698C41.1208 139.091 40.7441 139.484 40.3674 139.484Z" fill="#1189A1"/>
<path d="M40.3674 143.02H39.6139C39.2372 143.02 38.8605 142.627 38.8605 142.234C38.8605 141.841 39.2372 141.448 39.6139 141.448H40.179C40.5557 141.448 40.9325 141.841 40.9325 142.234C40.9325 142.627 40.7441 143.02 40.3674 143.02Z" fill="#1189A1"/>
<path d="M60.3337 91.3519H46.7717C46.395 91.3519 46.0183 90.959 46.0183 90.5661C46.0183 90.1732 46.395 89.7803 46.7717 89.7803H60.3337C60.7104 89.7803 61.0872 90.1732 61.0872 90.5661C61.0872 90.959 60.7104 91.3519 60.3337 91.3519Z" fill="#1189A1"/>
<path d="M96.6873 91.3519H62.9707C62.594 91.3519 62.2173 90.959 62.2173 90.5661C62.2173 90.1732 62.594 89.7803 62.9707 89.7803H96.6873C97.0641 89.7803 97.4408 90.1732 97.4408 90.5661C97.4408 90.959 97.2524 91.3519 96.6873 91.3519Z" fill="#1189A1"/>
<path d="M111.38 91.3519H101.585C101.208 91.3519 100.831 90.959 100.831 90.5661C100.831 90.1732 101.208 89.7803 101.585 89.7803H111.38C111.756 89.7803 112.133 90.1732 112.133 90.5661C112.133 90.959 111.756 91.3519 111.38 91.3519Z" fill="#1189A1"/>
<path d="M119.479 91.3519H116.277C115.9 91.3519 115.523 90.959 115.523 90.5661C115.523 90.1732 115.9 89.7803 116.277 89.7803H119.479C119.856 89.7803 120.232 90.1732 120.232 90.5661C120.232 90.959 119.856 91.3519 119.479 91.3519Z" fill="#1189A1"/>
<path d="M68.9982 94.8882H51.8574C51.4807 94.8882 51.104 94.4953 51.104 94.1024C51.104 93.7095 51.4807 93.3166 51.8574 93.3166H68.9982C69.375 93.3166 69.7517 93.7095 69.7517 94.1024C69.7517 94.4953 69.375 94.8882 68.9982 94.8882Z" fill="#1189A1"/>
<path d="M68.9982 109.622H51.8574C51.4807 109.622 51.104 109.23 51.104 108.837C51.104 108.444 51.4807 108.051 51.8574 108.051H68.9982C69.375 108.051 69.7517 108.444 69.7517 108.837C69.7517 109.23 69.375 109.622 68.9982 109.622Z" fill="#1189A1"/>
<path d="M64.4776 113.355H51.8574C51.4807 113.355 51.104 112.962 51.104 112.569C51.104 112.176 51.4807 111.783 51.8574 111.783H64.4776C64.8543 111.783 65.231 112.176 65.231 112.569C65.231 112.962 64.8543 113.355 64.4776 113.355Z" fill="#1189A1"/>
<path d="M97.6291 113.355H67.8681C67.4914 113.355 67.1147 112.962 67.1147 112.569C67.1147 112.176 67.4914 111.783 67.8681 111.783H97.6291C98.0058 111.783 98.3826 112.176 98.3826 112.569C98.3826 112.962 98.0058 113.355 97.6291 113.355Z" fill="#1189A1"/>
<path d="M73.8957 98.621H57.885C57.5083 98.621 57.1316 98.228 57.1316 97.8351C57.1316 97.4422 57.5083 97.0493 57.885 97.0493H73.8957C74.2724 97.0493 74.6491 97.4422 74.6491 97.8351C74.6491 98.228 74.2724 98.621 73.8957 98.621Z" fill="#1189A1"/>
<path d="M82.7487 98.621H76.156C75.7793 98.621 75.4026 98.228 75.4026 97.8351C75.4026 97.4422 75.7793 97.0493 76.156 97.0493H82.7487C83.1254 97.0493 83.5021 97.4422 83.5021 97.8351C83.5021 98.228 83.3137 98.621 82.7487 98.621Z" fill="#1189A1"/>
<path d="M101.961 102.354H57.885C57.5083 102.354 57.1316 101.961 57.1316 101.568C57.1316 101.175 57.5083 100.782 57.885 100.782H101.961C102.338 100.782 102.715 101.175 102.715 101.568C102.715 101.961 102.338 102.354 101.961 102.354Z" fill="#1189A1"/>
<path d="M109.873 102.354H105.729C105.352 102.354 104.975 101.961 104.975 101.568C104.975 101.175 105.352 100.782 105.729 100.782H109.873C110.249 100.782 110.626 101.175 110.626 101.568C110.626 101.961 110.249 102.354 109.873 102.354Z" fill="#1189A1"/>
<path d="M125.695 102.354H112.886C112.51 102.354 112.133 101.961 112.133 101.568C112.133 101.175 112.51 100.782 112.886 100.782H125.695C126.072 100.782 126.448 101.175 126.448 101.568C126.448 101.961 126.072 102.354 125.695 102.354Z" fill="#1189A1"/>
<path d="M88.2111 106.086H57.885C57.5083 106.086 57.1316 105.693 57.1316 105.3C57.1316 104.907 57.5083 104.514 57.885 104.514H88.2111C88.5878 104.514 88.9646 104.907 88.9646 105.3C88.9646 105.693 88.5878 106.086 88.2111 106.086Z" fill="#1189A1"/>
<path d="M74.8375 120.82H62.9707C62.594 120.82 62.2173 120.427 62.2173 120.034C62.2173 119.642 62.594 119.249 62.9707 119.249H74.8375C75.2142 119.249 75.5909 119.642 75.5909 120.034C75.5909 120.427 75.4026 120.82 74.8375 120.82Z" fill="#1189A1"/>
<path d="M90.0947 120.82H77.4746C77.0978 120.82 76.7211 120.427 76.7211 120.034C76.7211 119.642 77.0978 119.249 77.4746 119.249H90.0947C90.4715 119.249 90.8482 119.642 90.8482 120.034C90.8482 120.427 90.4715 120.82 90.0947 120.82Z" fill="#1189A1"/>
<path d="M101.585 120.82H92.7317C92.355 120.82 91.9783 120.427 91.9783 120.034C91.9783 119.642 92.355 119.249 92.7317 119.249H101.585C101.961 119.249 102.338 119.642 102.338 120.034C102.338 120.427 101.961 120.82 101.585 120.82Z" fill="#1189A1"/>
<path d="M109.496 120.82H104.975C104.598 120.82 104.222 120.427 104.222 120.034C104.222 119.642 104.598 119.249 104.975 119.249H109.496C109.873 119.249 110.249 119.642 110.249 120.034C110.249 120.427 109.873 120.82 109.496 120.82Z" fill="#1189A1"/>
<path d="M74.8375 131.822H62.9707C62.594 131.822 62.2173 131.429 62.2173 131.036C62.2173 130.643 62.594 130.25 62.9707 130.25H74.8375C75.2142 130.25 75.5909 130.643 75.5909 131.036C75.5909 131.429 75.4026 131.822 74.8375 131.822Z" fill="#1189A1"/>
<path d="M101.396 142.824H63.1591C62.7823 142.824 62.4056 142.431 62.4056 142.038C62.4056 141.645 62.7823 141.252 63.1591 141.252H101.585C101.961 141.252 102.338 141.645 102.338 142.038C102.338 142.431 101.961 142.824 101.396 142.824Z" fill="#1189A1"/>
<path d="M80.1116 124.357H68.2448C67.8681 124.357 67.4914 123.964 67.4914 123.571C67.4914 123.178 67.8681 122.785 68.2448 122.785H80.1116C80.4883 122.785 80.865 123.178 80.865 123.571C80.865 123.964 80.4883 124.357 80.1116 124.357Z" fill="#1189A1"/>
<path d="M99.5128 124.357H82.7487C82.3719 124.357 81.9952 123.964 81.9952 123.571C81.9952 123.178 82.3719 122.785 82.7487 122.785H99.5128C99.8895 122.785 100.266 123.178 100.266 123.571C100.266 123.964 99.8895 124.357 99.5128 124.357Z" fill="#1189A1"/>
<path d="M110.438 124.357H101.773C101.396 124.357 101.02 123.964 101.02 123.571C101.02 123.178 101.396 122.785 101.773 122.785H110.438C110.814 122.785 111.191 123.178 111.191 123.571C111.191 123.964 110.814 124.357 110.438 124.357Z" fill="#1189A1"/>
<path d="M115.9 124.357H113.075C112.698 124.357 112.321 123.964 112.321 123.571C112.321 123.178 112.698 122.785 113.075 122.785H115.9C116.277 122.785 116.654 123.178 116.654 123.571C116.654 123.964 116.277 124.357 115.9 124.357Z" fill="#1189A1"/>
<path d="M82.9371 128.089H68.4333C68.0565 128.089 67.6798 127.696 67.6798 127.303C67.6798 126.911 68.0565 126.518 68.4333 126.518H82.9371C83.3138 126.518 83.6905 126.911 83.6905 127.303C83.6905 127.696 83.3138 128.089 82.9371 128.089Z" fill="#1189A1"/>
<path d="M89.718 128.089H85.7624C85.3857 128.089 85.0089 127.696 85.0089 127.303C85.0089 126.911 85.3857 126.518 85.7624 126.518H89.718C90.0947 126.518 90.4714 126.911 90.4714 127.303C90.4714 127.696 90.0947 128.089 89.718 128.089Z" fill="#1189A1"/>
<path d="M122.304 128.089H92.355C91.9783 128.089 91.6016 127.696 91.6016 127.303C91.6016 126.911 91.9783 126.518 92.355 126.518H122.304C122.681 126.518 123.058 126.911 123.058 127.303C123.058 127.696 122.869 128.089 122.304 128.089Z" fill="#1189A1"/>
<path d="M74.8375 117.088H57.6967C57.32 117.088 56.9432 116.695 56.9432 116.302C56.9432 115.909 57.32 115.516 57.6967 115.516H74.8375C75.2142 115.516 75.591 115.909 75.591 116.302C75.591 116.695 75.4026 117.088 74.8375 117.088Z" fill="#1189A1"/>
<path d="M82.1835 117.088H77.6629C77.2862 117.088 76.9094 116.695 76.9094 116.302C76.9094 115.909 77.2862 115.516 77.6629 115.516H82.1835C82.5603 115.516 82.937 115.909 82.937 116.302C82.937 116.695 82.5603 117.088 82.1835 117.088Z" fill="#1189A1"/>
<path d="M74.8375 135.555H57.6967C57.32 135.555 56.9432 135.162 56.9432 134.769C56.9432 134.376 57.32 133.983 57.6967 133.983H74.8375C75.2142 133.983 75.591 134.376 75.591 134.769C75.591 135.162 75.4026 135.555 74.8375 135.555Z" fill="#1189A1"/>
<path d="M88.3995 139.091H57.885C57.5083 139.091 57.1316 138.698 57.1316 138.305C57.1316 137.912 57.5083 137.519 57.885 137.519H88.3995C88.7762 137.519 89.1529 137.912 89.1529 138.305C89.1529 138.894 88.7762 139.091 88.3995 139.091Z" fill="#1189A1"/>
<path d="M101.585 139.091H90.8481C90.4714 139.091 90.0947 138.698 90.0947 138.305C90.0947 137.912 90.4714 137.519 90.8481 137.519H101.585C101.961 137.519 102.338 137.912 102.338 138.305C102.338 138.894 101.961 139.091 101.585 139.091Z" fill="#1189A1"/>
<path d="M108.554 139.091H104.222C103.845 139.091 103.468 138.698 103.468 138.305C103.468 137.912 103.845 137.519 104.222 137.519H108.554C108.931 137.519 109.308 137.912 109.308 138.305C109.308 138.894 109.119 139.091 108.554 139.091Z" fill="#1189A1"/>
<path d="M126.825 79.7611V79.9576C127.767 103.532 131.534 134.376 143.024 159.129C154.702 184.669 133.794 172.488 120.609 163.451C119.667 162.862 118.537 162.862 117.595 163.451C104.598 172.488 83.5021 184.669 95.1804 159.129C106.67 134.179 110.438 103.532 111.379 79.9576" fill="#1189A1"/>
<path d="M126.825 79.7611V79.9576C127.767 103.532 131.534 134.376 143.024 159.129C154.702 184.669 133.794 172.488 120.609 163.451C119.667 162.862 118.537 162.862 117.595 163.451C104.598 172.488 83.5021 184.669 95.1804 159.129C106.67 134.179 110.438 103.532 111.379 79.9576" stroke="#182052" stroke-miterlimit="10"/>
<path d="M136.808 164.237C133.606 162.666 129.085 159.915 123.246 155.79L119.102 152.843L114.958 155.79C109.119 159.915 104.598 162.666 101.396 164.237C101.585 163.844 101.773 163.255 101.961 162.862C113.451 137.912 117.407 108.247 118.726 85.2619H119.479C120.609 108.051 124.753 137.912 136.243 162.862C136.432 163.451 136.62 163.844 136.808 164.237Z" fill="white"/>
<path d="M130.216 141.841C130.216 151.468 122.681 159.326 113.451 159.326C108.742 159.326 104.598 157.361 101.585 154.218C98.5709 151.075 96.6873 146.753 96.6873 141.841C96.6873 132.215 104.222 124.357 113.451 124.357C116.088 124.357 118.349 124.946 120.609 126.125C126.26 128.875 130.216 134.965 130.216 141.841Z" fill="#56C0D8"/>
<path d="M125.507 138.501C125.507 148.128 117.972 155.986 108.742 155.986C106.105 155.986 103.845 155.397 101.585 154.414C98.5709 151.271 96.6873 146.949 96.6873 142.038C96.6873 132.411 104.222 124.553 113.451 124.553C116.089 124.553 118.349 125.142 120.609 126.321C123.623 129.268 125.507 133.59 125.507 138.501Z" fill="white"/>
<path d="M108.931 159.719C108.931 169.345 101.396 177.203 92.1667 177.203C87.4577 177.203 83.3137 175.239 80.3 172.095C77.2862 168.952 75.4026 164.434 75.4026 159.719C75.4026 150.092 82.937 142.234 92.1667 142.234C94.8037 142.234 97.0641 142.824 99.3244 144.002C105.164 146.753 108.931 152.646 108.931 159.719Z" fill="#56C0D8"/>
<path d="M104.222 156.182C104.222 165.809 96.6874 173.667 87.4577 173.667C84.8206 173.667 82.5603 173.078 80.3 172.095C77.2862 168.952 75.4026 164.434 75.4026 159.719C75.4026 150.092 82.937 142.234 92.1667 142.234C94.8037 142.234 97.0641 142.824 99.3244 144.002C102.338 147.146 104.222 151.468 104.222 156.182Z" fill="white"/>
<path d="M151.5 158.343C151.5 167.97 143.966 175.828 134.736 175.828C130.027 175.828 125.883 173.863 122.869 170.72C119.856 167.577 117.972 163.255 117.972 158.343C117.972 148.717 125.507 140.859 134.736 140.859C137.373 140.859 139.634 141.448 141.894 142.627C147.545 145.181 151.5 151.271 151.5 158.343Z" fill="#56C0D8"/>
<path d="M146.791 154.807C146.791 164.433 139.257 172.292 130.027 172.292C127.39 172.292 125.13 171.702 122.869 170.72C119.856 167.577 117.972 163.255 117.972 158.343C117.972 148.717 125.507 140.859 134.736 140.859C137.373 140.859 139.634 141.448 141.894 142.627C144.908 145.574 146.791 149.896 146.791 154.807Z" fill="white"/>
<path d="M72.2004 170.524C72.2004 180.15 64.666 188.008 55.4363 188.008C50.7273 188.008 46.5834 186.044 43.5696 182.9C40.5558 179.757 38.6722 175.435 38.6722 170.524C38.6722 160.897 46.2066 153.039 55.4363 153.039C58.0734 153.039 60.3337 153.629 62.594 154.807C68.2449 157.558 72.2004 163.648 72.2004 170.524Z" fill="#56C0D8"/>
<path d="M67.3031 166.988C67.3031 176.614 59.7687 184.472 50.539 184.472C47.9019 184.472 45.6416 183.883 43.3813 182.9C40.3675 179.757 38.4839 175.435 38.4839 170.524C38.4839 160.897 46.0183 153.039 55.248 153.039C57.885 153.039 60.1454 153.629 62.4057 154.807C65.6078 157.951 67.3031 162.273 67.3031 166.988Z" fill="#56C0D8"/>
<path d="M165.062 170.72C165.062 180.347 157.528 188.205 148.298 188.205C143.589 188.205 139.445 186.24 136.431 183.097C133.418 179.954 131.534 175.632 131.534 170.72C131.534 161.094 139.069 153.236 148.298 153.236C150.935 153.236 153.196 153.825 155.456 155.004C161.107 157.754 165.062 163.844 165.062 170.72Z" fill="#56C0D8"/>
<path d="M160.353 167.38C160.353 177.007 152.819 184.865 143.589 184.865C140.952 184.865 138.692 184.276 136.431 183.293C133.418 180.15 131.534 175.828 131.534 170.917C131.534 161.29 139.069 153.432 148.298 153.432C150.935 153.432 153.196 154.021 155.456 155.2C158.47 158.147 160.353 162.469 160.353 167.38Z" fill="#56C0D8"/>
<path d="M129.462 163.058C129.462 172.685 121.928 180.543 112.698 180.543C107.989 180.543 103.845 178.578 100.831 175.435C97.8176 172.292 95.934 167.97 95.934 163.058C95.934 153.432 103.468 145.574 112.698 145.574C115.335 145.574 117.595 146.163 119.856 147.342C125.695 150.092 129.462 156.182 129.462 163.058Z" fill="#56C0D8"/>
<path d="M124.753 159.522C124.753 169.149 117.219 177.007 107.989 177.007C105.352 177.007 103.092 176.417 100.831 175.435C97.8176 172.292 95.934 167.97 95.934 163.058C95.934 153.432 103.468 145.574 112.698 145.574C115.335 145.574 117.595 146.163 119.856 147.342C122.87 150.485 124.753 154.807 124.753 159.522Z" fill="white"/>
<path d="M166.004 162.666C166.004 169.149 160.918 174.257 154.891 174.257C151.877 174.257 149.052 172.881 146.98 170.72C144.908 168.559 143.778 165.612 143.778 162.469C143.778 155.986 148.863 150.878 154.891 150.878C156.586 150.878 158.281 151.271 159.6 152.057C163.367 154.022 166.004 157.951 166.004 162.666Z" fill="#56C0D8"/>
<path d="M162.802 160.308C162.802 166.791 157.716 171.899 151.689 171.899C149.993 171.899 148.298 171.506 146.98 170.72C144.908 168.559 143.778 165.612 143.778 162.469C143.778 155.986 148.863 150.878 154.891 150.878C156.586 150.878 158.281 151.271 159.6 152.057C161.483 154.218 162.802 157.165 162.802 160.308Z" fill="white"/>
<path d="M190.303 180.936C190.303 187.419 185.217 192.527 179.189 192.527C176.176 192.527 173.35 191.152 171.278 188.991C169.206 186.83 168.076 183.883 168.076 180.739C168.076 174.256 173.162 169.149 179.189 169.149C180.885 169.149 182.58 169.541 183.898 170.327C187.666 172.292 190.303 176.221 190.303 180.936Z" fill="#56C0D8"/>
<path d="M187.101 178.578C187.101 185.061 182.015 190.169 175.987 190.169C174.292 190.169 172.597 189.776 171.278 188.991C169.206 186.83 168.076 183.883 168.076 180.739C168.076 174.256 173.162 169.149 179.189 169.149C180.885 169.149 182.58 169.541 183.898 170.327C185.97 172.488 187.101 175.435 187.101 178.578Z" fill="#56C0D8"/>
<path d="M48.2786 177.793C48.2786 184.276 43.1928 189.384 37.1653 189.384C34.1515 189.384 31.3261 188.008 29.2541 185.847C27.1822 183.686 26.052 180.739 26.052 177.596C26.052 171.113 31.1377 166.005 37.1653 166.005C38.8605 166.005 40.5558 166.398 41.8743 167.184C45.6415 169.149 48.2786 173.274 48.2786 177.793Z" fill="#56C0D8"/>
<path d="M45.0765 175.632C45.0765 182.115 39.9907 187.222 33.9632 187.222C32.2679 187.222 30.5727 186.83 29.2541 186.044C27.1822 183.883 26.052 180.936 26.052 177.793C26.052 171.31 31.1377 166.202 37.1653 166.202C38.8605 166.202 40.5558 166.595 41.8743 167.38C43.7579 169.345 45.0765 172.292 45.0765 175.632Z" fill="white"/>
<path d="M49.2204 160.897C49.2204 167.381 44.1346 172.488 38.1071 172.488C35.0933 172.488 32.2679 171.113 30.1959 168.952C28.124 166.791 26.9938 163.844 26.9938 160.701C26.9938 154.218 32.0796 149.11 38.1071 149.11C39.8023 149.11 41.4976 149.503 42.8161 150.289C46.5833 152.253 49.2204 156.183 49.2204 160.897Z" fill="#56C0D8"/>
<path d="M46.0183 158.54C46.0183 165.023 40.9325 170.131 34.905 170.131C33.2097 170.131 31.5145 169.738 30.1959 168.952C28.124 166.791 26.9938 163.844 26.9938 160.701C26.9938 154.218 32.0796 149.11 38.1071 149.11C39.8023 149.11 41.4976 149.503 42.8161 150.289C44.6997 152.45 46.0183 155.397 46.0183 158.54Z" fill="white"/>
<path d="M199.532 156.968C199.532 163.451 194.447 168.559 188.419 168.559C185.405 168.559 182.58 167.184 180.508 165.023C178.436 162.862 177.306 159.915 177.306 156.772C177.306 150.289 182.392 145.181 188.419 145.181C190.114 145.181 191.81 145.574 193.128 146.36C197.084 148.324 199.532 152.253 199.532 156.968Z" fill="#56C0D8"/>
<path d="M196.519 154.611C196.519 161.094 191.433 166.202 185.405 166.202C183.71 166.202 182.015 165.809 180.696 165.023C178.624 162.862 177.494 159.915 177.494 156.772C177.494 150.289 182.58 145.181 188.608 145.181C190.303 145.181 191.998 145.574 193.317 146.36C195.2 148.521 196.519 151.468 196.519 154.611Z" fill="#56C0D8"/>
<path d="M179.943 173.863C179.943 180.739 174.48 186.437 167.888 186.437C164.497 186.437 161.484 185.061 159.412 182.704C157.34 180.346 155.833 177.4 155.833 173.863C155.833 166.987 161.295 161.29 167.888 161.29C169.771 161.29 171.467 161.683 172.974 162.469C177.306 164.434 179.943 168.756 179.943 173.863Z" fill="#56C0D8"/>
<path d="M176.552 171.309C176.552 178.185 171.09 183.883 164.497 183.883C162.614 183.883 160.918 183.49 159.412 182.704C157.34 180.346 155.833 177.4 155.833 173.863C155.833 166.987 161.295 161.29 167.888 161.29C169.771 161.29 171.467 161.683 172.974 162.469C175.234 164.826 176.552 167.97 176.552 171.309Z" fill="#56C0D8"/>
<path d="M215.92 170.131C215.92 177.007 210.457 182.704 203.865 182.704C200.474 182.704 197.46 181.329 195.388 178.971C193.316 176.614 191.81 173.667 191.81 170.131C191.81 163.255 197.272 157.558 203.865 157.558C205.748 157.558 207.444 157.95 208.95 158.736C213.094 160.701 215.92 165.023 215.92 170.131Z" fill="#56C0D8"/>
<path d="M212.529 167.577C212.529 174.453 207.067 180.15 200.474 180.15C198.591 180.15 196.895 179.757 195.388 178.971C193.316 176.614 191.81 173.667 191.81 170.131C191.81 163.255 197.272 157.558 203.865 157.558C205.748 157.558 207.444 157.95 208.95 158.736C211.211 161.094 212.529 164.041 212.529 167.577Z" fill="white"/>
<path d="M91.4133 170.72C91.4133 178.578 85.1974 185.061 77.6629 185.061C73.8957 185.061 70.3169 183.49 67.8682 180.739C65.4195 178.186 63.9126 174.649 63.9126 170.72C63.9126 162.862 70.1285 156.379 77.6629 156.379C79.7349 156.379 81.8069 156.968 83.5021 157.754C88.2112 160.112 91.4133 165.023 91.4133 170.72Z" fill="#56C0D8"/>
<path d="M87.4577 167.97C87.4577 175.828 81.2418 182.311 73.7074 182.311C71.6354 182.311 69.5634 181.722 67.8682 180.936C65.4195 178.382 63.9126 174.846 63.9126 170.917C63.9126 163.058 70.1285 156.575 77.6629 156.575C79.7349 156.575 81.8069 157.165 83.5021 157.951C85.9508 160.504 87.4577 164.041 87.4577 167.97Z" fill="white"/>
<path d="M73.7073 178.382C73.7073 185.258 68.4332 190.759 61.8405 190.759C58.6384 190.759 55.6246 189.383 53.5527 187.222C51.4807 185.061 50.1622 181.918 50.1622 178.578C50.1622 171.702 55.4363 166.202 62.0289 166.202C63.9125 166.202 65.6078 166.595 67.1146 167.38C70.8819 169.148 73.7073 173.471 73.7073 178.382Z" fill="#56C0D8"/>
<path d="M70.3168 176.024C70.3168 182.9 65.0427 188.401 58.4501 188.401C56.5665 188.401 54.8712 188.008 53.3643 187.222C51.2924 185.061 49.9738 181.918 49.9738 178.578C49.9738 171.702 55.248 166.202 61.8406 166.202C63.7242 166.202 65.4194 166.595 66.9263 167.38C68.9983 169.541 70.3168 172.488 70.3168 176.024Z" fill="#56C0D8"/>
<path d="M56.1897 180.346C56.1897 187.222 50.9156 192.723 44.323 192.723C41.1209 192.723 38.1071 191.348 36.0351 189.187C33.9632 187.026 32.6446 183.883 32.6446 180.543C32.6446 173.667 37.9187 168.166 44.5114 168.166C46.395 168.166 48.0902 168.559 49.5971 169.345C53.5527 171.113 56.1897 175.435 56.1897 180.346Z" fill="#56C0D8"/>
<path d="M52.9876 177.989C52.9876 184.865 47.7135 190.366 41.1209 190.366C39.2373 190.366 37.542 189.973 36.0351 189.187C33.9632 187.026 32.6446 183.883 32.6446 180.543C32.6446 173.667 37.9187 168.166 44.5114 168.166C46.395 168.166 48.0902 168.559 49.5971 169.345C51.6691 171.506 52.9876 174.453 52.9876 177.989Z" fill="white"/>
<path d="M106.859 34.5762C105.164 42.6309 103.468 52.0608 92.5434 62.4729C91.2248 63.6517 90.6598 65.4198 90.6598 66.9914V72.0993H112.51L111.756 29.6648L106.859 34.5762Z" fill="#1189A1"/>
<path d="M106.859 34.5762C105.164 42.6309 103.468 52.0608 92.5434 62.4729C91.2248 63.6517 90.6598 65.4198 90.6598 66.9914V72.0993H112.51L111.756 29.6648L106.859 34.5762Z" stroke="#182052" stroke-miterlimit="10"/>
<path d="M132.099 34.5762C133.794 42.6309 135.49 52.0608 146.415 62.4729C147.733 63.6517 148.298 65.4198 148.298 66.9914V72.0993H126.448L127.202 29.6648L132.099 34.5762Z" fill="#1189A1"/>
<path d="M132.099 34.5762C133.794 42.6309 135.49 52.0608 146.415 62.4729C147.733 63.6517 148.298 65.4198 148.298 66.9914V72.0993H126.448L127.202 29.6648L132.099 34.5762Z" stroke="#182052" stroke-miterlimit="10"/>
<path d="M132.288 30.2543C132.288 43.8097 132.288 72.2958 132.288 72.2958H106.67C106.67 72.2958 106.67 43.8097 106.67 30.2543C106.67 16.6988 112.321 10.2158 119.479 2.9469C122.493 6.09019 125.13 9.03703 127.39 12.3768C130.404 16.8953 132.288 22.1996 132.288 30.2543Z" fill="white"/>
<path d="M119.479 2.75038C122.493 5.89368 125.13 8.84052 127.39 12.1803C130.404 16.8952 132.288 22.396 132.288 30.2542C132.288 43.8097 132.288 72.2958 132.288 72.2958H106.67C106.67 72.2958 106.67 43.8097 106.67 30.2542C106.67 16.5023 112.321 10.2157 119.479 2.75038ZM119.479 0L118.16 1.37519C111.568 8.25115 104.787 15.3236 104.787 30.2542V72.2958V74.2603H106.67H132.288H134.171V72.2958V30.2542C134.171 22.7889 132.476 16.6988 128.897 11.198C126.637 7.66178 123.811 4.51849 120.798 1.57165L119.479 0Z" fill="#182052"/>
<path d="M132.288 30.2542C132.288 43.8097 132.288 72.2958 132.288 72.2958H123.435C123.246 71.3135 123.246 70.1348 123.246 68.956C123.246 66.2057 123.246 63.2588 123.246 60.312C123.246 58.5439 123.246 56.5793 124.376 55.2041C124.942 54.4183 125.883 54.0254 126.637 53.2396C127.955 51.6679 127.955 49.3105 127.955 47.3459C127.767 40.6664 127.579 33.9869 127.39 27.3074C127.39 24.9499 127.202 22.396 127.202 20.0385C127.202 18.8598 127.202 17.4846 127.014 16.3059C127.014 15.3236 126.637 13.7519 127.014 12.5732C127.202 12.1803 127.39 11.9838 127.579 11.9838C130.404 16.8952 132.288 22.1995 132.288 30.2542Z" fill="#DAE7FF"/>
<path d="M119.479 30.4506C121.768 30.4506 123.623 28.5156 123.623 26.1286C123.623 23.7416 121.768 21.8066 119.479 21.8066C117.19 21.8066 115.335 23.7416 115.335 26.1286C115.335 28.5156 117.19 30.4506 119.479 30.4506Z" fill="white" stroke="#84A2FF" stroke-width="2" stroke-miterlimit="10"/>
<path d="M110.249 77.2071H103.092C102.527 77.2071 102.15 76.8142 102.15 76.2248V60.9013C102.15 58.3474 104.222 56.1863 106.67 56.1863C109.119 56.1863 111.191 58.3474 111.191 60.9013V76.2248C111.38 76.6178 110.814 77.2071 110.249 77.2071Z" fill="white" stroke="#182052" stroke-miterlimit="10"/>
<path d="M135.678 77.2071H128.52C127.955 77.2071 127.579 76.8142 127.579 76.2248V60.9013C127.579 58.3474 129.651 56.1863 132.099 56.1863C134.548 56.1863 136.62 58.3474 136.62 60.9013V76.2248C136.62 76.6178 136.243 77.2071 135.678 77.2071Z" fill="white" stroke="#182052" stroke-miterlimit="10"/>
<path d="M124.376 84.0831C124.376 87.0299 119.291 94.1023 119.291 94.1023C119.291 94.1023 114.205 87.0299 114.205 84.0831C114.205 81.1362 116.465 78.7787 119.291 78.7787C122.116 78.7787 124.376 81.1362 124.376 84.0831Z" fill="#6F4A9F"/>
<path d="M135.301 81.7257C135.301 83.4938 132.288 87.4229 132.288 87.4229C132.288 87.4229 129.274 83.2973 129.274 81.7257C129.274 80.154 130.592 78.5824 132.288 78.5824C133.983 78.7789 135.301 80.154 135.301 81.7257Z" fill="#6F4A9F"/>
<path d="M109.496 81.7257C109.496 83.4938 106.482 87.4229 106.482 87.4229C106.482 87.4229 103.657 83.4938 103.657 81.7257C103.657 79.9576 104.975 78.5824 106.67 78.5824C108.177 78.7789 109.496 80.154 109.496 81.7257Z" fill="#6F4A9F"/>
<path d="M120.421 33.7905C120.421 33.3976 120.044 33.0047 119.667 33.0047C119.291 33.0047 118.914 33.3976 118.914 33.7905V72.4923H120.421V33.7905Z" fill="#1189A1"/>
<path d="M106.482 175.632C106.482 185.258 98.9477 193.116 89.718 193.116C85.009 193.116 80.865 191.152 77.8513 188.008C74.8375 184.865 72.9539 180.543 72.9539 175.632C72.9539 166.005 80.4883 158.147 89.718 158.147C92.3551 158.147 94.6154 158.736 96.8757 159.915C102.527 162.666 106.482 168.559 106.482 175.632Z" fill="#56C0D8"/>
<path d="M101.773 172.095C101.773 181.722 94.2387 189.58 85.009 189.58C82.3719 189.58 80.1116 188.991 77.8513 188.008C74.8375 184.865 72.9539 180.543 72.9539 175.632C72.9539 166.005 80.4883 158.147 89.718 158.147C92.3551 158.147 94.6154 158.736 96.8757 159.915C99.8895 162.862 101.773 167.381 101.773 172.095Z" fill="white"/>
<path d="M61.8406 165.612C60.3337 173.667 53.5527 179.954 45.2648 179.954C40.5558 179.954 36.4118 177.989 33.3981 174.846C30.3843 171.703 28.5007 167.381 28.5007 162.469C28.5007 152.843 36.0351 144.985 45.2648 144.985C47.9018 144.985 50.1622 145.574 52.4225 146.753C56.3781 148.717 59.5802 152.253 61.0871 156.772" fill="#56C0D8"/>
<path d="M61.8406 165.612C60.3337 173.667 53.5527 179.954 45.2648 179.954C40.5558 179.954 36.4118 177.989 33.3981 174.846C30.3843 171.703 28.5007 167.381 28.5007 162.469C28.5007 152.843 36.0351 144.985 45.2648 144.985C47.9018 144.985 50.1622 145.574 52.4225 146.753C56.3781 148.717 59.5802 152.253 61.0871 156.772" stroke="#182052" stroke-miterlimit="10" stroke-linecap="round"/>
<path d="M57.5083 158.933C57.5083 168.559 49.9738 176.418 40.7442 176.418C38.1071 176.418 35.8468 175.828 33.5864 174.846C30.5727 171.703 28.6891 167.381 28.6891 162.469C28.6891 152.843 36.2235 144.985 45.4532 144.985C48.0902 144.985 50.3506 145.574 52.6109 146.753C55.6247 149.699 57.5083 154.022 57.5083 158.933Z" fill="white"/>
<path d="M127.955 175.042C127.955 184.668 120.421 192.527 111.191 192.527C106.482 192.527 102.338 190.562 99.3244 187.419C96.3106 184.276 94.427 179.954 94.427 175.042C94.427 165.416 101.961 157.558 111.191 157.558C113.828 157.558 116.088 158.147 118.349 159.326C124 162.076 127.955 168.166 127.955 175.042Z" fill="#56C0D8"/>
<path d="M123.246 171.703C123.246 181.329 115.712 189.187 106.482 189.187C103.845 189.187 101.585 188.598 99.3244 187.616C96.3106 184.472 94.427 180.15 94.427 175.239C94.427 165.612 101.961 157.754 111.191 157.754C113.828 157.754 116.088 158.344 118.349 159.522C121.363 162.469 123.246 166.791 123.246 171.703Z" fill="white"/>
<path d="M127.955 175.042C127.955 184.668 120.421 192.527 111.191 192.527C106.482 192.527 102.338 190.562 99.3244 187.419C96.3106 184.276 94.427 179.954 94.427 175.042C94.427 165.416 101.961 157.558 111.191 157.558C113.828 157.558 116.088 158.147 118.349 159.326C124 162.076 127.955 168.166 127.955 175.042Z" stroke="#182052" stroke-miterlimit="10" stroke-linecap="round" stroke-linejoin="round"/>
<path d="M142.836 179.757C142.836 186.437 137.562 191.938 131.157 191.938C127.955 191.938 124.942 190.562 122.87 188.401C120.798 186.24 119.479 183.097 119.479 179.757C119.479 173.078 124.753 167.577 131.157 167.577C132.853 167.577 134.548 167.97 136.055 168.756C140.199 170.72 142.836 174.846 142.836 179.757Z" fill="#56C0D8"/>
<path d="M139.634 177.4C139.634 184.079 134.36 189.58 127.955 189.58C126.26 189.58 124.565 189.187 123.058 188.401C120.986 186.24 119.667 183.097 119.667 179.757C119.667 173.078 124.941 167.577 131.346 167.577C133.041 167.577 134.736 167.97 136.243 168.756C138.315 170.917 139.634 174.06 139.634 177.4Z" fill="white"/>
<path d="M40.3674 180.543C40.3674 187.222 35.0933 192.723 28.6891 192.723C25.4869 192.723 22.4731 191.348 20.4012 189.187C18.3292 186.83 17.0107 183.883 17.0107 180.543C17.0107 173.863 22.2848 168.363 28.6891 168.363C30.3843 168.363 32.0796 168.756 33.5864 169.541C37.7304 171.506 40.3674 175.632 40.3674 180.543Z" fill="#56C0D8"/>
<path d="M37.1653 177.989C37.1653 184.669 31.8912 190.169 25.4869 190.169C23.7917 190.169 22.0964 189.776 20.5895 188.991C18.3292 186.83 17.0107 183.883 17.0107 180.543C17.0107 173.863 22.2848 168.363 28.6891 168.363C30.3843 168.363 32.0796 168.756 33.5864 169.541C35.8468 171.702 37.1653 174.649 37.1653 177.989Z" fill="white"/>
<path d="M167.699 179.364C167.699 186.044 162.425 191.545 156.021 191.545C152.819 191.545 149.805 190.169 147.733 188.008C145.661 185.847 144.343 182.704 144.343 179.364C144.343 172.685 149.617 167.184 156.021 167.184C157.716 167.184 159.411 167.577 160.918 168.363C164.874 170.327 167.699 174.453 167.699 179.364Z" fill="#56C0D8"/>
<path d="M164.309 176.81C164.309 183.49 159.035 188.991 152.631 188.991C150.935 188.991 149.24 188.598 147.733 187.812C145.661 185.651 144.343 182.508 144.343 179.168C144.343 172.488 149.617 166.988 156.021 166.988C157.716 166.988 159.412 167.38 160.918 168.166C163.179 170.524 164.309 173.471 164.309 176.81Z" fill="white"/>
<path d="M215.166 177.989C215.166 184.669 209.892 190.169 203.488 190.169C200.286 190.169 197.272 188.794 195.2 186.633C193.128 184.472 191.81 181.329 191.81 177.989C191.81 171.31 197.084 165.809 203.488 165.809C205.183 165.809 206.878 166.202 208.385 166.988C212.341 168.756 215.166 173.078 215.166 177.989Z" fill="#56C0D8"/>
<path d="M211.776 175.435C211.776 182.115 206.502 187.615 200.097 187.615C198.402 187.615 196.707 187.223 195.2 186.437C193.128 184.276 191.81 181.132 191.81 177.793C191.81 171.113 197.084 165.612 203.488 165.612C205.183 165.612 206.878 166.005 208.385 166.791C210.457 169.149 211.776 172.095 211.776 175.435Z" fill="#56C0D8"/>
<path d="M194.07 163.844C194.07 170.524 188.796 176.024 182.392 176.024C179.189 176.024 176.176 174.649 174.104 172.488C172.032 170.327 170.713 167.184 170.713 163.844C170.713 157.165 175.987 151.664 182.392 151.664C184.087 151.664 185.782 152.057 187.289 152.843C191.433 154.807 194.07 158.933 194.07 163.844Z" fill="#56C0D8"/>
<path d="M190.868 161.487C190.868 168.166 185.594 173.667 179.189 173.667C177.494 173.667 175.799 173.274 174.292 172.488C172.22 170.327 170.902 167.184 170.902 163.844C170.902 157.165 176.176 151.664 182.58 151.664C184.275 151.664 185.97 152.057 187.477 152.843C189.549 155.004 190.868 158.147 190.868 161.487Z" fill="white"/>
<path d="M209.327 151.075C209.327 157.754 204.053 163.255 197.649 163.255C194.447 163.255 191.433 161.88 189.361 159.719C187.289 157.558 185.97 154.414 185.97 151.075C185.97 144.395 191.245 138.894 197.649 138.894C199.344 138.894 201.039 139.287 202.546 140.073C206.69 142.038 209.327 146.163 209.327 151.075Z" fill="#56C0D8"/>
<path d="M206.125 148.521C206.125 155.2 200.851 160.701 194.447 160.701C192.751 160.701 191.056 160.308 189.549 159.522C187.477 157.361 186.159 154.218 186.159 150.878C186.159 144.199 191.433 138.698 197.837 138.698C199.532 138.698 201.228 139.091 202.735 139.877C204.806 142.234 206.125 145.181 206.125 148.521Z" fill="white"/>
<path d="M135.49 175.042C135.49 179.757 131.911 183.49 127.39 183.49C125.13 183.49 123.058 182.508 121.739 180.936C120.233 179.364 119.479 177.4 119.479 175.042C119.479 170.327 123.058 166.595 127.579 166.595C128.897 166.595 130.027 166.791 130.969 167.381C133.606 168.756 135.49 171.703 135.49 175.042Z" fill="#56C0D8"/>
<path d="M133.229 173.274C133.229 177.989 129.651 181.722 125.13 181.722C123.811 181.722 122.681 181.525 121.739 180.936C120.233 179.364 119.479 177.4 119.479 175.042C119.479 170.327 123.058 166.595 127.579 166.595C128.897 166.595 130.027 166.791 130.969 167.381C132.288 168.952 133.229 171.113 133.229 173.274Z" fill="white"/>
<path d="M221.006 163.451C221.006 168.166 217.427 171.899 212.906 171.899C210.646 171.899 208.574 170.917 207.255 169.345C205.748 167.773 204.995 165.809 204.995 163.451C204.995 158.736 208.574 155.004 213.094 155.004C214.413 155.004 215.543 155.2 216.485 155.79C219.122 157.165 221.006 160.112 221.006 163.451Z" fill="#56C0D8"/>
<path d="M218.745 161.88C218.745 166.595 215.166 170.327 210.646 170.327C209.327 170.327 208.197 170.131 207.255 169.541C205.748 167.97 204.995 166.005 204.995 163.648C204.995 158.933 208.574 155.2 213.094 155.2C214.413 155.2 215.543 155.397 216.485 155.986C217.803 157.361 218.745 159.522 218.745 161.88Z" fill="white"/>
<path d="M80.4883 170.327C80.4883 175.042 76.9095 178.775 72.3888 178.775C70.1285 178.775 68.0565 177.793 66.738 176.221C65.2311 174.649 64.4777 172.685 64.4777 170.327C64.4777 165.612 68.0565 161.88 72.5772 161.88C73.8957 161.88 75.0259 162.076 75.9677 162.666C78.6047 164.041 80.4883 166.791 80.4883 170.327Z" fill="#56C0D8"/>
<path d="M78.228 168.559C78.228 173.274 74.6492 177.007 70.1285 177.007C68.81 177.007 67.6798 176.81 66.738 176.221C65.2311 174.649 64.4777 172.685 64.4777 170.327C64.4777 165.612 68.0565 161.88 72.5772 161.88C73.8957 161.88 75.0259 162.076 75.9677 162.666C77.2862 164.237 78.228 166.202 78.228 168.559Z" fill="white"/>
<path d="M25.2985 181.329C25.2985 186.044 21.7197 189.776 17.199 189.776C14.9387 189.776 12.8667 188.794 11.5482 187.223C10.0413 185.651 9.28787 183.686 9.28787 181.329C9.09951 176.81 12.6784 172.881 17.199 172.881C18.5176 172.881 19.6477 173.078 20.5895 173.667C23.4149 175.042 25.2985 177.989 25.2985 181.329Z" fill="#56C0D8"/>
<path d="M23.0382 179.757C23.0382 184.472 19.4594 188.205 14.9387 188.205C13.6202 188.205 12.49 188.008 11.5482 187.419C10.0413 185.847 9.28787 183.883 9.28787 181.525C9.09951 176.81 12.6784 172.881 17.199 172.881C18.5176 172.881 19.6477 173.078 20.5895 173.667C22.0964 175.239 23.0382 177.4 23.0382 179.757Z" fill="white"/>
<path d="M30.1959 168.559C30.1959 173.274 26.6171 177.007 22.0964 177.007C19.8361 177.007 17.7641 176.025 16.4456 174.453C14.9387 172.881 14.1852 170.917 14.1852 168.559C14.1852 163.844 17.7641 160.112 22.2848 160.112C23.6033 160.112 24.7335 160.308 25.6753 160.897C28.3123 162.273 30.1959 165.219 30.1959 168.559Z" fill="#56C0D8"/>
<path d="M27.9356 166.988C27.9356 171.702 24.3567 175.435 19.8361 175.435C18.5175 175.435 17.3874 175.239 16.4456 174.649C14.9387 173.078 14.1852 171.113 14.1852 168.756C14.1852 164.041 17.7641 160.308 22.2848 160.308C23.6033 160.308 24.7335 160.505 25.6753 161.094C26.9938 162.469 27.9356 164.63 27.9356 166.988Z" fill="white"/>
<path d="M59.3919 165.416C59.3919 170.131 55.813 173.863 51.2924 173.863C49.0321 173.863 46.9601 172.881 45.6416 171.31C44.1347 169.738 43.3812 167.773 43.3812 165.416C43.3812 160.701 46.9601 156.968 51.4807 156.968C52.7993 156.968 53.9294 157.165 54.8712 157.754C57.5083 159.129 59.3919 162.076 59.3919 165.416Z" fill="#56C0D8"/>
<path d="M57.1316 163.844C57.1316 168.559 53.5527 172.292 49.0321 172.292C47.7135 172.292 46.5834 172.096 45.6416 171.506C44.1347 169.934 43.3812 167.97 43.3812 165.612C43.3812 160.898 46.9601 157.165 51.4807 157.165C52.7993 157.165 53.9294 157.361 54.8712 157.951C56.1898 159.326 57.1316 161.487 57.1316 163.844Z" fill="white"/>
<path d="M175.611 150.289C175.611 152.253 174.104 153.825 172.22 153.825C171.278 153.825 170.336 153.432 169.771 152.843C169.206 152.253 168.83 151.271 168.83 150.289C168.83 148.324 170.336 146.753 172.22 146.753C172.785 146.753 173.162 146.949 173.727 147.145C174.857 147.735 175.611 148.914 175.611 150.289Z" fill="#56C0D8"/>
<path d="M174.669 149.699C174.669 151.664 173.162 153.236 171.278 153.236C170.713 153.236 170.336 153.039 169.771 152.843C169.206 152.253 168.83 151.271 168.83 150.289C168.83 148.324 170.336 146.753 172.22 146.753C172.785 146.753 173.162 146.949 173.727 147.145C174.292 147.735 174.669 148.717 174.669 149.699Z" fill="white"/>
<path d="M224.584 183.883C224.584 185.847 223.078 187.419 221.194 187.419C220.252 187.419 219.31 187.026 218.745 186.437C218.18 185.847 217.803 184.865 217.803 183.883C217.803 181.918 219.31 180.347 221.194 180.347C221.759 180.347 222.136 180.543 222.701 180.74C223.831 181.329 224.584 182.508 224.584 183.883Z" fill="#56C0D8"/>
<path d="M223.643 183.294C223.643 185.258 222.136 186.83 220.252 186.83C219.687 186.83 219.31 186.633 218.745 186.437C218.18 185.847 217.803 184.865 217.803 183.883C217.803 181.918 219.31 180.347 221.194 180.347C221.759 180.347 222.136 180.543 222.701 180.74C223.266 181.329 223.643 182.311 223.643 183.294Z" fill="white"/>
<path d="M141.894 152.646C141.894 154.611 140.387 156.183 138.504 156.183C137.562 156.183 136.62 155.79 136.055 155.2C135.49 154.611 135.113 153.629 135.113 152.646C135.113 150.682 136.62 149.11 138.504 149.11C139.069 149.11 139.445 149.307 140.01 149.503C141.141 150.092 141.894 151.271 141.894 152.646Z" fill="#56C0D8"/>
<path d="M140.952 152.057C140.952 154.022 139.445 155.593 137.562 155.593C136.997 155.593 136.62 155.397 136.055 155.2C135.49 154.611 135.113 153.629 135.113 152.646C135.113 150.682 136.62 149.11 138.504 149.11C139.069 149.11 139.445 149.307 140.01 149.503C140.575 150.092 140.952 151.075 140.952 152.057Z" fill="white"/>
<path d="M65.4194 175.632C65.4194 177.596 63.9125 179.168 62.0289 179.168C61.0871 179.168 60.1453 178.775 59.5802 178.185C59.0151 177.596 58.6384 176.614 58.6384 175.632C58.6384 173.667 60.1453 172.095 62.0289 172.095C62.594 172.095 62.9707 172.292 63.5358 172.488C64.4776 173.078 65.4194 174.256 65.4194 175.632Z" fill="#56C0D8"/>
<path d="M64.4776 175.042C64.4776 177.007 62.9707 178.578 61.0871 178.578C60.522 178.578 60.1453 178.382 59.5802 178.185C59.0151 177.596 58.6384 176.614 58.6384 175.632C58.6384 173.667 60.1453 172.095 62.0289 172.095C62.594 172.095 62.9707 172.292 63.5358 172.488C64.1009 173.078 64.4776 174.06 64.4776 175.042Z" fill="white"/>
<path d="M76.156 145.574C76.156 147.538 74.6491 149.11 72.7655 149.11C71.8237 149.11 70.8819 148.717 70.3168 148.128C69.7517 147.538 69.375 146.556 69.375 145.574C69.375 143.609 70.8819 142.038 72.7655 142.038C73.3306 142.038 73.7073 142.234 74.2724 142.431C75.4025 142.824 76.156 144.199 76.156 145.574Z" fill="#56C0D8"/>
<path d="M75.2142 144.788C75.2142 146.752 73.7073 148.324 71.8237 148.324C71.2586 148.324 70.8819 148.128 70.3168 147.931C69.7517 147.342 69.375 146.36 69.375 145.377C69.375 143.413 70.8819 141.841 72.7655 141.841C73.3305 141.841 73.7073 142.038 74.2724 142.234C74.8374 143.02 75.2142 143.806 75.2142 144.788Z" fill="white"/>
<path d="M7.96932 173.078C7.96932 175.042 6.46243 176.614 4.57882 176.614C3.63702 176.614 2.69521 176.221 2.13013 175.632C1.56505 175.042 1.18832 174.06 1.18832 173.078C1.18832 171.113 2.69521 169.542 4.57882 169.542C5.1439 169.542 5.52063 169.738 6.08571 169.934C7.02751 170.327 7.96932 171.703 7.96932 173.078Z" fill="#56C0D8"/>
<path d="M7.02751 172.292C7.02751 174.256 5.52063 175.828 3.63702 175.828C3.07193 175.828 2.69521 175.632 2.13013 175.435C1.56505 174.846 1.18832 173.863 1.18832 172.881C1.18832 170.917 2.69521 169.345 4.57882 169.345C5.1439 169.345 5.52063 169.541 6.08571 169.738C6.46243 170.524 7.02751 171.309 7.02751 172.292Z" fill="white"/>
<path d="M182.392 138.894C182.392 139.877 181.638 140.466 180.885 140.466C180.508 140.466 180.131 140.27 179.755 140.073C179.566 139.877 179.378 139.287 179.378 138.894C179.378 137.912 180.131 137.323 180.885 137.323C181.073 137.323 181.261 137.323 181.638 137.519C182.015 137.716 182.392 138.305 182.392 138.894Z" fill="#56C0D8"/>
<path d="M182.015 138.502C182.015 139.484 181.261 140.073 180.508 140.073C180.32 140.073 180.131 140.073 179.755 139.877C179.566 139.68 179.378 139.091 179.378 138.698C179.378 137.716 180.131 137.126 180.885 137.126C181.073 137.126 181.261 137.126 181.638 137.323C181.826 137.716 182.015 138.109 182.015 138.502Z" fill="white"/>
<path d="M224.208 147.146C224.208 148.128 223.454 148.717 222.701 148.717C222.324 148.717 221.947 148.521 221.571 148.324C221.382 148.128 221.194 147.538 221.194 147.146C221.194 146.163 221.947 145.574 222.701 145.574C222.889 145.574 223.078 145.574 223.454 145.77C223.831 145.967 224.208 146.556 224.208 147.146Z" fill="#56C0D8"/>
<path d="M223.831 146.949C223.831 147.931 223.078 148.521 222.324 148.521C222.136 148.521 221.947 148.521 221.571 148.324C221.382 148.128 221.194 147.538 221.194 147.146C221.194 146.163 221.947 145.574 222.701 145.574C222.889 145.574 223.078 145.574 223.454 145.77C223.643 145.967 223.831 146.36 223.831 146.949Z" fill="white"/>
<path d="M47.1485 162.862C47.1485 163.844 46.395 164.434 45.6416 164.434C45.2649 164.434 44.8881 164.237 44.5114 164.041C44.3231 163.844 44.1347 163.255 44.1347 162.862C44.1347 161.88 44.8882 161.29 45.6416 161.29C45.83 161.29 46.0183 161.29 46.395 161.487C46.7718 161.487 47.1485 162.076 47.1485 162.862Z" fill="#56C0D8"/>
<path d="M46.7718 162.469C46.7718 163.451 46.0183 164.041 45.2649 164.041C45.0765 164.041 44.8881 164.041 44.5114 163.844C44.3231 163.648 44.1347 163.058 44.1347 162.666C44.1347 161.683 44.8882 161.094 45.6416 161.094C45.83 161.094 46.0183 161.094 46.395 161.29C46.5834 161.683 46.7718 162.076 46.7718 162.469Z" fill="white"/>
<path d="M191.621 160.897C191.621 161.88 190.868 162.469 190.114 162.469C189.738 162.469 189.361 162.273 188.984 162.076C188.796 161.88 188.607 161.29 188.607 160.897C188.607 159.915 189.361 159.326 190.114 159.326C190.303 159.326 190.491 159.326 190.868 159.522C191.244 159.719 191.621 160.308 191.621 160.897Z" fill="#56C0D8"/>
<path d="M191.244 160.701C191.244 161.683 190.491 162.273 189.738 162.273C189.549 162.273 189.361 162.273 188.984 162.076C188.796 161.88 188.607 161.29 188.607 160.897C188.607 159.915 189.361 159.326 190.114 159.326C190.303 159.326 190.491 159.326 190.868 159.522C191.056 159.915 191.244 160.308 191.244 160.701Z" fill="white"/>
<path d="M49.5972 137.716C49.5972 138.501 49.0321 139.091 48.2786 139.091C47.9019 139.091 47.5252 138.894 47.3368 138.698C47.1485 138.501 46.9601 138.109 46.9601 137.716C46.9601 136.93 47.5252 136.34 48.2786 136.34C48.467 136.34 48.6554 136.34 48.8437 136.537C49.2204 136.733 49.5972 137.126 49.5972 137.716Z" fill="#56C0D8"/>
<path d="M49.2204 137.519C49.2204 138.305 48.6554 138.894 47.9019 138.894C47.7136 138.894 47.5252 138.894 47.3368 138.698C47.1485 138.501 46.9601 138.109 46.9601 137.716C46.9601 136.93 47.5252 136.34 48.2786 136.34C48.467 136.34 48.6554 136.34 48.8437 136.537C49.0321 136.733 49.2204 137.126 49.2204 137.519Z" fill="white"/>
<path d="M5.33237 155.593C5.33237 156.379 4.76728 156.968 4.01384 156.968C3.63712 156.968 3.2604 156.772 3.07203 156.575C2.88367 156.379 2.69531 155.986 2.69531 155.593C2.69531 154.807 3.2604 154.218 4.01384 154.218C4.2022 154.218 4.39056 154.218 4.57892 154.414C4.95564 154.611 5.33237 155.2 5.33237 155.593Z" fill="#56C0D8"/>
<path d="M4.95564 155.397C4.95564 156.182 4.39056 156.772 3.63712 156.772C3.44876 156.772 3.2604 156.772 3.07203 156.575C2.88367 156.379 2.69531 155.986 2.69531 155.593C2.69531 154.807 3.2604 154.218 4.01384 154.218C4.2022 154.218 4.39056 154.218 4.57892 154.414C4.76728 154.611 4.95564 155.004 4.95564 155.397Z" fill="white"/>
<path d="M206.502 175.632C206.502 185.258 198.967 193.116 189.738 193.116C185.029 193.116 180.885 191.152 177.871 188.008C174.857 184.865 172.973 180.543 172.973 175.632C172.973 166.005 180.508 158.147 189.738 158.147C192.375 158.147 194.635 158.736 196.895 159.915C202.546 162.469 206.502 168.559 206.502 175.632Z" fill="#56C0D8"/>
<path d="M201.793 172.095C201.793 181.722 194.258 189.58 185.029 189.58C182.392 189.58 180.131 188.991 177.871 188.008C174.857 184.865 172.973 180.543 172.973 175.632C172.973 166.005 180.508 158.147 189.738 158.147C192.375 158.147 194.635 158.736 196.895 159.915C199.909 162.862 201.793 167.184 201.793 172.095Z" fill="white"/>
<path d="M178.624 162.469C179.189 161.88 179.943 161.29 180.508 160.898" stroke="#182052" stroke-miterlimit="10" stroke-linecap="round" stroke-linejoin="round"/>
<path d="M184.275 159.129C185.97 158.54 187.854 158.147 189.738 158.147C192.375 158.147 194.635 158.736 196.895 159.915C202.546 162.666 206.502 168.756 206.502 175.828C206.502 185.454 198.967 193.313 189.738 193.313C185.029 193.313 180.885 191.348 177.871 188.205C174.857 185.062 172.973 180.74 172.973 175.828C172.973 173.471 173.539 171.113 174.292 168.952" stroke="#182052" stroke-miterlimit="10" stroke-linecap="round" stroke-linejoin="round"/>
<path d="M215.731 171.31C218.745 170.131 221.006 166.988 221.006 163.451C221.006 160.112 219.122 157.165 216.297 155.79C215.166 155.2 214.036 155.004 212.906 155.004C211.022 155.004 209.327 155.79 207.82 156.968C208.762 155.2 209.327 153.236 209.327 151.075C209.327 146.163 206.502 142.038 202.546 140.073C201.039 139.287 199.344 138.894 197.649 138.894C193.128 138.894 189.173 141.448 187.289 145.378C183.145 145.77 179.566 148.717 178.059 152.646C174.48 154.218 171.655 157.558 170.902 161.88C169.96 161.683 169.018 161.487 167.888 161.487C167.134 161.487 166.381 161.487 165.816 161.683C165.439 157.558 162.99 154.022 159.412 152.253C157.905 151.468 156.398 151.075 154.703 151.075C153.196 151.075 151.689 151.468 150.182 152.057C148.675 147.931 145.661 144.395 141.706 142.627C139.445 141.645 137.185 140.859 134.548 140.859C133.041 140.859 131.534 141.056 130.027 141.448C130.027 134.572 126.26 128.875 120.609 126.125C118.349 125.143 116.089 124.357 113.452 124.357C104.222 124.357 96.6874 132.215 96.6874 141.841C96.6874 142.234 96.6874 142.431 96.6874 142.824C95.1805 142.431 93.6736 142.234 92.1667 142.234C83.8788 142.234 77.0978 148.521 75.591 156.576C72.9539 156.968 70.5052 158.147 68.4332 159.915C66.738 157.754 64.666 155.79 62.2173 154.611C61.4639 154.218 60.5221 153.825 59.7686 153.629C58.0734 150.485 55.4363 147.931 52.4226 146.36C50.1622 145.378 47.9019 144.592 45.2648 144.592C40.5558 144.592 36.2235 146.753 33.0214 150.092C29.2542 151.861 26.4288 155.986 26.4288 160.701C26.4288 160.898 26.4288 161.29 26.4288 161.487C26.052 161.29 25.6753 160.898 25.2986 160.701C24.1684 160.112 23.0383 159.915 21.9081 159.915C17.3874 159.915 13.8086 163.648 13.8086 168.363C13.8086 170.131 14.3737 171.703 15.1271 172.881C11.5482 173.667 8.91119 177.007 8.91119 181.133C8.91119 183.49 9.853 185.651 11.1715 187.026C12.6784 188.598 14.7504 189.58 16.8224 189.58C17.9525 189.58 19.0827 189.384 20.0245 188.794C22.0965 190.955 25.1102 192.331 28.3124 192.331C31.3261 192.331 34.1516 191.152 36.2235 189.187C38.2955 191.152 41.1209 192.331 44.1347 192.331C47.9019 192.331 51.2924 190.562 53.3644 187.616C53.5527 187.616 53.9295 187.616 54.1178 187.616C56.1898 189.384 58.6385 190.366 61.4639 190.366C65.9845 190.366 69.9401 187.616 72.0121 183.686C72.9539 184.079 74.0841 184.472 75.2142 184.669C75.7793 185.651 76.5328 186.83 77.4746 187.616C80.4883 190.759 84.6323 192.723 89.3413 192.723C93.4852 192.723 97.4408 191.152 100.266 188.401C103.657 191.152 107.236 192.527 111.191 192.527C115.523 192.527 119.667 190.759 122.493 187.812C122.681 188.008 122.681 188.008 122.87 188.205C124.942 190.366 127.955 191.741 131.157 191.741C135.301 191.741 138.88 189.58 140.952 186.24C143.213 187.419 145.661 188.008 148.11 188.008C150.182 189.973 153.007 191.152 156.021 191.152C159.977 191.152 163.556 188.991 165.627 185.847C166.381 186.044 167.134 186.044 167.888 186.044C168.265 186.044 168.641 186.044 169.018 186.044C169.583 187.026 170.148 188.008 171.09 188.991C173.162 191.152 175.987 192.527 179.001 192.527C180.508 192.527 182.015 192.134 183.333 191.741C185.217 192.527 187.477 193.116 189.738 193.116C193.505 193.116 197.084 191.741 199.909 189.58C201.039 189.973 202.17 190.17 203.488 190.17C209.892 190.17 215.166 184.669 215.166 177.989C215.166 177.007 214.978 176.221 214.79 175.239C215.355 174.06 215.731 172.685 215.731 171.31Z" stroke="#182052" stroke-miterlimit="10"/>
<path d="M172.22 154.021C174.104 154.021 175.611 152.45 175.611 150.485C175.611 149.11 174.857 147.735 173.539 147.145C173.162 146.949 172.597 146.753 172.032 146.753C170.148 146.753 168.641 148.324 168.641 150.289C168.641 151.271 169.018 152.253 169.583 152.843C170.336 153.628 171.278 154.021 172.22 154.021Z" stroke="#182052" stroke-miterlimit="10"/>
<path d="M222.701 180.74C222.324 180.543 221.759 180.347 221.194 180.347C219.31 180.347 217.803 181.918 217.803 183.883C217.803 184.865 218.18 185.847 218.745 186.437C219.31 187.026 220.252 187.419 221.194 187.419C223.078 187.419 224.584 185.847 224.584 183.883C224.584 182.508 223.831 181.329 222.701 180.74Z" stroke="#182052" stroke-miterlimit="10"/>
<path d="M72.7655 149.11C74.6491 149.11 76.156 147.538 76.156 145.574C76.156 144.199 75.4026 142.823 74.084 142.234C73.7073 142.038 73.1422 141.841 72.5771 141.841C70.6935 141.841 69.1866 143.413 69.1866 145.377C69.1866 146.36 69.5634 147.342 70.1285 147.931C70.8819 148.717 71.8237 149.11 72.7655 149.11Z" stroke="#182052" stroke-miterlimit="10"/>
<path d="M5.89738 169.738C5.52066 169.541 4.95558 169.345 4.3905 169.345C2.50689 169.345 1 170.917 1 172.881C1 173.863 1.37672 174.846 1.9418 175.435C2.50689 176.024 3.44869 176.417 4.3905 176.417C6.27411 176.417 7.78099 174.846 7.78099 172.881C7.96935 171.702 7.02755 170.327 5.89738 169.738Z" stroke="#182052" stroke-miterlimit="10"/>
<path d="M222.701 148.717C223.643 148.717 224.208 147.931 224.208 147.145C224.208 146.556 223.831 145.967 223.266 145.77C223.078 145.574 222.889 145.574 222.512 145.574C221.571 145.574 221.006 146.36 221.006 147.145C221.006 147.538 221.194 147.931 221.382 148.324C221.947 148.521 222.324 148.717 222.701 148.717Z" stroke="#182052" stroke-miterlimit="10"/>
<path d="M4.01384 157.165C4.76728 157.165 5.33237 156.575 5.33237 155.79C5.33237 155.2 4.95564 154.807 4.57892 154.611C4.39056 154.611 4.2022 154.414 4.01384 154.414C3.2604 154.414 2.69531 155.004 2.69531 155.79C2.69531 156.182 2.88367 156.575 3.07203 156.772C3.2604 156.968 3.63712 157.165 4.01384 157.165Z" stroke="#182052" stroke-miterlimit="10"/>
<path d="M111.38 167.773C114.188 167.773 116.465 165.399 116.465 162.469C116.465 159.54 114.188 157.165 111.38 157.165C108.571 157.165 106.294 159.54 106.294 162.469C106.294 165.399 108.571 167.773 111.38 167.773Z" fill="#F4F7FC"/>
<path d="M52.7992 162.469C55.608 162.469 57.885 160.094 57.885 157.165C57.885 154.235 55.608 151.861 52.7992 151.861C49.9904 151.861 47.7135 154.235 47.7135 157.165C47.7135 160.094 49.9904 162.469 52.7992 162.469Z" fill="#F4F7FC"/>
<path d="M34.5283 178.578C36.5048 178.578 38.1071 176.907 38.1071 174.846C38.1071 172.784 36.5048 171.113 34.5283 171.113C32.5517 171.113 30.9494 172.784 30.9494 174.846C30.9494 176.907 32.5517 178.578 34.5283 178.578Z" fill="#F4F7FC"/>
<path d="M42.6277 165.809C43.668 165.809 44.5113 164.929 44.5113 163.844C44.5113 162.759 43.668 161.88 42.6277 161.88C41.5874 161.88 40.7441 162.759 40.7441 163.844C40.7441 164.929 41.5874 165.809 42.6277 165.809Z" fill="#84A2FF"/>
<path d="M120.986 149.896C121.922 149.896 122.681 149.104 122.681 148.128C122.681 147.151 121.922 146.36 120.986 146.36C120.05 146.36 119.291 147.151 119.291 148.128C119.291 149.104 120.05 149.896 120.986 149.896Z" fill="url(#paint2_linear_47941_1266)"/>
<path d="M234.002 155.593C234.939 155.593 235.698 154.801 235.698 153.825C235.698 152.848 234.939 152.057 234.002 152.057C233.066 152.057 232.307 152.848 232.307 153.825C232.307 154.801 233.066 155.593 234.002 155.593Z" fill="url(#paint3_linear_47941_1266)"/>
<path d="M188.042 175.828C188.771 175.828 189.361 175.212 189.361 174.453C189.361 173.693 188.771 173.078 188.042 173.078C187.314 173.078 186.724 173.693 186.724 174.453C186.724 175.212 187.314 175.828 188.042 175.828Z" fill="#84A2FF"/>
<defs>
<linearGradient id="paint0_linear_47941_1266" x1="15.9293" y1="146.941" x2="18.3053" y2="146.941" gradientUnits="userSpaceOnUse">
<stop stop-color="#6F4A9F"/>
</linearGradient>
<linearGradient id="paint1_linear_47941_1266" x1="36.7072" y1="78.7985" x2="197.004" y2="78.7985" gradientUnits="userSpaceOnUse">
<stop stop-color="#6F88FF"/>
<stop offset="1" stop-color="#6E88FF" stop-opacity="0"/>
</linearGradient>
<linearGradient id="paint2_linear_47941_1266" x1="119.361" y1="148.067" x2="122.77" y2="148.067" gradientUnits="userSpaceOnUse">
<stop stop-color="#6F4A9F"/>
</linearGradient>
<linearGradient id="paint3_linear_47941_1266" x1="232.22" y1="153.88" x2="235.629" y2="153.88" gradientUnits="userSpaceOnUse">
<stop stop-color="#6F4A9F"/>
</linearGradient>
</defs>
</svg>
