<svg width="251" height="199" viewBox="0 0 251 199" fill="none" xmlns="http://www.w3.org/2000/svg">
<path d="M223.931 100.715C223.931 123.016 216.334 143.542 203.738 160.12C196.74 169.001 188.342 176.896 178.745 183.014C163.15 193.079 144.556 199 124.562 199C69.5788 199 25.1924 154.989 25.1924 100.912C25.1924 46.6381 69.7787 2.82416 124.562 2.82416C144.556 2.82416 163.15 8.74496 178.745 18.613C188.342 24.7311 196.74 32.6255 203.738 41.5067C216.534 57.8876 223.931 78.413 223.931 100.715Z" fill="#56C0D8"/>
<path opacity="0.2" d="M203.738 41.3093V159.923C196.74 168.804 188.343 176.698 178.746 182.816H77.7767V34.5991C77.9766 30.2572 79.7761 26.31 82.5752 23.5469C85.7742 20.3892 89.9729 18.6129 94.7715 18.6129H178.746C188.343 24.7311 196.94 32.4281 203.738 41.3093Z" fill="#56C0D8"/>
<path d="M185.543 39.7307H128.761V18.6132H203.338C203.538 18.6132 203.738 18.6132 203.738 18.6132C215.334 18.8105 224.731 28.2838 224.731 39.928H200.139" fill="#1189A1"/>
<path d="M205.338 18.6132C200.939 18.8105 196.94 20.7841 193.941 23.5472C193.741 23.7445 193.341 24.1392 193.141 24.534C190.542 27.4944 188.743 31.4416 188.743 35.5861V161.897C188.743 173.738 179.146 183.211 167.149 183.211H62.3816V34.5993C62.5815 30.2574 64.381 26.3102 67.1801 23.5472C70.3791 20.3894 74.5778 18.6132 79.3764 18.6132H184.544H204.538C204.938 18.6132 205.138 18.6132 205.338 18.6132Z" fill="white"/>
<path d="M205.337 18.6132C200.938 18.8105 196.939 20.7841 193.94 23.5472C193.74 23.7445 193.341 24.1392 193.141 24.534C190.541 27.4944 188.742 31.4416 188.742 35.5861V161.897" stroke="#182052" stroke-miterlimit="10" stroke-linecap="round" stroke-linejoin="round"/>
<path d="M167.749 47.4276H136.758C135.559 47.4276 134.759 46.4408 134.759 45.454C134.759 44.4672 135.759 43.4804 136.758 43.4804H167.949C169.148 43.4804 169.948 44.4672 169.948 45.454C169.948 46.4408 168.949 47.4276 167.749 47.4276Z" fill="#1189A1"/>
<path d="M122.163 47.4276H81.5759C80.3762 47.4276 79.5765 46.4408 79.5765 45.454C79.5765 44.4672 80.5762 43.4804 81.5759 43.4804H122.163C123.363 43.4804 124.163 44.4672 124.163 45.454C124.163 46.4408 123.363 47.4276 122.163 47.4276Z" fill="#1189A1"/>
<path d="M148.154 67.3608H107.767C106.567 67.3608 105.767 66.374 105.767 65.3872C105.767 64.2031 106.767 63.4136 107.767 63.4136H148.154C149.354 63.4136 150.154 64.4004 150.154 65.3872C150.154 66.5714 149.354 67.3608 148.154 67.3608Z" fill="#1189A1"/>
<path d="M94.7718 67.3608H81.5759C80.3762 67.3608 79.5765 66.374 79.5765 65.3872C79.5765 64.2031 80.5762 63.4136 81.5759 63.4136H94.7718C95.9714 63.4136 96.7712 64.4004 96.7712 65.3872C96.7712 66.5714 95.7715 67.3608 94.7718 67.3608Z" fill="#1189A1"/>
<path d="M167.749 87.4916H142.956C141.757 87.4916 140.957 86.5048 140.957 85.518C140.957 84.3339 141.957 83.5444 142.956 83.5444H167.749C168.948 83.5444 169.748 84.5312 169.748 85.518C169.948 86.5048 168.948 87.4916 167.749 87.4916Z" fill="#1189A1"/>
<path d="M131.161 87.4916H81.5759C80.3762 87.4916 79.5765 86.5048 79.5765 85.518C79.5765 84.3339 80.5762 83.5444 81.5759 83.5444H131.161C132.36 83.5444 133.16 84.5312 133.16 85.518C133.16 86.5048 132.36 87.4916 131.161 87.4916Z" fill="#1189A1"/>
<path d="M148.155 107.425H120.763C119.564 107.425 118.764 106.438 118.764 105.451C118.764 104.464 119.764 103.478 120.763 103.478H148.155C149.354 103.478 150.154 104.464 150.154 105.451C150.154 106.438 149.354 107.425 148.155 107.425Z" fill="#1189A1"/>
<path d="M108.967 107.425H81.5759C80.3762 107.425 79.5765 106.438 79.5765 105.451C79.5765 104.464 80.5762 103.478 81.5759 103.478H108.967C110.167 103.478 110.967 104.464 110.967 105.451C110.967 106.438 110.167 107.425 108.967 107.425Z" fill="#1189A1"/>
<path d="M167.749 127.556H148.755C147.555 127.556 146.755 126.569 146.755 125.582C146.755 124.398 147.755 123.608 148.755 123.608H167.749C168.949 123.608 169.748 124.595 169.748 125.582C169.948 126.569 168.949 127.556 167.749 127.556Z" fill="#1189A1"/>
<path d="M136.359 127.556H104.369C103.169 127.556 102.369 126.569 102.369 125.582C102.369 124.398 103.369 123.608 104.369 123.608H136.359C137.559 123.608 138.358 124.595 138.358 125.582C138.558 126.569 137.559 127.556 136.359 127.556Z" fill="#1189A1"/>
<path d="M92.5728 127.556H81.3762C80.1766 127.556 79.3768 126.569 79.3768 125.582C79.3768 124.398 80.3765 123.608 81.3762 123.608H92.5728C93.7724 123.608 94.5722 124.595 94.5722 125.582C94.5722 126.569 93.7724 127.556 92.5728 127.556Z" fill="#1189A1"/>
<path d="M148.155 147.489H129.161C127.961 147.489 127.162 146.502 127.162 145.515C127.162 144.529 128.161 143.542 129.161 143.542H148.155C149.355 143.542 150.155 144.529 150.155 145.515C150.155 146.502 149.355 147.489 148.155 147.489Z" fill="#1189A1"/>
<path d="M116.765 147.489H81.5759C80.3762 147.489 79.5765 146.502 79.5765 145.515C79.5765 144.529 80.5762 143.542 81.5759 143.542H116.765C117.965 143.542 118.764 144.529 118.764 145.515C118.764 146.502 117.765 147.489 116.765 147.489Z" fill="#1189A1"/>
<path d="M121.163 166.238H148.755C148.755 170.777 150.554 175.119 153.753 178.08C156.753 181.04 160.951 183.014 165.75 183.014H41.188C36.5894 183.014 32.1908 181.237 29.1917 178.08C26.1926 175.119 24.1932 170.975 24.1932 166.238H105.968C106.168 166.238 121.363 166.435 121.163 166.238Z" fill="#1189A1"/>
<path d="M77.1773 166.238H76.1776" stroke="#182052" stroke-miterlimit="10" stroke-linecap="round" stroke-linejoin="round"/>
<path d="M165.75 183.014C161.151 183.014 156.753 181.237 153.754 178.08C150.755 175.119 148.755 170.975 148.755 166.238H83.5753" stroke="#182052" stroke-miterlimit="10" stroke-linecap="round" stroke-linejoin="round"/>
<path d="M62.3815 90.2545V166.435H24.1932C24.1932 170.975 25.9927 175.317 29.1917 178.277C32.1908 181.237 36.5894 183.211 41.188 183.211H165.75C165.75 183.211 165.75 183.211 165.55 183.211C179.945 183.211 188.343 172.948 188.343 161.896" stroke="#182052" stroke-miterlimit="10" stroke-linecap="round" stroke-linejoin="round"/>
<path d="M198.14 39.7305C198.74 39.7305 226.181 39.7305 224.932 39.7305C224.932 39.7305 224.732 37.3621 224.732 36.9674C223.532 27.4941 216.534 19.7971 206.537 18.6129C204.538 18.4156 77.377 18.4156 79.3764 18.4156C70.779 18.4156 62.7815 24.7311 62.3816 34.5991V74.8605" stroke="#182052" stroke-miterlimit="10" stroke-linecap="round" stroke-linejoin="round"/>
<path d="M42.9549 23.517C45.5802 22.6747 47.0167 19.891 46.1635 17.2996C45.3102 14.7081 42.4902 13.2902 39.8649 14.1325C37.2396 14.9748 35.8031 17.7584 36.6564 20.3498C37.5097 22.9413 40.3296 24.3593 42.9549 23.517Z" fill="#56C0D8"/>
<path d="M53.8673 7.41847C55.6525 6.84571 56.6293 4.95287 56.0491 3.19068C55.4688 1.4285 53.5512 0.464275 51.766 1.03703C49.9808 1.60979 49.004 3.50263 49.5842 5.26482C50.1645 7.027 52.0821 7.99122 53.8673 7.41847Z" fill="#56C0D8"/>
<path d="M9.23602 113.548C11.0212 112.975 11.998 111.083 11.4178 109.32C10.8375 107.558 8.91997 106.594 7.13475 107.167C5.34954 107.739 4.37273 109.632 4.95297 111.395C5.53322 113.157 7.4508 114.121 9.23602 113.548Z" fill="#56C0D8"/>
<path d="M244.44 72.1362C247.538 69.342 247.754 64.5982 244.923 61.5406C242.093 58.483 237.287 58.2695 234.189 61.0636C231.092 63.8578 230.876 68.6016 233.706 71.6592C236.537 74.7168 241.343 74.9303 244.44 72.1362Z" fill="#56C0D8"/>
<path d="M245.014 38.5137C246.318 37.3372 246.409 35.3398 245.218 34.0524C244.026 32.765 242.002 32.6751 240.698 33.8516C239.394 35.0281 239.303 37.0255 240.495 38.3129C241.686 39.6003 243.71 39.6902 245.014 38.5137Z" fill="#56C0D8"/>
<path d="M67.3794 66.9661C67.5794 73.479 62.181 79.0051 55.583 79.2024H52.384L43.5867 79.3998C30.3908 79.7945 19.3942 69.3344 18.9943 56.3087C18.7944 43.2829 29.1912 32.4281 42.3871 32.0334C55.583 31.6387 66.5797 42.0988 66.9795 55.1245L67.1795 60.0585L67.3794 66.9661Z" fill="#6F4A9F"/>
<path d="M39.1882 30.4545C40.1879 30.2571 41.3875 30.2571 42.3872 30.2571C55.5831 29.8624 66.5798 40.3225 66.9796 53.3482L67.1796 58.2822L67.3795 64.9925C67.5794 71.5053 62.1811 77.0314 55.5831 77.2288H52.3841L43.5868 77.4261C30.3909 77.8208 19.3942 67.3608 18.9944 54.335C18.7944 46.638 22.3933 39.7304 28.1915 35.1911" stroke="#182052" stroke-miterlimit="10" stroke-linecap="round" stroke-linejoin="round"/>
<path d="M34.1902 31.8361H34.3902" stroke="#182052" stroke-miterlimit="10" stroke-linecap="round" stroke-linejoin="round"/>
<path d="M39.7889 65.782C38.9892 65.782 38.1894 65.5846 37.5896 64.9925L31.7914 59.2691C30.5918 58.0849 30.5918 56.3087 31.7914 55.1245C32.991 53.9404 34.7905 53.9404 35.9901 55.1245L39.589 58.677L50.1857 48.2169C51.3854 47.0328 53.1848 47.0328 54.3844 48.2169C55.5841 49.4011 55.5841 51.1773 54.3844 52.3615L41.5884 64.9925C41.3884 65.3872 40.5887 65.782 39.7889 65.782Z" fill="white"/>
<path d="M1 186.369H205.137" stroke="#EBF0F6" stroke-width="2" stroke-miterlimit="10" stroke-linecap="round" stroke-linejoin="round"/>
<path d="M239.755 166.455C239.155 169.021 238.355 171.39 237.355 173.758C237.155 174.35 236.955 174.745 236.555 175.337C233.156 181.849 227.758 187.178 221.16 190.336C220.36 190.731 219.56 191.126 218.961 191.323C212.563 193.889 205.365 194.875 198.167 193.297C179.173 189.349 166.977 170.994 170.975 152.245C174.974 133.496 193.569 121.458 212.563 125.405C219.361 126.786 225.359 130.141 230.357 134.878C238.555 143.167 242.154 155.009 239.755 166.455Z" fill="#56C0D8"/>
<path d="M205.165 122.839C207.564 122.839 209.963 123.036 212.363 123.628C219.16 125.01 225.159 128.365 230.157 133.102C238.555 141.391 242.154 153.233 239.754 164.68C239.155 167.245 238.355 169.613 237.355 171.981C237.155 172.573 236.955 172.969 236.555 173.561C233.156 180.074 227.758 185.403 221.16 188.56C220.36 188.955 219.56 189.35 218.961 189.547C212.563 192.113 205.365 193.1 198.167 191.521C179.173 187.574 166.977 169.218 170.975 150.469C172.575 142.575 176.773 136.062 182.372 131.128" stroke="#182052" stroke-miterlimit="10" stroke-linecap="round" stroke-linejoin="round"/>
<path d="M193.568 124.813C193.768 124.813 193.968 124.615 194.368 124.615" stroke="#182052" stroke-miterlimit="10" stroke-linecap="round" stroke-linejoin="round"/>
<path d="M220.486 185.394C220.284 184.73 223.765 185.478 223.563 184.815C223.35 184.59 223.362 184.152 223.149 183.927C222.118 181.488 220.213 179.026 217.618 177.862C216.323 177.171 215.023 176.699 213.492 176.659C213.055 176.648 212.618 176.637 212.399 176.631C209.776 176.564 209.569 176.119 209.569 176.119L209.676 171.955C211.016 170.893 212.361 169.611 213.27 168.319C214.178 167.026 215.092 165.514 215.356 163.766C217.116 163.373 218.03 161.861 218.069 160.327C218.086 159.669 217.672 158.781 217.47 158.118C217.481 157.679 217.487 157.46 217.498 157.022C217.504 156.803 217.509 156.583 217.515 156.364C217.521 156.145 217.526 155.926 217.538 155.487C217.353 154.167 217.168 152.846 216.333 151.289C214.249 147.287 210.163 144.55 205.573 144.431C204.698 144.409 203.599 144.6 202.719 144.797C200.959 145.19 199.412 145.808 198.072 146.87C197.848 147.084 197.405 147.292 197.181 147.505L196.957 147.719C195.393 148.995 194.254 150.72 193.548 152.676C192.841 154.632 192.572 156.599 192.958 158.583C192.958 158.583 192.958 158.583 192.952 158.802C192.952 158.802 192.952 158.802 192.947 159.021C192.936 159.46 193.16 159.246 192.93 159.679C192.93 159.679 192.706 159.893 192.7 160.112C192.464 160.764 192.01 161.41 192.419 162.517C193.03 164.288 194.347 164.102 195.412 165.226C195.412 165.226 195.193 165.221 195.188 165.44L193.893 164.749C188.164 166.356 185.848 171.341 188.392 174.477C189.239 175.596 190.741 176.731 192.921 177.007C192.265 176.99 191.817 177.417 191.374 177.625C188.7 179.53 187.091 182.559 186.574 185.617C186.333 186.488 187.185 187.387 188.059 187.41L218.888 187.985C219.757 188.226 220.682 186.276 220.486 185.394ZM197.726 168.796C198.152 169.245 198.359 169.689 198.785 170.139C199.217 170.369 199.424 170.813 199.856 171.044C200.069 171.269 200.282 171.493 200.713 171.724C200.713 171.724 200.932 171.73 200.926 171.949L201.139 172.174L201.071 174.804C201.071 174.804 201.071 174.804 200.859 174.579C200.646 174.354 200.433 174.129 200.22 173.905C199.788 173.674 199.575 173.449 199.144 173.219C198.925 173.213 198.931 172.994 198.712 172.988C197.636 172.303 196.347 171.392 196.369 170.515C196.381 170.077 196.835 169.431 197.726 168.796Z" fill="white"/>
<path d="M223.569 184.597C218.193 189.503 210.906 192.167 203.254 191.97C196.915 191.807 191.282 189.687 186.558 186.276C186.563 186.056 186.563 186.056 186.569 185.837C187.085 182.78 188.694 179.75 191.368 177.845C191.811 177.637 192.26 177.21 192.916 177.227C190.741 176.732 189.233 175.816 188.387 174.698L195.382 174.878C197.282 177.559 200.51 179.616 204.008 179.706C207.068 179.785 209.944 178.543 211.962 176.621C212.181 176.627 212.399 176.632 212.618 176.638C213.055 176.649 213.274 176.655 213.711 176.666C215.241 176.705 216.542 177.178 217.836 177.869C220.426 179.252 222.118 181.489 223.367 183.934C223.367 183.934 223.575 184.378 223.569 184.597Z" fill="#6F4A9F"/>
<path d="M200.927 171.95C203.084 173.102 205.909 173.833 209.906 171.523" stroke="#182052" stroke-miterlimit="10" stroke-linecap="round" stroke-linejoin="round"/>
<path d="M202.403 182.516C201.277 183.803 199.528 183.758 197.779 183.713C199.567 182.224 198.615 176.716 192.696 177.221C184.647 175.479 185.742 166.953 193.674 164.744L194.997 164.34L195.21 164.564C195.82 166.335 196.661 167.673 197.507 168.791C194.16 171.337 198.728 172.332 200.858 174.58C202.797 175.727 204.209 180.369 202.403 182.516Z" fill="#1C3754"/>
<path d="M217.75 155.713C215.542 156.534 212.913 156.685 210.514 156.404C206.803 156.089 203.126 154.459 200.134 151.75C199.186 154.577 196.731 156.488 194.073 157.736C193.631 157.944 193.412 157.938 192.969 158.146C192.969 158.146 192.969 158.146 192.975 157.927C192.807 155.948 193.082 153.762 193.564 152.02C194.271 150.064 195.409 148.338 196.973 147.063L197.198 146.849C197.422 146.635 197.646 146.422 198.089 146.214C199.429 145.152 201.195 144.539 202.736 144.14C203.616 143.944 204.709 143.972 205.584 143.994C210.393 144.118 214.478 146.855 216.344 150.852C217.179 152.409 217.364 153.729 217.549 155.05C217.762 155.275 217.756 155.494 217.75 155.713Z" fill="#1C3754"/>
<path d="M223.155 183.709C222.124 181.27 220.219 178.808 217.624 177.644C216.329 176.953 215.029 176.481 213.498 176.441C213.061 176.43 212.624 176.419 212.405 176.413C209.782 176.346 209.575 175.901 209.575 175.901L209.682 171.737C211.022 170.675 212.367 169.393 213.276 168.101C214.184 166.808 215.098 165.296 215.362 163.548C217.122 163.155 219.347 161.677 217.672 158.782C217.252 158.113 217.459 158.557 217.482 157.68C217.493 157.242 217.499 157.023 217.51 156.585C217.515 156.365 217.521 156.146 217.527 155.927C217.532 155.708 217.538 155.489 217.549 155.05C217.365 153.729 217.18 152.409 216.345 150.852C214.261 146.85 210.175 144.112 205.584 143.994C204.71 143.972 203.611 144.163 202.731 144.359C200.971 144.753 199.424 145.371 198.084 146.433C197.86 146.647 197.417 146.855 197.193 147.068L196.968 147.282C195.404 148.558 194.266 150.283 193.559 152.239C192.853 154.195 192.583 156.162 192.97 158.146C192.97 158.146 192.97 158.146 192.964 158.365C192.964 158.365 192.964 158.365 192.959 158.584C192.947 159.023 193.171 158.809 192.942 159.242C192.942 159.242 192.717 159.455 192.712 159.675C192.476 160.327 192.022 160.973 192.431 162.08C193.042 163.851 194.359 163.665 195.424 164.789C195.424 164.789 195.205 164.784 195.199 165.003L193.893 164.75C188.165 166.357 185.849 171.342 188.393 174.479C189.239 175.597 190.741 176.732 192.921 177.008C192.266 176.991 191.817 177.418 191.374 177.626C189.816 178.683 188.683 180.189 187.764 181.92" stroke="#182052" stroke-miterlimit="10" stroke-linecap="round" stroke-linejoin="round"/>
</svg>
